<svg width="467" height="54" viewBox="0 0 467 54" fill="none" xmlns="http://www.w3.org/2000/svg">
<rect width="467" height="54" rx="25" fill="#EDF9FF"/>
<path d="M121.116 30.804V27.672H117.516C116.952 27.672 116.58 27.57 116.4 27.366C116.232 27.15 116.148 26.79 116.148 26.286V24.036C116.148 23.52 116.25 23.178 116.454 23.01C116.67 22.842 117.048 22.758 117.588 22.758H125.706C125.874 22.758 125.976 22.734 126.012 22.686C126.06 22.638 126.084 22.524 126.084 22.344V20.472C126.084 20.292 126.06 20.178 126.012 20.13C125.976 20.082 125.874 20.058 125.706 20.058H116.4C116.34 20.058 116.28 20.04 116.22 20.004C116.172 19.968 116.148 19.92 116.148 19.86V19.176C116.148 19.116 116.172 19.068 116.22 19.032C116.28 18.996 116.34 18.978 116.4 18.978H125.904C126.192 18.978 126.426 19.002 126.606 19.05C126.786 19.086 126.93 19.152 127.038 19.248C127.146 19.344 127.218 19.482 127.254 19.662C127.302 19.83 127.326 20.04 127.326 20.292V22.542C127.326 23.058 127.218 23.4 127.002 23.568C126.798 23.736 126.426 23.82 125.886 23.82H117.768C117.6 23.82 117.492 23.844 117.444 23.892C117.408 23.94 117.39 24.054 117.39 24.234V26.178C117.39 26.346 117.414 26.46 117.462 26.52C117.51 26.568 117.618 26.592 117.786 26.592H127.452C127.512 26.592 127.566 26.61 127.614 26.646C127.674 26.682 127.704 26.73 127.704 26.79V27.456C127.704 27.516 127.674 27.57 127.614 27.618C127.566 27.654 127.518 27.672 127.47 27.672H122.358V30.804H129.432C129.492 30.804 129.552 30.828 129.612 30.876C129.672 30.912 129.702 30.966 129.702 31.038V31.65C129.702 31.71 129.672 31.764 129.612 31.812C129.552 31.86 129.492 31.884 129.432 31.884H114.132C114.06 31.884 113.994 31.86 113.934 31.812C113.886 31.764 113.862 31.71 113.862 31.65V31.038C113.862 30.966 113.886 30.912 113.934 30.876C113.994 30.828 114.06 30.804 114.132 30.804H121.116ZM133.004 19.734C133.004 19.662 133.034 19.608 133.094 19.572C133.154 19.536 133.214 19.518 133.274 19.518H142.922C143.21 19.518 143.438 19.548 143.606 19.608C143.786 19.668 143.924 19.758 144.02 19.878C144.116 19.986 144.182 20.13 144.218 20.31C144.254 20.49 144.278 20.706 144.29 20.958C144.302 21.282 144.296 21.696 144.272 22.2C144.26 22.692 144.236 23.238 144.2 23.838C144.164 24.426 144.116 25.044 144.056 25.692C144.008 26.328 143.948 26.958 143.876 27.582C143.816 28.194 143.75 28.782 143.678 29.346C143.606 29.898 143.534 30.384 143.462 30.804H146.36C146.42 30.804 146.48 30.828 146.54 30.876C146.6 30.912 146.63 30.966 146.63 31.038V31.65C146.63 31.71 146.6 31.764 146.54 31.812C146.48 31.86 146.42 31.884 146.36 31.884H131.06C130.988 31.884 130.922 31.86 130.862 31.812C130.814 31.764 130.79 31.71 130.79 31.65V31.038C130.79 30.966 130.814 30.912 130.862 30.876C130.922 30.828 130.988 30.804 131.06 30.804H142.238C142.31 30.492 142.382 30.078 142.454 29.562C142.538 29.046 142.616 28.482 142.688 27.87C142.76 27.258 142.82 26.616 142.868 25.944C142.928 25.272 142.976 24.624 143.012 24C143.048 23.376 143.072 22.8 143.084 22.272C143.096 21.744 143.09 21.312 143.066 20.976C143.054 20.808 143.024 20.706 142.976 20.67C142.928 20.622 142.82 20.598 142.652 20.598H133.274C133.214 20.598 133.154 20.58 133.094 20.544C133.034 20.496 133.004 20.442 133.004 20.382V19.734ZM161.668 29.868C161.668 30.036 161.584 30.12 161.416 30.12H160.678C160.51 30.12 160.426 30.036 160.426 29.868V18.384C160.426 18.216 160.51 18.132 160.678 18.132H161.416C161.584 18.132 161.668 18.216 161.668 18.384V29.868ZM162.208 34.188C162.208 34.26 162.178 34.314 162.118 34.35C162.058 34.386 161.998 34.404 161.938 34.404H152.92C152.356 34.404 151.984 34.296 151.804 34.08C151.636 33.876 151.552 33.528 151.552 33.036V29.508C151.552 29.34 151.636 29.256 151.804 29.256H152.542C152.71 29.256 152.794 29.34 152.794 29.508V32.946C152.794 33.114 152.818 33.216 152.866 33.252C152.926 33.3 153.04 33.324 153.208 33.324H161.938C161.998 33.324 162.058 33.342 162.118 33.378C162.178 33.426 162.208 33.48 162.208 33.54V34.188ZM157.258 23.118C157.258 23.742 157.15 24.318 156.934 24.846C156.718 25.362 156.418 25.806 156.034 26.178C155.65 26.55 155.194 26.844 154.666 27.06C154.15 27.264 153.586 27.366 152.974 27.366C152.386 27.366 151.834 27.264 151.318 27.06C150.802 26.856 150.352 26.568 149.968 26.196C149.596 25.812 149.302 25.362 149.086 24.846C148.87 24.33 148.762 23.754 148.762 23.118C148.762 22.458 148.87 21.864 149.086 21.336C149.302 20.808 149.596 20.358 149.968 19.986C150.352 19.614 150.802 19.332 151.318 19.14C151.834 18.948 152.386 18.852 152.974 18.852C153.526 18.852 154.06 18.948 154.576 19.14C155.092 19.332 155.548 19.614 155.944 19.986C156.34 20.346 156.658 20.79 156.898 21.318C157.138 21.846 157.258 22.446 157.258 23.118ZM155.998 23.1C155.998 22.596 155.914 22.152 155.746 21.768C155.59 21.372 155.374 21.048 155.098 20.796C154.822 20.532 154.498 20.334 154.126 20.202C153.766 20.07 153.382 20.004 152.974 20.004C152.554 20.004 152.164 20.07 151.804 20.202C151.456 20.334 151.144 20.532 150.868 20.796C150.604 21.048 150.394 21.372 150.238 21.768C150.094 22.152 150.022 22.596 150.022 23.1C150.022 23.58 150.094 24.012 150.238 24.396C150.382 24.78 150.586 25.11 150.85 25.386C151.114 25.65 151.426 25.86 151.786 26.016C152.146 26.16 152.542 26.232 152.974 26.232C153.382 26.232 153.766 26.16 154.126 26.016C154.498 25.86 154.822 25.65 155.098 25.386C155.374 25.11 155.59 24.78 155.746 24.396C155.914 24.012 155.998 23.58 155.998 23.1ZM183.64 28.122C183.64 28.29 183.556 28.374 183.388 28.374H182.65C182.482 28.374 182.398 28.29 182.398 28.122V18.384C182.398 18.216 182.482 18.132 182.65 18.132H183.388C183.556 18.132 183.64 18.216 183.64 18.384V28.122ZM183.802 31.776C183.802 32.268 183.664 32.7 183.388 33.072C183.112 33.456 182.734 33.774 182.254 34.026C181.774 34.278 181.216 34.47 180.58 34.602C179.956 34.734 179.284 34.8 178.564 34.8C177.784 34.8 177.07 34.734 176.422 34.602C175.786 34.47 175.24 34.278 174.784 34.026C174.328 33.774 173.974 33.456 173.722 33.072C173.47 32.7 173.344 32.268 173.344 31.776C173.344 31.284 173.47 30.852 173.722 30.48C173.974 30.108 174.328 29.796 174.784 29.544C175.24 29.292 175.786 29.106 176.422 28.986C177.07 28.854 177.784 28.788 178.564 28.788C179.284 28.788 179.956 28.854 180.58 28.986C181.216 29.106 181.774 29.292 182.254 29.544C182.734 29.796 183.112 30.108 183.388 30.48C183.664 30.852 183.802 31.284 183.802 31.776ZM182.524 31.83C182.524 31.482 182.416 31.182 182.2 30.93C181.984 30.678 181.69 30.474 181.318 30.318C180.946 30.162 180.52 30.048 180.04 29.976C179.56 29.904 179.062 29.868 178.546 29.868C177.97 29.868 177.436 29.904 176.944 29.976C176.464 30.048 176.05 30.162 175.702 30.318C175.366 30.474 175.102 30.678 174.91 30.93C174.718 31.182 174.622 31.482 174.622 31.83C174.622 32.154 174.718 32.436 174.91 32.676C175.102 32.916 175.366 33.114 175.702 33.27C176.05 33.426 176.464 33.54 176.944 33.612C177.436 33.684 177.97 33.72 178.546 33.72C179.062 33.72 179.56 33.684 180.04 33.612C180.52 33.54 180.946 33.426 181.318 33.27C181.69 33.114 181.984 32.916 182.2 32.676C182.416 32.436 182.524 32.154 182.524 31.83ZM172.516 27.132C171.976 27.132 171.61 27.03 171.418 26.826C171.238 26.61 171.148 26.25 171.148 25.746V23.622C171.148 23.118 171.25 22.782 171.454 22.614C171.67 22.434 172.048 22.344 172.588 22.344H176.926C177.094 22.344 177.202 22.32 177.25 22.272C177.298 22.224 177.322 22.11 177.322 21.93V20.31C177.322 20.13 177.298 20.016 177.25 19.968C177.214 19.92 177.112 19.896 176.944 19.896H171.436C171.292 19.896 171.22 19.818 171.22 19.662V19.032C171.22 18.888 171.292 18.816 171.436 18.816H177.142C177.43 18.816 177.664 18.84 177.844 18.888C178.024 18.924 178.168 18.99 178.276 19.086C178.384 19.182 178.456 19.32 178.492 19.5C178.54 19.668 178.564 19.878 178.564 20.13V22.146C178.564 22.65 178.456 22.992 178.24 23.172C178.036 23.34 177.664 23.424 177.124 23.424H172.768C172.6 23.424 172.492 23.448 172.444 23.496C172.408 23.544 172.39 23.658 172.39 23.838V25.656C172.39 25.932 172.522 26.07 172.786 26.07C173.494 26.07 174.172 26.058 174.82 26.034C175.468 26.01 176.098 25.974 176.71 25.926C177.334 25.866 177.946 25.8 178.546 25.728C179.146 25.644 179.758 25.548 180.382 25.44C180.502 25.416 180.58 25.416 180.616 25.44C180.664 25.464 180.7 25.524 180.724 25.62L180.832 26.196C180.856 26.304 180.844 26.376 180.796 26.412C180.76 26.448 180.688 26.478 180.58 26.502C179.452 26.706 178.192 26.868 176.8 26.988C175.408 27.096 173.98 27.144 172.516 27.132ZM188.958 19.536C188.958 19.464 188.988 19.41 189.048 19.374C189.108 19.338 189.168 19.32 189.228 19.32H198.75C199.038 19.32 199.266 19.35 199.434 19.41C199.614 19.47 199.752 19.56 199.848 19.68C199.944 19.788 200.01 19.932 200.046 20.112C200.082 20.292 200.106 20.508 200.118 20.76C200.13 21.084 200.124 21.504 200.1 22.02C200.088 22.524 200.064 23.076 200.028 23.676C199.992 24.276 199.944 24.906 199.884 25.566C199.836 26.226 199.776 26.874 199.704 27.51C199.644 28.146 199.578 28.752 199.506 29.328C199.434 29.892 199.362 30.384 199.29 30.804H202.188C202.248 30.804 202.308 30.828 202.368 30.876C202.428 30.912 202.458 30.966 202.458 31.038V31.65C202.458 31.71 202.428 31.764 202.368 31.812C202.308 31.86 202.248 31.884 202.188 31.884H186.888C186.816 31.884 186.75 31.86 186.69 31.812C186.642 31.764 186.618 31.71 186.618 31.65V31.038C186.618 30.966 186.642 30.912 186.69 30.876C186.75 30.828 186.816 30.804 186.888 30.804H198.066C198.126 30.552 198.186 30.24 198.246 29.868C198.306 29.484 198.36 29.064 198.408 28.608C198.468 28.14 198.522 27.648 198.57 27.132C198.63 26.616 198.678 26.094 198.714 25.566C198.534 25.59 198.3 25.608 198.012 25.62C197.736 25.632 197.448 25.644 197.148 25.656C196.86 25.656 196.596 25.662 196.356 25.674C196.116 25.674 195.954 25.674 195.87 25.674C195.582 25.686 195.138 25.698 194.538 25.71C193.95 25.71 193.32 25.716 192.648 25.728C191.988 25.728 191.352 25.734 190.74 25.746C190.14 25.746 189.678 25.746 189.354 25.746C189.198 25.746 189.12 25.674 189.12 25.53V24.918C189.12 24.774 189.198 24.702 189.354 24.702C189.594 24.702 189.894 24.702 190.254 24.702C190.626 24.702 191.022 24.702 191.442 24.702C191.874 24.69 192.312 24.684 192.756 24.684C193.212 24.672 193.632 24.666 194.016 24.666C194.412 24.654 194.766 24.648 195.078 24.648C195.39 24.648 195.618 24.642 195.762 24.63C195.834 24.63 196.002 24.624 196.266 24.612C196.53 24.6 196.818 24.594 197.13 24.594C197.454 24.582 197.772 24.57 198.084 24.558C198.396 24.546 198.636 24.528 198.804 24.504C198.852 23.736 198.882 23.022 198.894 22.362C198.918 21.702 198.918 21.174 198.894 20.778C198.882 20.61 198.852 20.508 198.804 20.472C198.756 20.424 198.648 20.4 198.48 20.4H189.228C189.168 20.4 189.108 20.382 189.048 20.346C188.988 20.298 188.958 20.244 188.958 20.184V19.536ZM212.132 20.778C212.072 21.81 211.868 22.824 211.52 23.82C211.172 24.816 210.686 25.77 210.062 26.682C209.45 27.582 208.706 28.422 207.83 29.202C206.966 29.97 205.982 30.648 204.878 31.236C204.722 31.32 204.608 31.302 204.536 31.182L204.14 30.552C204.056 30.408 204.08 30.306 204.212 30.246C205.232 29.718 206.132 29.118 206.912 28.446C207.704 27.762 208.376 27.024 208.928 26.232C209.492 25.44 209.936 24.606 210.26 23.73C210.584 22.854 210.788 21.954 210.872 21.03C210.896 20.85 210.872 20.73 210.8 20.67C210.728 20.598 210.608 20.562 210.44 20.562H204.86C204.716 20.562 204.644 20.484 204.644 20.328V19.698C204.644 19.554 204.716 19.482 204.86 19.482H210.782C211.346 19.482 211.718 19.59 211.898 19.806C212.078 20.01 212.156 20.334 212.132 20.778ZM216.866 34.476C216.866 34.644 216.782 34.728 216.614 34.728H215.876C215.708 34.728 215.624 34.644 215.624 34.476V18.384C215.624 18.216 215.708 18.132 215.876 18.132H216.614C216.782 18.132 216.866 18.216 216.866 18.384V24.756H219.35C219.422 24.756 219.482 24.78 219.53 24.828C219.59 24.864 219.62 24.918 219.62 24.99V25.602C219.62 25.662 219.59 25.716 219.53 25.764C219.482 25.812 219.422 25.836 219.35 25.836H216.866V34.476ZM235.257 24.99C235.257 25.662 235.173 26.34 235.005 27.024C234.849 27.708 234.597 28.326 234.249 28.878C233.901 29.43 233.451 29.886 232.899 30.246C232.359 30.594 231.705 30.768 230.937 30.768C230.145 30.768 229.473 30.594 228.921 30.246C228.381 29.898 227.943 29.448 227.607 28.896C227.283 28.332 227.049 27.708 226.905 27.024C226.761 26.34 226.689 25.662 226.689 24.99C226.689 24.282 226.761 23.586 226.905 22.902C227.049 22.206 227.283 21.582 227.607 21.03C227.943 20.478 228.381 20.034 228.921 19.698C229.473 19.362 230.145 19.194 230.937 19.194C231.705 19.194 232.359 19.362 232.899 19.698C233.451 20.034 233.901 20.478 234.249 21.03C234.597 21.57 234.849 22.188 235.005 22.884C235.173 23.568 235.257 24.27 235.257 24.99ZM233.979 24.972C233.979 24.42 233.919 23.862 233.799 23.298C233.691 22.734 233.517 22.23 233.277 21.786C233.037 21.33 232.725 20.964 232.341 20.688C231.957 20.4 231.489 20.256 230.937 20.256C230.361 20.256 229.881 20.4 229.497 20.688C229.125 20.964 228.825 21.33 228.597 21.786C228.369 22.23 228.207 22.734 228.111 23.298C228.015 23.862 227.967 24.42 227.967 24.972C227.967 25.5 228.009 26.046 228.093 26.61C228.189 27.162 228.351 27.672 228.579 28.14C228.807 28.596 229.113 28.974 229.497 29.274C229.881 29.562 230.361 29.706 230.937 29.706C231.489 29.706 231.957 29.562 232.341 29.274C232.725 28.974 233.037 28.596 233.277 28.14C233.517 27.672 233.691 27.162 233.799 26.61C233.919 26.046 233.979 25.5 233.979 24.972ZM239.469 34.476C239.469 34.644 239.385 34.728 239.217 34.728H238.479C238.311 34.728 238.227 34.644 238.227 34.476V18.384C238.227 18.216 238.311 18.132 238.479 18.132H239.217C239.385 18.132 239.469 18.216 239.469 18.384V34.476ZM243.274 20.85C243.274 20.346 243.37 20.01 243.562 19.842C243.754 19.662 244.114 19.572 244.642 19.572H248.944C249.232 19.572 249.46 19.59 249.628 19.626C249.808 19.662 249.946 19.728 250.042 19.824C250.15 19.92 250.222 20.052 250.258 20.22C250.294 20.388 250.312 20.598 250.312 20.85V24.324H252.616V18.69C252.616 18.522 252.7 18.438 252.868 18.438H253.552C253.72 18.438 253.804 18.522 253.804 18.69V33.792C253.804 33.96 253.72 34.044 253.552 34.044H252.868C252.7 34.044 252.616 33.96 252.616 33.792V25.404H250.312V28.644C250.312 29.148 250.216 29.49 250.024 29.67C249.832 29.838 249.472 29.922 248.944 29.922H244.642C244.354 29.922 244.12 29.904 243.94 29.868C243.772 29.832 243.634 29.766 243.526 29.67C243.43 29.562 243.364 29.43 243.328 29.274C243.292 29.106 243.274 28.896 243.274 28.644V20.85ZM244.948 20.652C244.78 20.652 244.666 20.688 244.606 20.76C244.546 20.82 244.516 20.94 244.516 21.12V28.374C244.516 28.554 244.546 28.68 244.606 28.752C244.666 28.812 244.78 28.842 244.948 28.842H248.638C248.806 28.842 248.92 28.812 248.98 28.752C249.04 28.68 249.07 28.554 249.07 28.374V21.12C249.07 20.94 249.04 20.82 248.98 20.76C248.92 20.688 248.806 20.652 248.638 20.652H244.948ZM256.99 34.476C256.99 34.644 256.906 34.728 256.738 34.728H256.054C255.886 34.728 255.802 34.644 255.802 34.476V18.384C255.802 18.216 255.886 18.132 256.054 18.132H256.738C256.906 18.132 256.99 18.216 256.99 18.384V34.476ZM273.324 26.574C273.324 26.742 273.24 26.826 273.072 26.826H272.334C272.166 26.826 272.082 26.742 272.082 26.574V18.384C272.082 18.216 272.166 18.132 272.334 18.132H273.072C273.24 18.132 273.324 18.216 273.324 18.384V26.574ZM268.86 22.452C268.86 23.016 268.746 23.538 268.518 24.018C268.302 24.486 268.002 24.894 267.618 25.242C267.234 25.59 266.784 25.866 266.268 26.07C265.752 26.262 265.2 26.358 264.612 26.358C264.036 26.358 263.496 26.262 262.992 26.07C262.5 25.878 262.062 25.614 261.678 25.278C261.306 24.93 261.012 24.516 260.796 24.036C260.58 23.556 260.472 23.028 260.472 22.452C260.472 21.84 260.58 21.294 260.796 20.814C261.012 20.322 261.306 19.908 261.678 19.572C262.062 19.236 262.5 18.978 262.992 18.798C263.496 18.618 264.036 18.528 264.612 18.528C265.152 18.528 265.674 18.618 266.178 18.798C266.694 18.978 267.15 19.236 267.546 19.572C267.942 19.908 268.26 20.322 268.5 20.814C268.74 21.294 268.86 21.84 268.86 22.452ZM267.6 22.434C267.6 21.99 267.516 21.594 267.348 21.246C267.18 20.898 266.958 20.61 266.682 20.382C266.406 20.154 266.088 19.98 265.728 19.86C265.368 19.74 264.996 19.68 264.612 19.68C264.216 19.68 263.838 19.74 263.478 19.86C263.13 19.968 262.824 20.136 262.56 20.364C262.308 20.592 262.104 20.88 261.948 21.228C261.804 21.576 261.732 21.978 261.732 22.434C261.732 22.866 261.804 23.256 261.948 23.604C262.092 23.94 262.29 24.234 262.542 24.486C262.806 24.726 263.112 24.912 263.46 25.044C263.808 25.164 264.192 25.224 264.612 25.224C264.996 25.224 265.368 25.164 265.728 25.044C266.088 24.912 266.406 24.726 266.682 24.486C266.958 24.246 267.18 23.952 267.348 23.604C267.516 23.256 267.6 22.866 267.6 22.434ZM273.702 34.566C273.702 34.626 273.672 34.674 273.612 34.71C273.564 34.758 273.516 34.782 273.468 34.782H264.414C263.85 34.782 263.478 34.674 263.298 34.458C263.13 34.254 263.046 33.9 263.046 33.396V32.046C263.046 31.542 263.148 31.206 263.352 31.038C263.568 30.858 263.946 30.768 264.486 30.768H271.686C271.854 30.768 271.962 30.744 272.01 30.696C272.058 30.648 272.082 30.534 272.082 30.354V29.328C272.082 29.148 272.058 29.034 272.01 28.986C271.974 28.938 271.872 28.914 271.704 28.914H263.262C263.202 28.914 263.142 28.896 263.082 28.86C263.034 28.824 263.01 28.776 263.01 28.716V28.068C263.01 28.008 263.034 27.96 263.082 27.924C263.142 27.888 263.202 27.87 263.262 27.87H271.902C272.19 27.87 272.424 27.894 272.604 27.942C272.784 27.978 272.928 28.044 273.036 28.14C273.144 28.236 273.216 28.374 273.252 28.554C273.3 28.722 273.324 28.932 273.324 29.184V30.534C273.324 31.038 273.216 31.38 273 31.56C272.796 31.728 272.424 31.812 271.884 31.812H264.666C264.498 31.812 264.39 31.836 264.342 31.884C264.306 31.932 264.288 32.046 264.288 32.226V33.324C264.288 33.492 264.312 33.6 264.36 33.648C264.408 33.708 264.516 33.738 264.684 33.738H273.45C273.51 33.738 273.564 33.756 273.612 33.792C273.672 33.828 273.702 33.876 273.702 33.936V34.566ZM283.556 30.804V27.672H279.956C279.392 27.672 279.02 27.57 278.84 27.366C278.672 27.15 278.588 26.79 278.588 26.286V24.036C278.588 23.52 278.69 23.178 278.894 23.01C279.11 22.842 279.488 22.758 280.028 22.758H288.146C288.314 22.758 288.416 22.734 288.452 22.686C288.5 22.638 288.524 22.524 288.524 22.344V20.472C288.524 20.292 288.5 20.178 288.452 20.13C288.416 20.082 288.314 20.058 288.146 20.058H278.84C278.78 20.058 278.72 20.04 278.66 20.004C278.612 19.968 278.588 19.92 278.588 19.86V19.176C278.588 19.116 278.612 19.068 278.66 19.032C278.72 18.996 278.78 18.978 278.84 18.978H288.344C288.632 18.978 288.866 19.002 289.046 19.05C289.226 19.086 289.37 19.152 289.478 19.248C289.586 19.344 289.658 19.482 289.694 19.662C289.742 19.83 289.766 20.04 289.766 20.292V22.542C289.766 23.058 289.658 23.4 289.442 23.568C289.238 23.736 288.866 23.82 288.326 23.82H280.208C280.04 23.82 279.932 23.844 279.884 23.892C279.848 23.94 279.83 24.054 279.83 24.234V26.178C279.83 26.346 279.854 26.46 279.902 26.52C279.95 26.568 280.058 26.592 280.226 26.592H289.892C289.952 26.592 290.006 26.61 290.054 26.646C290.114 26.682 290.144 26.73 290.144 26.79V27.456C290.144 27.516 290.114 27.57 290.054 27.618C290.006 27.654 289.958 27.672 289.91 27.672H284.798V30.804H291.872C291.932 30.804 291.992 30.828 292.052 30.876C292.112 30.912 292.142 30.966 292.142 31.038V31.65C292.142 31.71 292.112 31.764 292.052 31.812C291.992 31.86 291.932 31.884 291.872 31.884H276.572C276.5 31.884 276.434 31.86 276.374 31.812C276.326 31.764 276.302 31.71 276.302 31.65V31.038C276.302 30.966 276.326 30.912 276.374 30.876C276.434 30.828 276.5 30.804 276.572 30.804H283.556ZM307.04 20.85C306.872 21.354 306.632 21.864 306.32 22.38C306.008 22.896 305.642 23.406 305.222 23.91C305.702 24.474 306.254 25.008 306.878 25.512C307.514 26.004 308.138 26.412 308.75 26.736C308.906 26.808 308.942 26.922 308.858 27.078L308.444 27.69C308.408 27.75 308.354 27.786 308.282 27.798C308.21 27.798 308.144 27.78 308.084 27.744C307.472 27.408 306.848 26.976 306.212 26.448C305.588 25.92 305.006 25.362 304.466 24.774C303.782 25.494 303.032 26.154 302.216 26.754C301.4 27.354 300.578 27.846 299.75 28.23C299.69 28.254 299.63 28.278 299.57 28.302C299.51 28.314 299.462 28.29 299.426 28.23L299.066 27.6C299.03 27.54 299.024 27.48 299.048 27.42C299.072 27.348 299.114 27.3 299.174 27.276C300.59 26.556 301.856 25.662 302.972 24.594C304.1 23.526 305 22.302 305.672 20.922C305.756 20.754 305.768 20.634 305.708 20.562C305.648 20.49 305.534 20.454 305.366 20.454H300.092C299.948 20.454 299.876 20.376 299.876 20.22V19.59C299.876 19.446 299.948 19.374 300.092 19.374H305.852C306.476 19.374 306.878 19.488 307.058 19.716C307.238 19.932 307.232 20.31 307.04 20.85ZM310.982 22.938V18.384C310.982 18.216 311.066 18.132 311.234 18.132H311.972C312.14 18.132 312.224 18.216 312.224 18.384V30.012C312.224 30.18 312.14 30.264 311.972 30.264H311.234C311.066 30.264 310.982 30.18 310.982 30.012V23.982H307.58C307.424 23.982 307.346 23.91 307.346 23.766V23.154C307.346 23.01 307.424 22.938 307.58 22.938H310.982ZM312.782 34.188C312.782 34.26 312.752 34.314 312.692 34.35C312.632 34.386 312.572 34.404 312.512 34.404H303.404C302.84 34.404 302.468 34.296 302.288 34.08C302.12 33.876 302.036 33.528 302.036 33.036V29.616C302.036 29.448 302.12 29.364 302.288 29.364H303.026C303.194 29.364 303.278 29.448 303.278 29.616V32.946C303.278 33.114 303.302 33.216 303.35 33.252C303.41 33.3 303.524 33.324 303.692 33.324H312.512C312.572 33.324 312.632 33.342 312.692 33.378C312.752 33.426 312.782 33.48 312.782 33.54V34.188ZM328.702 31.902C328.702 32.514 328.51 33.012 328.126 33.396C327.742 33.78 327.268 34.08 326.704 34.296C326.14 34.512 325.528 34.656 324.868 34.728C324.22 34.812 323.626 34.854 323.086 34.854C322.726 34.854 322.336 34.836 321.916 34.8C321.508 34.764 321.094 34.704 320.674 34.62C320.266 34.548 319.87 34.44 319.486 34.296C319.102 34.152 318.76 33.966 318.46 33.738C318.172 33.522 317.938 33.264 317.758 32.964C317.578 32.664 317.488 32.31 317.488 31.902C317.488 31.302 317.68 30.816 318.064 30.444C318.448 30.06 318.922 29.76 319.486 29.544C320.05 29.328 320.656 29.178 321.304 29.094C321.964 29.01 322.558 28.968 323.086 28.968C323.626 28.968 324.22 29.01 324.868 29.094C325.528 29.166 326.14 29.31 326.704 29.526C327.28 29.742 327.754 30.042 328.126 30.426C328.51 30.81 328.702 31.302 328.702 31.902ZM327.388 31.92C327.388 31.524 327.226 31.212 326.902 30.984C326.578 30.744 326.188 30.558 325.732 30.426C325.276 30.294 324.802 30.21 324.31 30.174C323.83 30.126 323.422 30.102 323.086 30.102C322.738 30.102 322.318 30.126 321.826 30.174C321.346 30.21 320.878 30.294 320.422 30.426C319.978 30.558 319.594 30.744 319.27 30.984C318.958 31.212 318.802 31.524 318.802 31.92C318.802 32.304 318.958 32.616 319.27 32.856C319.594 33.096 319.978 33.276 320.422 33.396C320.878 33.528 321.346 33.612 321.826 33.648C322.318 33.696 322.738 33.72 323.086 33.72C323.422 33.72 323.836 33.696 324.328 33.648C324.82 33.612 325.288 33.528 325.732 33.396C326.188 33.276 326.578 33.096 326.902 32.856C327.226 32.616 327.388 32.304 327.388 31.92ZM330.772 26.61C330.832 26.61 330.892 26.634 330.952 26.682C331.012 26.718 331.042 26.772 331.042 26.844V27.456C331.042 27.516 331.012 27.57 330.952 27.618C330.892 27.666 330.832 27.69 330.772 27.69H315.472C315.4 27.69 315.334 27.666 315.274 27.618C315.226 27.57 315.202 27.516 315.202 27.456V26.844C315.202 26.772 315.226 26.718 315.274 26.682C315.334 26.634 315.4 26.61 315.472 26.61H322.438V23.892C322.438 23.724 322.522 23.64 322.69 23.64H323.428C323.596 23.64 323.68 23.724 323.68 23.892V26.61H330.772ZM323.752 18.51C323.728 18.606 323.704 18.708 323.68 18.816C323.668 18.912 323.65 19.008 323.626 19.104C323.686 19.284 323.758 19.44 323.842 19.572C324.058 19.956 324.352 20.334 324.724 20.706C325.096 21.078 325.522 21.426 326.002 21.75C326.494 22.062 327.028 22.344 327.604 22.596C328.192 22.836 328.804 23.028 329.44 23.172C329.512 23.196 329.554 23.238 329.566 23.298C329.578 23.358 329.572 23.418 329.548 23.478L329.242 24.09C329.218 24.15 329.182 24.198 329.134 24.234C329.098 24.258 329.02 24.258 328.9 24.234C328.264 24.078 327.652 23.868 327.064 23.604C326.476 23.34 325.93 23.04 325.426 22.704C324.922 22.368 324.46 22.002 324.04 21.606C323.632 21.21 323.296 20.802 323.032 20.382C322.504 21.246 321.742 22.032 320.746 22.74C319.762 23.448 318.61 23.994 317.29 24.378C317.098 24.426 316.978 24.396 316.93 24.288L316.66 23.64C316.636 23.58 316.63 23.514 316.642 23.442C316.666 23.37 316.72 23.322 316.804 23.298C317.608 23.082 318.346 22.8 319.018 22.452C319.69 22.092 320.272 21.696 320.764 21.264C321.268 20.82 321.67 20.352 321.97 19.86C322.27 19.368 322.45 18.876 322.51 18.384C322.534 18.216 322.612 18.144 322.744 18.168L323.554 18.258C323.698 18.282 323.764 18.366 323.752 18.51ZM343.632 29.67C343.824 29.634 343.926 29.676 343.938 29.796L344.046 30.426C344.07 30.57 343.992 30.654 343.812 30.678C343.416 30.75 342.984 30.822 342.516 30.894C342.048 30.954 341.562 31.014 341.058 31.074C340.566 31.122 340.068 31.17 339.564 31.218C339.06 31.266 338.568 31.302 338.088 31.326C337.74 31.35 337.32 31.368 336.828 31.38C336.348 31.392 335.85 31.404 335.334 31.416C334.83 31.416 334.338 31.416 333.858 31.416C333.378 31.416 332.97 31.41 332.634 31.398C332.562 31.398 332.496 31.374 332.436 31.326C332.388 31.278 332.364 31.224 332.364 31.164V30.552C332.364 30.48 332.388 30.426 332.436 30.39C332.496 30.342 332.562 30.318 332.634 30.318C332.898 30.33 333.222 30.342 333.606 30.354C334.002 30.354 334.416 30.354 334.848 30.354C335.28 30.354 335.718 30.348 336.162 30.336C336.606 30.324 337.02 30.312 337.404 30.3V26.502H335.082C334.554 26.502 334.194 26.418 334.002 26.25C333.81 26.07 333.714 25.728 333.714 25.224V21.03C333.714 20.526 333.81 20.19 334.002 20.022C334.194 19.842 334.554 19.752 335.082 19.752H341.976C342.132 19.752 342.21 19.83 342.21 19.986V20.58C342.21 20.748 342.132 20.832 341.976 20.832H335.388C335.22 20.832 335.106 20.868 335.046 20.94C334.986 21 334.956 21.12 334.956 21.3V24.954C334.956 25.122 334.986 25.242 335.046 25.314C335.106 25.386 335.22 25.422 335.388 25.422H342.102C342.258 25.422 342.336 25.5 342.336 25.656V26.25C342.336 26.418 342.258 26.502 342.102 26.502H338.646V30.246C339.054 30.222 339.48 30.192 339.924 30.156C340.368 30.108 340.812 30.06 341.256 30.012C341.7 29.964 342.126 29.91 342.534 29.85C342.942 29.79 343.308 29.73 343.632 29.67ZM346.08 34.476C346.08 34.644 345.996 34.728 345.828 34.728H345.09C344.922 34.728 344.838 34.644 344.838 34.476V18.384C344.838 18.216 344.922 18.132 345.09 18.132H345.828C345.996 18.132 346.08 18.216 346.08 18.384V34.476ZM363.008 27.168C363.008 27.336 362.924 27.42 362.756 27.42H362.018C361.85 27.42 361.766 27.336 361.766 27.168V23.388H358.67C358.61 23.904 358.454 24.378 358.202 24.81C357.962 25.23 357.65 25.59 357.266 25.89C356.894 26.19 356.456 26.424 355.952 26.592C355.46 26.76 354.938 26.844 354.386 26.844C353.798 26.844 353.246 26.748 352.73 26.556C352.214 26.364 351.764 26.094 351.38 25.746C350.996 25.386 350.69 24.966 350.462 24.486C350.246 23.994 350.138 23.448 350.138 22.848C350.138 22.224 350.246 21.666 350.462 21.174C350.69 20.67 350.996 20.25 351.38 19.914C351.764 19.566 352.214 19.302 352.73 19.122C353.246 18.93 353.798 18.834 354.386 18.834C354.902 18.834 355.4 18.912 355.88 19.068C356.372 19.224 356.81 19.452 357.194 19.752C357.578 20.052 357.902 20.418 358.166 20.85C358.43 21.27 358.598 21.756 358.67 22.308H361.766V18.384C361.766 18.216 361.85 18.132 362.018 18.132H362.756C362.924 18.132 363.008 18.216 363.008 18.384V27.168ZM357.446 22.83C357.446 22.362 357.362 21.948 357.194 21.588C357.026 21.228 356.798 20.928 356.51 20.688C356.234 20.448 355.91 20.268 355.538 20.148C355.178 20.028 354.794 19.968 354.386 19.968C353.966 19.968 353.576 20.028 353.216 20.148C352.856 20.268 352.538 20.448 352.262 20.688C351.998 20.928 351.788 21.228 351.632 21.588C351.476 21.948 351.398 22.362 351.398 22.83C351.398 23.274 351.47 23.676 351.614 24.036C351.77 24.384 351.98 24.684 352.244 24.936C352.508 25.188 352.82 25.38 353.18 25.512C353.552 25.644 353.954 25.71 354.386 25.71C354.794 25.71 355.178 25.644 355.538 25.512C355.91 25.38 356.234 25.188 356.51 24.936C356.798 24.684 357.026 24.384 357.194 24.036C357.362 23.676 357.446 23.274 357.446 22.83ZM364.628 34.566C364.58 34.626 364.532 34.668 364.484 34.692C364.448 34.716 364.388 34.704 364.304 34.656C363.548 34.26 362.9 33.786 362.36 33.234C361.832 32.694 361.424 32.106 361.136 31.47C360.824 32.118 360.434 32.706 359.966 33.234C359.51 33.774 358.988 34.224 358.4 34.584C358.232 34.68 358.052 34.674 357.86 34.566C357.272 34.23 356.744 33.804 356.276 33.288C355.808 32.784 355.436 32.226 355.16 31.614C354.848 32.238 354.422 32.802 353.882 33.306C353.354 33.81 352.7 34.272 351.92 34.692C351.86 34.716 351.794 34.74 351.722 34.764C351.65 34.788 351.596 34.776 351.56 34.728L351.128 34.08C351.104 34.032 351.098 33.972 351.11 33.9C351.134 33.84 351.182 33.792 351.254 33.756C352.43 33.18 353.288 32.472 353.828 31.632C354.38 30.78 354.62 29.748 354.548 28.536C354.548 28.38 354.608 28.302 354.728 28.302L355.592 28.32C355.724 28.32 355.79 28.392 355.79 28.536C355.79 28.896 355.772 29.244 355.736 29.58C355.748 29.94 355.82 30.312 355.952 30.696C356.084 31.08 356.252 31.446 356.456 31.794C356.66 32.13 356.894 32.442 357.158 32.73C357.434 33.006 357.722 33.222 358.022 33.378C358.13 33.438 358.226 33.438 358.31 33.378C358.634 33.174 358.934 32.898 359.21 32.55C359.486 32.202 359.726 31.812 359.93 31.38C360.146 30.948 360.308 30.486 360.416 29.994C360.536 29.502 360.59 29.01 360.578 28.518C360.578 28.458 360.59 28.404 360.614 28.356C360.65 28.296 360.704 28.266 360.776 28.266L361.622 28.284C361.754 28.284 361.82 28.356 361.82 28.5C361.808 28.632 361.796 28.764 361.784 28.896C361.784 29.016 361.778 29.142 361.766 29.274C361.766 30.234 362.036 31.098 362.576 31.866C363.116 32.622 363.896 33.234 364.916 33.702C365.06 33.786 365.084 33.9 364.988 34.044L364.628 34.566ZM369.819 34.62C369.531 34.62 369.297 34.602 369.117 34.566C368.949 34.53 368.817 34.458 368.721 34.35C368.625 34.254 368.559 34.122 368.523 33.954C368.487 33.798 368.469 33.594 368.469 33.342V28.248C368.469 28.188 368.493 28.14 368.541 28.104C368.589 28.056 368.643 28.032 368.703 28.032H369.495C369.555 28.032 369.603 28.056 369.639 28.104C369.687 28.152 369.711 28.2 369.711 28.248V30.192H378.063V28.266C378.063 28.206 378.081 28.152 378.117 28.104C378.165 28.056 378.219 28.032 378.279 28.032H379.071C379.131 28.032 379.185 28.056 379.233 28.104C379.281 28.14 379.305 28.188 379.305 28.248V33.468C379.305 33.924 379.209 34.23 379.017 34.386C378.825 34.542 378.465 34.62 377.937 34.62H369.819ZM369.711 31.272V33.108C369.711 33.288 369.741 33.402 369.801 33.45C369.861 33.51 369.975 33.54 370.143 33.54H377.631C377.799 33.54 377.913 33.51 377.973 33.45C378.033 33.402 378.063 33.288 378.063 33.108V31.272H369.711ZM374.535 18.456C374.511 18.528 374.493 18.6 374.481 18.672C374.481 18.732 374.469 18.792 374.445 18.852C374.481 19.008 374.529 19.158 374.589 19.302C374.661 19.446 374.739 19.578 374.823 19.698C375.075 20.094 375.399 20.472 375.795 20.832C376.191 21.18 376.623 21.498 377.091 21.786C377.571 22.062 378.075 22.302 378.603 22.506C379.143 22.71 379.683 22.866 380.223 22.974C380.295 22.998 380.337 23.04 380.349 23.1C380.361 23.16 380.355 23.22 380.331 23.28L380.025 23.892C380.001 23.952 379.965 24 379.917 24.036C379.881 24.06 379.803 24.06 379.683 24.036C379.071 23.892 378.465 23.694 377.865 23.442C377.277 23.178 376.725 22.878 376.209 22.542C375.693 22.194 375.231 21.822 374.823 21.426C374.415 21.03 374.091 20.634 373.851 20.238C373.371 21.066 372.669 21.792 371.745 22.416C370.821 23.04 369.609 23.604 368.109 24.108C367.917 24.168 367.797 24.138 367.749 24.018L367.443 23.37C367.419 23.31 367.413 23.244 367.425 23.172C367.449 23.1 367.503 23.052 367.587 23.028C368.463 22.764 369.231 22.476 369.891 22.164C370.563 21.852 371.133 21.51 371.601 21.138C372.069 20.766 372.441 20.352 372.717 19.896C373.005 19.428 373.197 18.906 373.293 18.33C373.329 18.174 373.407 18.102 373.527 18.114L374.337 18.204C374.397 18.204 374.451 18.228 374.499 18.276C374.547 18.312 374.559 18.372 374.535 18.456ZM381.555 25.494C381.615 25.494 381.675 25.518 381.735 25.566C381.795 25.602 381.825 25.656 381.825 25.728V26.34C381.825 26.4 381.795 26.454 381.735 26.502C381.675 26.55 381.615 26.574 381.555 26.574H366.255C366.183 26.574 366.117 26.55 366.057 26.502C366.009 26.454 365.985 26.4 365.985 26.34V25.71C365.985 25.638 366.009 25.584 366.057 25.548C366.117 25.512 366.183 25.494 366.255 25.494H381.555ZM396.863 34.476C396.863 34.644 396.779 34.728 396.611 34.728H395.873C395.705 34.728 395.621 34.644 395.621 34.476V18.384C395.621 18.216 395.705 18.132 395.873 18.132H396.611C396.779 18.132 396.863 18.216 396.863 18.384V34.476ZM385.937 28.158C385.937 28.338 385.967 28.458 386.027 28.518C386.087 28.578 386.201 28.614 386.369 28.626C386.957 28.65 387.581 28.656 388.241 28.644C388.913 28.62 389.585 28.584 390.257 28.536C390.929 28.476 391.583 28.404 392.219 28.32C392.867 28.236 393.467 28.14 394.019 28.032C394.223 27.984 394.343 28.056 394.379 28.248L394.469 28.752C394.505 28.92 394.427 29.028 394.235 29.076C393.827 29.172 393.299 29.262 392.651 29.346C392.015 29.43 391.325 29.508 390.581 29.58C389.837 29.64 389.075 29.688 388.295 29.724C387.515 29.748 386.789 29.754 386.117 29.742C385.577 29.73 385.205 29.604 385.001 29.364C384.797 29.124 384.695 28.752 384.695 28.248V19.392C384.695 19.224 384.779 19.14 384.947 19.14H385.685C385.853 19.14 385.937 19.224 385.937 19.392V28.158ZM410.605 28.914C410.629 29.082 410.551 29.184 410.371 29.22C409.927 29.328 409.363 29.43 408.679 29.526C408.007 29.622 407.293 29.706 406.537 29.778C405.793 29.85 405.055 29.904 404.323 29.94C403.591 29.976 402.955 29.988 402.415 29.976C401.875 29.964 401.503 29.838 401.299 29.598C401.107 29.358 401.011 28.986 401.011 28.482V20.742C401.011 20.238 401.107 19.902 401.299 19.734C401.491 19.566 401.851 19.482 402.379 19.482H408.571C408.727 19.482 408.805 19.554 408.805 19.698V20.346C408.805 20.49 408.727 20.562 408.571 20.562H402.613C402.445 20.562 402.343 20.586 402.307 20.634C402.271 20.67 402.253 20.778 402.253 20.958V28.392C402.253 28.572 402.283 28.692 402.343 28.752C402.403 28.812 402.517 28.848 402.685 28.86C403.261 28.884 403.867 28.884 404.503 28.86C405.151 28.824 405.799 28.776 406.447 28.716C407.107 28.644 407.749 28.566 408.373 28.482C409.009 28.386 409.609 28.284 410.173 28.176C410.365 28.14 410.479 28.206 410.515 28.374L410.605 28.914ZM413.161 34.476C413.161 34.644 413.077 34.728 412.909 34.728H412.171C412.003 34.728 411.919 34.644 411.919 34.476V18.384C411.919 18.216 412.003 18.132 412.171 18.132H412.909C413.077 18.132 413.161 18.216 413.161 18.384V24.936H415.645C415.717 24.936 415.777 24.96 415.825 25.008C415.885 25.044 415.915 25.098 415.915 25.17V25.782C415.915 25.842 415.885 25.896 415.825 25.944C415.777 25.992 415.717 26.016 415.645 26.016H413.161V34.476ZM418.173 32.928C418.173 32.676 418.257 32.466 418.425 32.298C418.605 32.118 418.821 32.028 419.073 32.028C419.325 32.028 419.535 32.118 419.703 32.298C419.883 32.466 419.973 32.676 419.973 32.928C419.973 33.18 419.883 33.39 419.703 33.558C419.535 33.738 419.325 33.828 419.073 33.828C418.821 33.828 418.605 33.738 418.425 33.558C418.257 33.39 418.173 33.18 418.173 32.928Z" fill="#4DB7E6"/>
<path fill-rule="evenodd" clip-rule="evenodd" d="M33.6311 33.2705L47.4339 21.7682L46.7937 21L33.0732 32.4337L28.8321 26.072L28 26.6267L32.3006 33.0776L32.2183 33.1462L32.8585 33.9144L33.6905 33.3597L33.6311 33.2705Z" fill="#4DB7E6"/>
<path d="M47.4339 21.7682L47.754 22.1523L48.1381 21.8322L47.818 21.4481L47.4339 21.7682ZM33.6311 33.2705L33.311 32.8864L32.9658 33.1741L33.2151 33.5479L33.6311 33.2705ZM46.7937 21L47.1778 20.6799L46.8577 20.2958L46.4736 20.6159L46.7937 21ZM33.0732 32.4337L32.6572 32.7111L32.9658 33.1741L33.3933 32.8178L33.0732 32.4337ZM28.8321 26.072L29.2481 25.7946L28.9707 25.3786L28.5547 25.656L28.8321 26.072ZM28 26.6267L27.7226 26.2107L27.3066 26.488L27.584 26.904L28 26.6267ZM32.3006 33.0776L32.6207 33.4617L32.9658 33.1741L32.7166 32.8002L32.3006 33.0776ZM32.2183 33.1462L31.8982 32.7621L31.5141 33.0821L31.8342 33.4663L32.2183 33.1462ZM32.8585 33.9144L32.4744 34.2345L32.762 34.5796L33.1358 34.3304L32.8585 33.9144ZM33.6905 33.3597L33.9679 33.7757L34.3839 33.4984L34.1065 33.0823L33.6905 33.3597ZM47.1138 21.3841L33.311 32.8864L33.9512 33.6546L47.754 22.1523L47.1138 21.3841ZM46.4096 21.3201L47.0498 22.0883L47.818 21.4481L47.1778 20.6799L46.4096 21.3201ZM33.3933 32.8178L47.1138 21.3841L46.4736 20.6159L32.7531 32.0496L33.3933 32.8178ZM28.416 26.3493L32.6572 32.7111L33.4892 32.1564L29.2481 25.7946L28.416 26.3493ZM28.2774 27.0427L29.1094 26.488L28.5547 25.656L27.7226 26.2107L28.2774 27.0427ZM32.7166 32.8002L28.416 26.3493L27.584 26.904L31.8846 33.3549L32.7166 32.8002ZM32.5384 33.5303L32.6207 33.4617L31.9805 32.6935L31.8982 32.7621L32.5384 33.5303ZM33.2426 33.5943L32.6024 32.8261L31.8342 33.4663L32.4744 34.2345L33.2426 33.5943ZM33.4132 32.9437L32.5811 33.4984L33.1358 34.3304L33.9679 33.7757L33.4132 32.9437ZM33.2151 33.5479L33.2745 33.637L34.1065 33.0823L34.0471 32.9932L33.2151 33.5479Z" fill="#4DB7E6"/>
</svg>
