<svg width="35" height="38" viewBox="0 0 35 38" fill="none" xmlns="http://www.w3.org/2000/svg">
<path id="&#226;&#128;&#156;" d="M9.408 29.352C7.68 29.352 6.208 28.616 4.992 27.144C3.84 25.672 3.2 23.976 3.072 22.056C2.88 19.688 3.008 17.672 3.456 16.008C3.968 14.28 4.768 12.616 5.856 11.016C6.752 9.544 7.872 8.264 9.216 7.17599C10.624 6.088 12.128 5.384 13.728 5.064C14.624 4.68 15.072 4.84 15.072 5.544V9.288C15.072 9.8 15.008 10.152 14.88 10.344C14.816 10.472 14.688 10.6 14.496 10.728C12 11.816 10.592 13.704 10.272 16.392C11.552 16.712 12.8 17.384 14.016 18.408C15.232 19.368 15.84 20.712 15.84 22.44C15.84 24.488 15.232 26.152 14.016 27.432C12.8 28.712 11.264 29.352 9.408 29.352ZM24.192 29.352C22.4 29.352 20.896 28.616 19.68 27.144C18.528 25.672 17.888 23.976 17.76 22.056C17.568 19.688 17.728 17.672 18.24 16.008C18.752 14.28 19.552 12.616 20.64 11.016C21.536 9.544 22.656 8.264 24 7.17599C25.344 6.088 26.848 5.384 28.512 5.064C29.408 4.68 29.856 4.84 29.856 5.544V9.288C29.856 9.8 29.792 10.152 29.664 10.344C29.6 10.472 29.44 10.6 29.184 10.728C28.032 11.24 27.072 12.008 26.304 13.032C25.536 13.992 25.12 15.112 25.056 16.392C26.336 16.712 27.552 17.384 28.704 18.408C29.92 19.368 30.528 20.712 30.528 22.44C30.528 24.488 29.92 26.152 28.704 27.432C27.552 28.712 26.048 29.352 24.192 29.352Z" fill="#66A6FF"/>
</svg>
