<svg xmlns="http://www.w3.org/2000/svg" xmlns:xlink="http://www.w3.org/1999/xlink" viewBox="0 0 199.52 163.51"><defs><style>.cls-1{fill:url(#무제_그라디언트_43);}.cls-2{fill:#fff;}.cls-3{fill:#66a6ff;}</style><linearGradient id="무제_그라디언트_43" x1="41.66" y1="58.1" x2="157.86" y2="58.1" gradientUnits="userSpaceOnUse"><stop offset="0" stop-color="#89f7fe"/><stop offset="1" stop-color="#66a6ff"/></linearGradient></defs><g id="레이어_2" data-name="레이어 2"><g id="레이어_1-2" data-name="레이어 1"><path class="cls-1" d="M99.76,0a58.1,58.1,0,0,0,0,116.2h58.1V58.1A58.1,58.1,0,0,0,99.76,0Z"/><path class="cls-2" d="M99.7,20a38.17,38.17,0,0,0,0,76.34h8.69V81.55H99.7a23.43,23.43,0,1,1,23.43-23.43V96.29h14.74V58.12A38.17,38.17,0,0,0,99.7,20Z"/><polygon class="cls-2" points="106.02 47.83 88.43 59.08 100.16 59.4 107.37 68.66 106.02 47.83"/><path class="cls-3" d="M23.09,137.22c-7.82-10.64-24.47-1.57-23,10.62-1.45,12.21,15.07,21.4,23,10.74v4.22H32.5V133H23.09Zm-2.1,16c-7,6.92-15.25-4.9-9.33-10.92C18.65,135.47,26.91,147.17,21,153.23Z"/><path class="cls-3" d="M64.53,134.1c-5-3.21-13.16-2.37-16.35,2.81V122.8h-9.4v40h9.4v-4.22C64.24,175.33,81,144.9,64.53,134.1Zm-5.28,19.1c-7,7-15.29-4.79-9.36-10.86C56.87,135.45,65.24,147.1,59.25,153.2Z"/><path class="cls-3" d="M85,137.72V133H75.63v29.8H85v-14c-.35-6.19,4.38-7,9.41-6.68v-9.76A11.07,11.07,0,0,0,85,137.72Z"/><path class="cls-3" d="M120.28,134.2c-18.4-9.7-33.53,16.34-16,27.17C122.63,171.05,137.92,145,120.28,134.2Zm-3.59,19.14c-7.19,6.94-14.25-5.35-8.87-11.14C114.91,135.32,122.3,147.55,116.69,153.34Z"/><path class="cls-3" d="M153.26,137.22c-7.82-10.65-24.47-1.57-23,10.62-1.45,12.21,15.07,21.4,23,10.74v4.22h9.41V133h-9.41Zm-1.63,16c-7,6.92-15.25-4.9-9.33-10.92C149.29,135.47,157.54,147.17,151.63,153.23Z"/><path class="cls-3" d="M190.11,122.8v14c-8.08-10.54-24.4-1.48-23,10.86-1.49,12.33,15.21,21.75,23,10.81v4.33h9.41v-40Zm-1.87,30.43c-7,6.92-15.25-4.9-9.33-10.92C185.9,135.47,194.15,147.17,188.24,153.23Z"/></g></g></svg>