<svg xmlns="http://www.w3.org/2000/svg" xmlns:xlink="http://www.w3.org/1999/xlink" viewBox="0 0 370.33 74"><defs><style>.cls-1{fill:#66a6ff;}.cls-2{fill:url(#무제_그라디언트_43);}.cls-3{fill:#fff;}</style><linearGradient id="무제_그라디언트_43" y1="37" x2="74" y2="37" gradientUnits="userSpaceOnUse"><stop offset="0" stop-color="#89f7fe"/><stop offset="1" stop-color="#66a6ff"/></linearGradient></defs><g id="레이어_2" data-name="레이어 2"><g id="레이어_1-2" data-name="레이어 1"><path class="cls-1" d="M138.43,29.08c-10.28-14-32.17-2.06-30.23,14-1.9,16.05,19.8,28.13,30.23,14.11V62.7H150.8V23.53H138.43Zm-2.76,21c-9.15,9.09-20-6.44-12.26-14.35C132.59,26.78,143.44,42.16,135.67,50.12Z"/><path class="cls-1" d="M192.89,25c-6.57-4.22-17.29-3.12-21.48,3.69V10.13H159V62.7h12.37V57.16C192.52,79.17,214.56,39.18,192.89,25ZM186,50.09c-9.16,9.13-20.09-6.3-12.3-14.28C182.83,26.75,193.82,42.07,186,50.09Z"/><path class="cls-1" d="M219.85,29.74V23.53H207.48V62.7h12.37V44.34c-.45-8.14,5.75-9.19,12.37-8.79V22.73A14.58,14.58,0,0,0,219.85,29.74Z"/><path class="cls-1" d="M266.17,25.11C242,12.36,222.1,46.59,245.08,60.82,269.25,73.54,289.36,39.34,266.17,25.11Zm-4.72,25.15c-9.45,9.14-18.72-7-11.65-14.63C259.11,26.59,268.82,42.65,261.45,50.26Z"/><path class="cls-1" d="M309.52,29.08c-10.28-14-32.17-2.06-30.23,14-1.9,16.05,19.8,28.13,30.23,14.11V62.7h12.37V23.53H309.52Zm-2.14,21c-9.15,9.09-20.05-6.44-12.26-14.35C304.3,26.78,315.15,42.16,307.38,50.12Z"/><path class="cls-1" d="M358,10.13v18.4c-10.62-13.85-32.08-2-30.23,14.28-2,16.2,20,28.58,30.23,14.2V62.7h12.37V10.13Zm-2.47,40c-9.14,9.09-20-6.44-12.26-14.35C352.41,26.78,363.27,42.16,355.49,50.12Z"/><path class="cls-2" d="M37,0a37,37,0,0,0,0,74H74V37A37,37,0,0,0,37,0Z"/><path class="cls-3" d="M37,12.71a24.31,24.31,0,0,0,0,48.61H42.5V51.93H37A14.92,14.92,0,1,1,51.88,37V61.32h9.39V37A24.3,24.3,0,0,0,37,12.71Z"/><polygon class="cls-3" points="40.98 30.46 29.79 37.62 37.25 37.83 41.84 43.72 40.98 30.46"/></g></g></svg>