<svg xmlns="http://www.w3.org/2000/svg" xmlns:xlink="http://www.w3.org/1999/xlink" viewBox="0 0 127.07 127.07"><defs><style>.cls-1{fill:url(#무제_그라디언트_43);}.cls-2{fill:#fff;}</style><linearGradient id="무제_그라디언트_43" y1="63.53" x2="127.07" y2="63.53" gradientUnits="userSpaceOnUse"><stop offset="0" stop-color="#89f7fe"/><stop offset="1" stop-color="#66a6ff"/></linearGradient></defs><g id="레이어_2" data-name="레이어 2"><g id="레이어_1-2" data-name="레이어 1"><path class="cls-1" d="M63.53,0a63.54,63.54,0,0,0,0,127.07h63.54V63.53A63.54,63.54,0,0,0,63.53,0Z"/><path class="cls-2" d="M63.47,21.82a41.74,41.74,0,1,0,0,83.47H73V89.18h-9.5A25.62,25.62,0,1,1,89.09,63.56v41.73h16.12V63.56A41.74,41.74,0,0,0,63.47,21.82Z"/><polygon class="cls-2" points="71.37 54.3 52.15 66.6 64.97 66.95 72.85 77.08 71.37 54.3"/></g></g></svg>