<svg width="171" height="140" viewBox="0 0 171 140" fill="none" xmlns="http://www.w3.org/2000/svg">
<path d="M85.6202 0.000889104C72.4402 -0.0751836 59.7699 5.09296 50.3965 14.3684C41.0231 23.6438 35.7145 36.2667 35.6385 49.4602C35.5625 62.6538 40.7254 75.3371 49.9913 84.7201C59.2572 94.1031 71.8671 99.4172 85.0471 99.4933L134.742 99.7844L135.024 50.0382C135.063 43.5054 133.815 37.029 131.353 30.9789C128.891 24.9287 125.263 19.4232 120.675 14.7768C116.087 10.1304 110.63 6.43403 104.616 3.89877C98.6009 1.36351 92.1462 0.039007 85.6202 0.000889104V0.000889104ZM117.738 82.6344L105.13 82.5573L105.207 69.9452L105.259 59.9361L105.319 49.9098C105.347 45.9407 104.199 42.0524 102.02 38.7367C99.8399 35.4211 96.7267 32.8272 93.0739 31.2832C89.4211 29.7393 85.3929 29.3148 81.4989 30.0634C77.605 30.8119 74.0205 32.7 71.1988 35.4885C68.3772 38.2771 66.4453 41.8409 65.6477 45.7289C64.85 49.6169 65.2225 53.6544 66.7179 57.3304C68.2133 61.0065 70.7644 64.1558 74.0484 66.38C77.3325 68.6042 81.2018 69.8032 85.1668 69.8254H92.5997L92.5227 82.446H85.0899C78.6328 82.4086 72.3318 80.4554 66.9837 76.8333C61.6356 73.2113 57.4805 68.083 55.0439 62.097C52.6073 56.1111 51.9987 49.5363 53.2949 43.2041C54.5912 36.8719 57.7341 31.0666 62.3262 26.5224C66.9184 21.9782 72.7535 18.8992 79.0937 17.6747C85.434 16.4502 91.9946 17.1353 97.9459 19.6432C103.897 22.1511 108.972 26.3693 112.528 31.7643C116.085 37.1593 117.963 43.4889 117.926 49.9526L117.738 82.6344ZM91.7786 58.823L85.6629 50.8602L75.6384 50.5177L90.7265 40.9794L91.7786 58.823Z" fill="white"/>
<path d="M19.7509 117.491C13.0621 108.381 -1.17923 116.147 0.078115 126.584C-1.16212 137.038 12.968 144.907 19.7509 135.78V139.393H27.7996V113.878H19.7509V117.491ZM17.9547 131.19C11.9673 137.115 4.91077 126.995 9.97437 121.841C15.9532 115.993 23.0183 126.01 17.9632 131.199L17.9547 131.19Z" fill="white"/>
<path d="M55.1961 114.82C50.9194 112.071 43.9398 112.79 41.2113 117.226V105.144H33.1711V139.393H41.2113V135.78C54.948 150.121 69.2835 124.067 55.1961 114.82ZM50.6799 131.173C44.6925 137.167 37.6018 127.072 42.6739 121.875C48.6442 115.975 55.8034 125.95 50.6799 131.173Z" fill="white"/>
<path d="M72.7047 117.919V113.878H64.6902V139.393H72.7047V127.406C72.4053 122.106 76.4511 121.412 80.7534 121.686V113.33C79.1315 113.341 77.5395 113.768 76.1302 114.572C74.7208 115.376 73.5413 116.528 72.7047 117.919V117.919Z" fill="white"/>
<path d="M102.881 114.905C87.143 106.6 74.2018 128.896 89.1958 138.169C104.891 146.457 117.969 124.152 102.881 114.905ZM99.8106 131.293C93.6607 137.235 87.622 126.712 92.2237 121.755C98.2881 115.864 104.609 126.336 99.8106 131.293V131.293Z" fill="white"/>
<path d="M131.09 117.491C124.402 108.372 110.16 116.147 111.418 126.584C110.177 137.038 124.308 144.907 131.09 135.78V139.393H139.139V113.878H131.09V117.491ZM129.696 131.19C123.709 137.115 116.652 126.995 121.716 121.841C127.695 115.993 134.751 126.01 129.696 131.199V131.19Z" fill="white"/>
<path d="M162.609 105.144V117.131C155.698 108.107 141.739 115.864 142.937 126.43C141.662 136.987 155.946 145.053 162.609 135.686V139.393H170.658V105.144H162.609ZM161.01 131.199C155.023 137.124 147.966 127.003 153.03 121.849C159.008 115.993 166.065 126.01 161.01 131.199Z" fill="white"/>
</svg>
