<svg width="685" height="122" viewBox="0 0 685 122" fill="none" xmlns="http://www.w3.org/2000/svg">
<g filter="url(#filter0_d)">
<path fill-rule="evenodd" clip-rule="evenodd" d="M658.655 13.3869C660.279 8.45698 666.706 0.0790786 681 2.39701C676.667 4.23033 668 14.897 668 42.897V82.397C668 100.622 653.225 115.397 635 115.397H37C18.7746 115.397 4 100.622 4 82.397V36.397C4 18.1716 18.7746 3.39697 37 3.39697H635C644.277 3.39697 652.659 7.22471 658.655 13.3869Z" fill="url(#paint0_linear)"/>
</g>
<path d="M74.075 42.735C74.075 42.875 74.005 42.945 73.865 42.945H73.25C73.11 42.945 73.04 42.875 73.04 42.735V35.82C73.04 35.68 73.11 35.61 73.25 35.61H73.865C74.005 35.61 74.075 35.68 74.075 35.82V42.735ZM70.415 39.345C70.415 39.825 70.32 40.27 70.13 40.68C69.94 41.09 69.685 41.445 69.365 41.745C69.045 42.045 68.665 42.28 68.225 42.45C67.795 42.62 67.335 42.705 66.845 42.705C66.365 42.705 65.91 42.625 65.48 42.465C65.06 42.295 64.69 42.065 64.37 41.775C64.05 41.475 63.795 41.12 63.605 40.71C63.425 40.3 63.335 39.845 63.335 39.345C63.335 38.815 63.425 38.345 63.605 37.935C63.795 37.515 64.05 37.16 64.37 36.87C64.69 36.58 65.06 36.36 65.48 36.21C65.91 36.05 66.365 35.97 66.845 35.97C67.295 35.97 67.735 36.05 68.165 36.21C68.595 36.36 68.975 36.58 69.305 36.87C69.645 37.16 69.915 37.515 70.115 37.935C70.315 38.345 70.415 38.815 70.415 39.345ZM69.365 39.33C69.365 38.94 69.295 38.595 69.155 38.295C69.015 37.995 68.825 37.745 68.585 37.545C68.355 37.335 68.09 37.18 67.79 37.08C67.49 36.97 67.175 36.915 66.845 36.915C66.515 36.915 66.2 36.97 65.9 37.08C65.6 37.18 65.335 37.33 65.105 37.53C64.885 37.73 64.71 37.985 64.58 38.295C64.45 38.595 64.385 38.94 64.385 39.33C64.385 39.7 64.445 40.035 64.565 40.335C64.695 40.635 64.87 40.895 65.09 41.115C65.31 41.325 65.57 41.49 65.87 41.61C66.17 41.72 66.495 41.775 66.845 41.775C67.175 41.775 67.49 41.72 67.79 41.61C68.09 41.49 68.355 41.325 68.585 41.115C68.825 40.905 69.015 40.65 69.155 40.35C69.295 40.05 69.365 39.71 69.365 39.33ZM66.635 49.32C66.395 49.32 66.2 49.305 66.05 49.275C65.91 49.245 65.8 49.185 65.72 49.095C65.64 49.015 65.585 48.905 65.555 48.765C65.525 48.635 65.51 48.465 65.51 48.255V43.95C65.51 43.9 65.53 43.86 65.57 43.83C65.61 43.8 65.655 43.785 65.705 43.785H66.365C66.415 43.785 66.455 43.805 66.485 43.845C66.525 43.875 66.545 43.91 66.545 43.95V45.54H73.04V43.98C73.04 43.93 73.055 43.885 73.085 43.845C73.125 43.805 73.17 43.785 73.22 43.785H73.88C73.93 43.785 73.975 43.805 74.015 43.845C74.055 43.875 74.075 43.915 74.075 43.965V48.36C74.075 48.74 73.995 48.995 73.835 49.125C73.675 49.255 73.375 49.32 72.935 49.32H66.635ZM66.545 46.44V48.06C66.545 48.21 66.57 48.305 66.62 48.345C66.67 48.395 66.765 48.42 66.905 48.42H72.68C72.82 48.42 72.915 48.395 72.965 48.345C73.015 48.305 73.04 48.21 73.04 48.06V46.44H66.545ZM86.6664 37.2C86.6664 37.05 86.6414 36.95 86.5914 36.9C86.5414 36.84 86.4464 36.81 86.3064 36.81H78.7764C78.6464 36.81 78.5814 36.745 78.5814 36.615V36.105C78.5814 35.975 78.6464 35.91 78.7764 35.91H86.5314C87.0014 35.91 87.3114 35.995 87.4614 36.165C87.6114 36.325 87.6864 36.62 87.6864 37.05C87.6864 37.35 87.6714 37.675 87.6414 38.025C87.6214 38.365 87.5914 38.71 87.5514 39.06C87.5114 39.4 87.4614 39.74 87.4014 40.08C87.3514 40.42 87.2914 40.73 87.2214 41.01H89.5314C89.5814 41.01 89.6314 41.03 89.6814 41.07C89.7314 41.1 89.7564 41.145 89.7564 41.205V41.715C89.7564 41.765 89.7314 41.81 89.6814 41.85C89.6314 41.89 89.5814 41.91 89.5314 41.91H83.6514V44.805H86.5314C87.0014 44.805 87.3064 44.895 87.4464 45.075C87.5964 45.245 87.6714 45.535 87.6714 45.945V49.38C87.6714 49.52 87.6014 49.59 87.4614 49.59H86.8464C86.7064 49.59 86.6364 49.52 86.6364 49.38V46.02C86.6364 45.88 86.6114 45.795 86.5614 45.765C86.5214 45.725 86.4314 45.705 86.2914 45.705H78.6114C78.5614 45.705 78.5114 45.69 78.4614 45.66C78.4114 45.62 78.3864 45.575 78.3864 45.525V44.985C78.3864 44.925 78.4114 44.88 78.4614 44.85C78.5114 44.82 78.5614 44.805 78.6114 44.805H82.6164V41.91H76.7814C76.7214 41.91 76.6664 41.89 76.6164 41.85C76.5764 41.81 76.5564 41.765 76.5564 41.715V41.205C76.5564 41.145 76.5764 41.1 76.6164 41.07C76.6664 41.03 76.7214 41.01 76.7814 41.01H86.2764C86.3364 40.72 86.3914 40.415 86.4414 40.095C86.4914 39.765 86.5314 39.435 86.5614 39.105C86.6014 38.765 86.6264 38.435 86.6364 38.115C86.6564 37.795 86.6664 37.49 86.6664 37.2ZM98.3879 42.255C98.3879 42.615 98.3079 42.955 98.1479 43.275C97.9879 43.595 97.7679 43.875 97.4879 44.115C97.2179 44.355 96.8929 44.545 96.5129 44.685C96.1329 44.815 95.7229 44.88 95.2829 44.88C94.8429 44.88 94.4329 44.815 94.0529 44.685C93.6729 44.545 93.3429 44.355 93.0629 44.115C92.7929 43.875 92.5779 43.595 92.4179 43.275C92.2679 42.955 92.1929 42.615 92.1929 42.255C92.1929 41.895 92.2679 41.56 92.4179 41.25C92.5779 40.93 92.7929 40.655 93.0629 40.425C93.3429 40.185 93.6729 40 94.0529 39.87C94.4329 39.73 94.8429 39.66 95.2829 39.66C95.7229 39.66 96.1329 39.73 96.5129 39.87C96.8929 40 97.2179 40.185 97.4879 40.425C97.7679 40.655 97.9879 40.93 98.1479 41.25C98.3079 41.56 98.3879 41.895 98.3879 42.255ZM101.763 46.065C101.763 46.205 101.693 46.275 101.553 46.275H100.938C100.798 46.275 100.728 46.205 100.728 46.065V35.82C100.728 35.68 100.798 35.61 100.938 35.61H101.553C101.693 35.61 101.763 35.68 101.763 35.82V40.785H103.833C103.893 40.785 103.943 40.805 103.983 40.845C104.033 40.875 104.058 40.92 104.058 40.98V41.49C104.058 41.54 104.033 41.585 103.983 41.625C103.943 41.665 103.893 41.685 103.833 41.685H101.763V46.065ZM97.3679 42.255C97.3679 42.015 97.3129 41.795 97.2029 41.595C97.1029 41.385 96.9579 41.205 96.7679 41.055C96.5879 40.905 96.3679 40.79 96.1079 40.71C95.8579 40.62 95.5829 40.575 95.2829 40.575C94.9829 40.575 94.7079 40.62 94.4579 40.71C94.2079 40.79 93.9879 40.905 93.7979 41.055C93.6079 41.205 93.4579 41.385 93.3479 41.595C93.2479 41.795 93.1979 42.015 93.1979 42.255C93.1979 42.495 93.2479 42.72 93.3479 42.93C93.4579 43.14 93.6079 43.32 93.7979 43.47C93.9879 43.62 94.2079 43.74 94.4579 43.83C94.7079 43.92 94.9829 43.965 95.2829 43.965C95.5829 43.965 95.8579 43.92 96.1079 43.83C96.3679 43.74 96.5879 43.62 96.7679 43.47C96.9579 43.32 97.1029 43.14 97.2029 42.93C97.3129 42.72 97.3679 42.495 97.3679 42.255ZM102.438 49.035C102.438 49.095 102.413 49.14 102.363 49.17C102.313 49.2 102.263 49.215 102.213 49.215H94.4729C94.0029 49.215 93.6929 49.125 93.5429 48.945C93.4029 48.775 93.3329 48.485 93.3329 48.075V46.005C93.3329 45.865 93.4029 45.795 93.5429 45.795H94.1579C94.2979 45.795 94.3679 45.865 94.3679 46.005V48.015C94.3679 48.155 94.3879 48.24 94.4279 48.27C94.4779 48.3 94.5729 48.315 94.7129 48.315H102.213C102.263 48.315 102.313 48.33 102.363 48.36C102.413 48.4 102.438 48.445 102.438 48.495V49.035ZM99.6479 38.745C99.6479 38.875 99.5729 38.94 99.4229 38.94H91.1429C91.0929 38.94 91.0429 38.92 90.9929 38.88C90.9529 38.84 90.9329 38.79 90.9329 38.73V38.25C90.9329 38.19 90.9529 38.14 90.9929 38.1C91.0429 38.06 91.0929 38.04 91.1429 38.04H99.4229C99.5729 38.04 99.6479 38.105 99.6479 38.235V38.745ZM97.4579 36.705C97.4579 36.835 97.3829 36.9 97.2329 36.9H93.1229C93.0729 36.9 93.0229 36.885 92.9729 36.855C92.9329 36.825 92.9129 36.78 92.9129 36.72V36.195C92.9129 36.135 92.9329 36.085 92.9729 36.045C93.0129 36.005 93.0579 35.985 93.1079 35.985H97.2329C97.3829 35.985 97.4579 36.055 97.4579 36.195V36.705ZM113.289 45.33C113.259 45.38 113.219 45.41 113.169 45.42C113.129 45.43 113.069 45.405 112.989 45.345C112.749 45.165 112.494 44.96 112.224 44.73C111.954 44.49 111.689 44.24 111.429 43.98C111.169 43.71 110.914 43.435 110.664 43.155C110.414 42.865 110.184 42.58 109.974 42.3C109.474 42.93 108.904 43.535 108.264 44.115C107.624 44.685 106.894 45.255 106.074 45.825C106.024 45.855 105.974 45.88 105.924 45.9C105.874 45.91 105.834 45.895 105.804 45.855L105.444 45.39C105.404 45.34 105.389 45.29 105.399 45.24C105.409 45.18 105.434 45.135 105.474 45.105C107.074 43.975 108.319 42.83 109.209 41.67C110.109 40.51 110.734 39.3 111.084 38.04C111.124 37.9 111.124 37.8 111.084 37.74C111.054 37.67 110.969 37.635 110.829 37.635H106.284C106.164 37.635 106.104 37.57 106.104 37.44V36.915C106.104 36.795 106.174 36.735 106.314 36.735H111.234C111.754 36.735 112.084 36.825 112.224 37.005C112.364 37.185 112.364 37.505 112.224 37.965C111.834 39.245 111.284 40.42 110.574 41.49C110.804 41.81 111.049 42.125 111.309 42.435C111.569 42.745 111.829 43.04 112.089 43.32C112.349 43.59 112.609 43.84 112.869 44.07C113.129 44.29 113.374 44.475 113.604 44.625C113.654 44.665 113.679 44.71 113.679 44.76C113.679 44.81 113.664 44.855 113.634 44.895L113.289 45.33ZM116.394 49.23C116.394 49.37 116.324 49.44 116.184 49.44H115.569C115.429 49.44 115.359 49.37 115.359 49.23V35.82C115.359 35.68 115.429 35.61 115.569 35.61H116.184C116.324 35.61 116.394 35.68 116.394 35.82V49.23ZM134.705 42.72C134.705 42.86 134.635 42.93 134.495 42.93H133.88C133.74 42.93 133.67 42.86 133.67 42.72V39.675H130.91C130.85 40.075 130.72 40.445 130.52 40.785C130.32 41.125 130.065 41.42 129.755 41.67C129.445 41.92 129.095 42.115 128.705 42.255C128.315 42.395 127.895 42.465 127.445 42.465C126.965 42.465 126.515 42.385 126.095 42.225C125.685 42.055 125.325 41.825 125.015 41.535C124.705 41.245 124.46 40.905 124.28 40.515C124.1 40.115 124.01 39.68 124.01 39.21C124.01 38.71 124.1 38.26 124.28 37.86C124.46 37.46 124.705 37.12 125.015 36.84C125.325 36.55 125.685 36.33 126.095 36.18C126.515 36.02 126.965 35.94 127.445 35.94C127.865 35.94 128.27 36.005 128.66 36.135C129.05 36.265 129.4 36.455 129.71 36.705C130.03 36.955 130.295 37.255 130.505 37.605C130.715 37.955 130.85 38.345 130.91 38.775H133.67V35.82C133.67 35.68 133.74 35.61 133.88 35.61H134.495C134.635 35.61 134.705 35.68 134.705 35.82V42.72ZM135.02 49.305C135.02 49.355 134.995 49.395 134.945 49.425C134.905 49.465 134.865 49.485 134.825 49.485H127.28C126.81 49.485 126.5 49.395 126.35 49.215C126.21 49.045 126.14 48.75 126.14 48.33V47.205C126.14 46.785 126.225 46.505 126.395 46.365C126.575 46.215 126.89 46.14 127.34 46.14H133.34C133.48 46.14 133.57 46.12 133.61 46.08C133.65 46.04 133.67 45.945 133.67 45.795V44.94C133.67 44.79 133.65 44.695 133.61 44.655C133.58 44.615 133.495 44.595 133.355 44.595H126.32C126.27 44.595 126.22 44.58 126.17 44.55C126.13 44.52 126.11 44.48 126.11 44.43V43.89C126.11 43.84 126.13 43.8 126.17 43.77C126.22 43.74 126.27 43.725 126.32 43.725H133.52C133.76 43.725 133.955 43.745 134.105 43.785C134.255 43.815 134.375 43.87 134.465 43.95C134.555 44.03 134.615 44.145 134.645 44.295C134.685 44.435 134.705 44.61 134.705 44.82V45.945C134.705 46.365 134.615 46.65 134.435 46.8C134.265 46.94 133.955 47.01 133.505 47.01H127.49C127.35 47.01 127.26 47.03 127.22 47.07C127.19 47.11 127.175 47.205 127.175 47.355V48.27C127.175 48.41 127.195 48.5 127.235 48.54C127.275 48.59 127.365 48.615 127.505 48.615H134.81C134.86 48.615 134.905 48.63 134.945 48.66C134.995 48.69 135.02 48.73 135.02 48.78V49.305ZM129.89 39.195C129.89 38.835 129.82 38.515 129.68 38.235C129.55 37.945 129.37 37.705 129.14 37.515C128.92 37.315 128.66 37.165 128.36 37.065C128.07 36.955 127.765 36.9 127.445 36.9C127.115 36.9 126.805 36.95 126.515 37.05C126.225 37.15 125.97 37.3 125.75 37.5C125.54 37.69 125.37 37.93 125.24 38.22C125.12 38.5 125.06 38.825 125.06 39.195C125.06 39.545 125.12 39.865 125.24 40.155C125.36 40.435 125.525 40.68 125.735 40.89C125.945 41.09 126.195 41.245 126.485 41.355C126.775 41.465 127.095 41.52 127.445 41.52C127.765 41.52 128.07 41.465 128.36 41.355C128.66 41.245 128.92 41.09 129.14 40.89C129.37 40.69 129.55 40.445 129.68 40.155C129.82 39.865 129.89 39.545 129.89 39.195ZM138.161 37.8C138.161 37.38 138.241 37.1 138.401 36.96C138.561 36.81 138.861 36.735 139.301 36.735H143.711C143.951 36.735 144.141 36.75 144.281 36.78C144.431 36.81 144.546 36.865 144.626 36.945C144.716 37.025 144.776 37.135 144.806 37.275C144.836 37.415 144.851 37.59 144.851 37.8V44.445C144.851 44.865 144.771 45.15 144.611 45.3C144.451 45.44 144.151 45.51 143.711 45.51H139.301C139.061 45.51 138.866 45.495 138.716 45.465C138.576 45.435 138.461 45.38 138.371 45.3C138.291 45.21 138.236 45.1 138.206 44.97C138.176 44.83 138.161 44.655 138.161 44.445V37.8ZM139.556 37.635C139.416 37.635 139.321 37.665 139.271 37.725C139.221 37.775 139.196 37.875 139.196 38.025V44.22C139.196 44.37 139.221 44.475 139.271 44.535C139.321 44.585 139.416 44.61 139.556 44.61H143.456C143.596 44.61 143.691 44.585 143.741 44.535C143.791 44.475 143.816 44.37 143.816 44.22V38.025C143.816 37.875 143.791 37.775 143.741 37.725C143.691 37.665 143.596 37.635 143.456 37.635H139.556ZM148.286 49.23C148.286 49.37 148.216 49.44 148.076 49.44H147.461C147.321 49.44 147.251 49.37 147.251 49.23V35.82C147.251 35.68 147.321 35.61 147.461 35.61H148.076C148.216 35.61 148.286 35.68 148.286 35.82V41.28H150.356C150.416 41.28 150.466 41.3 150.506 41.34C150.556 41.37 150.581 41.415 150.581 41.475V41.985C150.581 42.035 150.556 42.08 150.506 42.12C150.466 42.16 150.416 42.18 150.356 42.18H148.286V49.23ZM165.082 45.225C165.242 45.195 165.327 45.23 165.337 45.33L165.427 45.855C165.447 45.975 165.382 46.045 165.232 46.065C164.902 46.125 164.542 46.185 164.152 46.245C163.762 46.295 163.357 46.345 162.937 46.395C162.527 46.435 162.112 46.475 161.692 46.515C161.272 46.555 160.862 46.585 160.462 46.605C160.172 46.625 159.822 46.64 159.412 46.65C159.012 46.66 158.597 46.67 158.167 46.68C157.747 46.68 157.337 46.68 156.937 46.68C156.537 46.68 156.197 46.675 155.917 46.665C155.857 46.665 155.802 46.645 155.752 46.605C155.712 46.565 155.692 46.52 155.692 46.47V45.96C155.692 45.9 155.712 45.855 155.752 45.825C155.802 45.785 155.857 45.765 155.917 45.765C156.137 45.775 156.407 45.785 156.727 45.795C157.057 45.795 157.402 45.795 157.762 45.795C158.122 45.795 158.487 45.79 158.857 45.78C159.227 45.77 159.572 45.76 159.892 45.75V42.585H157.957C157.517 42.585 157.217 42.515 157.057 42.375C156.897 42.225 156.817 41.94 156.817 41.52V38.025C156.817 37.605 156.897 37.325 157.057 37.185C157.217 37.035 157.517 36.96 157.957 36.96H163.702C163.832 36.96 163.897 37.025 163.897 37.155V37.65C163.897 37.79 163.832 37.86 163.702 37.86H158.212C158.072 37.86 157.977 37.89 157.927 37.95C157.877 38 157.852 38.1 157.852 38.25V41.295C157.852 41.435 157.877 41.535 157.927 41.595C157.977 41.655 158.072 41.685 158.212 41.685H163.807C163.937 41.685 164.002 41.75 164.002 41.88V42.375C164.002 42.515 163.937 42.585 163.807 42.585H160.927V45.705C161.267 45.685 161.622 45.66 161.992 45.63C162.362 45.59 162.732 45.55 163.102 45.51C163.472 45.47 163.827 45.425 164.167 45.375C164.507 45.325 164.812 45.275 165.082 45.225ZM167.122 49.23C167.122 49.37 167.052 49.44 166.912 49.44H166.297C166.157 49.44 166.087 49.37 166.087 49.23V35.82C166.087 35.68 166.157 35.61 166.297 35.61H166.912C167.052 35.61 167.122 35.68 167.122 35.82V49.23ZM178.123 45.33C178.093 45.38 178.053 45.41 178.003 45.42C177.963 45.43 177.903 45.405 177.823 45.345C177.583 45.165 177.328 44.96 177.058 44.73C176.788 44.49 176.523 44.24 176.263 43.98C176.003 43.71 175.748 43.435 175.498 43.155C175.248 42.865 175.018 42.58 174.808 42.3C174.308 42.93 173.738 43.535 173.098 44.115C172.458 44.685 171.728 45.255 170.908 45.825C170.858 45.855 170.808 45.88 170.758 45.9C170.708 45.91 170.668 45.895 170.638 45.855L170.278 45.39C170.238 45.34 170.223 45.29 170.233 45.24C170.243 45.18 170.268 45.135 170.308 45.105C171.908 43.975 173.153 42.83 174.043 41.67C174.943 40.51 175.568 39.3 175.918 38.04C175.958 37.9 175.958 37.8 175.918 37.74C175.888 37.67 175.803 37.635 175.663 37.635H171.118C170.998 37.635 170.938 37.57 170.938 37.44V36.915C170.938 36.795 171.008 36.735 171.148 36.735H176.068C176.588 36.735 176.918 36.825 177.058 37.005C177.198 37.185 177.198 37.505 177.058 37.965C176.668 39.245 176.118 40.42 175.408 41.49C175.638 41.81 175.883 42.125 176.143 42.435C176.403 42.745 176.663 43.04 176.923 43.32C177.183 43.59 177.443 43.84 177.703 44.07C177.963 44.29 178.208 44.475 178.438 44.625C178.488 44.665 178.513 44.71 178.513 44.76C178.513 44.81 178.498 44.855 178.468 44.895L178.123 45.33ZM181.228 49.23C181.228 49.37 181.158 49.44 181.018 49.44H180.403C180.263 49.44 180.193 49.37 180.193 49.23V35.82C180.193 35.68 180.263 35.61 180.403 35.61H181.018C181.158 35.61 181.228 35.68 181.228 35.82V49.23ZM195.744 39.585C195.744 40.095 195.654 40.56 195.474 40.98C195.294 41.4 195.044 41.76 194.724 42.06C194.404 42.36 194.029 42.595 193.599 42.765C193.169 42.935 192.709 43.02 192.219 43.02C191.739 43.02 191.289 42.94 190.869 42.78C190.449 42.61 190.079 42.375 189.759 42.075C189.449 41.765 189.204 41.4 189.024 40.98C188.844 40.56 188.754 40.095 188.754 39.585C188.754 39.045 188.844 38.565 189.024 38.145C189.204 37.715 189.449 37.355 189.759 37.065C190.079 36.765 190.449 36.535 190.869 36.375C191.289 36.215 191.739 36.135 192.219 36.135C192.679 36.135 193.119 36.215 193.539 36.375C193.969 36.525 194.344 36.75 194.664 37.05C194.994 37.34 195.254 37.7 195.444 38.13C195.644 38.56 195.744 39.045 195.744 39.585ZM194.724 39.57C194.724 39.17 194.654 38.82 194.514 38.52C194.384 38.21 194.204 37.95 193.974 37.74C193.744 37.53 193.474 37.375 193.164 37.275C192.864 37.165 192.549 37.11 192.219 37.11C191.869 37.11 191.544 37.165 191.244 37.275C190.954 37.375 190.699 37.53 190.479 37.74C190.259 37.95 190.084 38.21 189.954 38.52C189.834 38.82 189.774 39.17 189.774 39.57C189.774 39.95 189.834 40.295 189.954 40.605C190.074 40.905 190.244 41.165 190.464 41.385C190.684 41.605 190.939 41.775 191.229 41.895C191.529 42.005 191.859 42.06 192.219 42.06C192.549 42.06 192.864 42.005 193.164 41.895C193.474 41.775 193.744 41.605 193.974 41.385C194.204 41.165 194.384 40.905 194.514 40.605C194.654 40.295 194.724 39.95 194.724 39.57ZM199.659 47.85C199.659 48.11 199.599 48.35 199.479 48.57C199.369 48.79 199.209 48.98 198.999 49.14C198.789 49.3 198.539 49.425 198.249 49.515C197.959 49.615 197.634 49.665 197.274 49.665C196.914 49.665 196.589 49.615 196.299 49.515C196.009 49.425 195.759 49.295 195.549 49.125C195.339 48.965 195.179 48.775 195.069 48.555C194.959 48.335 194.904 48.1 194.904 47.85C194.904 47.6 194.959 47.365 195.069 47.145C195.179 46.925 195.339 46.735 195.549 46.575C195.759 46.415 196.009 46.29 196.299 46.2C196.589 46.1 196.914 46.05 197.274 46.05C197.634 46.05 197.959 46.1 198.249 46.2C198.539 46.29 198.789 46.42 198.999 46.59C199.209 46.75 199.369 46.94 199.479 47.16C199.599 47.37 199.659 47.6 199.659 47.85ZM199.014 42.435C199.014 42.585 198.944 42.66 198.804 42.66H198.189C198.049 42.66 197.979 42.585 197.979 42.435V35.82C197.979 35.68 198.049 35.61 198.189 35.61H198.804C198.944 35.61 199.014 35.68 199.014 35.82V39.225H201.084C201.144 39.225 201.194 39.245 201.234 39.285C201.284 39.315 201.309 39.36 201.309 39.42V39.93C201.309 39.98 201.284 40.025 201.234 40.065C201.194 40.105 201.144 40.125 201.084 40.125H199.014V42.435ZM194.739 48.93C194.749 49.03 194.684 49.1 194.544 49.14C194.494 49.16 194.419 49.175 194.319 49.185C194.219 49.205 194.114 49.22 194.004 49.23C193.894 49.24 193.789 49.25 193.689 49.26C193.589 49.27 193.509 49.275 193.449 49.275C193.309 49.285 193.144 49.29 192.954 49.29C192.764 49.3 192.569 49.305 192.369 49.305C192.169 49.315 191.969 49.32 191.769 49.32C191.569 49.32 191.389 49.32 191.229 49.32C190.759 49.32 190.449 49.23 190.299 49.05C190.159 48.88 190.089 48.59 190.089 48.18V44.475C190.089 44.335 190.159 44.265 190.299 44.265H190.914C191.054 44.265 191.124 44.335 191.124 44.475V48.105C191.124 48.245 191.144 48.33 191.184 48.36C191.234 48.4 191.329 48.42 191.469 48.42C191.599 48.42 191.754 48.42 191.934 48.42C192.124 48.42 192.314 48.415 192.504 48.405C192.694 48.405 192.874 48.4 193.044 48.39C193.224 48.39 193.374 48.385 193.494 48.375C193.634 48.365 193.799 48.345 193.989 48.315C194.179 48.295 194.324 48.27 194.424 48.24C194.564 48.21 194.644 48.26 194.664 48.39L194.739 48.93ZM200.079 45.48C200.079 45.58 200.024 45.63 199.914 45.63H194.454C194.424 45.63 194.389 45.62 194.349 45.6C194.319 45.57 194.304 45.53 194.304 45.48V44.91C194.304 44.86 194.319 44.825 194.349 44.805C194.389 44.775 194.424 44.76 194.454 44.76H199.914C200.024 44.76 200.079 44.805 200.079 44.895V45.48ZM198.669 47.88C198.669 47.59 198.549 47.345 198.309 47.145C198.069 46.935 197.724 46.83 197.274 46.83C196.824 46.83 196.474 46.93 196.224 47.13C195.984 47.33 195.864 47.58 195.864 47.88C195.864 48.17 195.984 48.41 196.224 48.6C196.474 48.79 196.824 48.885 197.274 48.885C197.724 48.885 198.069 48.79 198.309 48.6C198.549 48.41 198.669 48.17 198.669 47.88ZM198.969 43.95C198.969 44.06 198.909 44.115 198.789 44.115H195.639C195.609 44.115 195.574 44.105 195.534 44.085C195.504 44.055 195.489 44.015 195.489 43.965V43.41C195.489 43.3 195.539 43.245 195.639 43.245H198.789C198.909 43.245 198.969 43.3 198.969 43.41V43.95ZM209.85 41.325C209.85 41.885 209.78 42.45 209.64 43.02C209.51 43.59 209.3 44.105 209.01 44.565C208.72 45.025 208.345 45.405 207.885 45.705C207.435 45.995 206.89 46.14 206.25 46.14C205.59 46.14 205.03 45.995 204.57 45.705C204.12 45.415 203.755 45.04 203.475 44.58C203.205 44.11 203.01 43.59 202.89 43.02C202.77 42.45 202.71 41.885 202.71 41.325C202.71 40.735 202.77 40.155 202.89 39.585C203.01 39.005 203.205 38.485 203.475 38.025C203.755 37.565 204.12 37.195 204.57 36.915C205.03 36.635 205.59 36.495 206.25 36.495C206.89 36.495 207.435 36.635 207.885 36.915C208.345 37.195 208.72 37.565 209.01 38.025C209.3 38.475 209.51 38.99 209.64 39.57C209.78 40.14 209.85 40.725 209.85 41.325ZM208.785 41.31C208.785 40.86 208.735 40.405 208.635 39.945C208.545 39.485 208.4 39.07 208.2 38.7C208 38.33 207.74 38.03 207.42 37.8C207.1 37.57 206.71 37.455 206.25 37.455C205.77 37.455 205.37 37.57 205.05 37.8C204.74 38.03 204.49 38.33 204.3 38.7C204.11 39.07 203.975 39.485 203.895 39.945C203.815 40.405 203.775 40.86 203.775 41.31C203.775 41.74 203.81 42.185 203.88 42.645C203.96 43.105 204.095 43.525 204.285 43.905C204.475 44.275 204.73 44.58 205.05 44.82C205.37 45.06 205.77 45.18 206.25 45.18C206.71 45.18 207.1 45.06 207.42 44.82C207.74 44.58 208 44.275 208.2 43.905C208.4 43.525 208.545 43.105 208.635 42.645C208.735 42.185 208.785 41.74 208.785 41.31ZM213.12 49.23C213.12 49.37 213.05 49.44 212.91 49.44H212.295C212.155 49.44 212.085 49.37 212.085 49.23V35.82C212.085 35.68 212.155 35.61 212.295 35.61H212.91C213.05 35.61 213.12 35.68 213.12 35.82V41.28H215.19C215.25 41.28 215.3 41.3 215.34 41.34C215.39 41.37 215.415 41.415 215.415 41.475V41.985C215.415 42.035 215.39 42.08 215.34 42.12C215.3 42.16 215.25 42.18 215.19 42.18H213.12V49.23ZM228.836 43.965C228.806 44.035 228.766 44.08 228.716 44.1C228.676 44.12 228.611 44.11 228.521 44.07C228.001 43.83 227.481 43.545 226.961 43.215C226.451 42.885 225.961 42.51 225.491 42.09C224.441 43.05 223.191 43.85 221.741 44.49C221.691 44.51 221.641 44.525 221.591 44.535C221.541 44.535 221.501 44.51 221.471 44.46L221.201 43.92C221.171 43.87 221.166 43.82 221.186 43.77C221.216 43.72 221.256 43.685 221.306 43.665C222.446 43.125 223.466 42.49 224.366 41.76C225.276 41.03 226.041 40.19 226.661 39.24C226.741 39.11 226.751 39.015 226.691 38.955C226.641 38.885 226.546 38.85 226.406 38.85H221.861C221.741 38.85 221.681 38.785 221.681 38.655V38.13C221.681 38.01 221.741 37.95 221.861 37.95H226.811C227.331 37.95 227.681 38.05 227.861 38.25C228.051 38.45 228.031 38.76 227.801 39.18C227.341 39.99 226.796 40.735 226.166 41.415C226.596 41.815 227.051 42.17 227.531 42.48C228.021 42.78 228.501 43.025 228.971 43.215C229.031 43.235 229.071 43.275 229.091 43.335C229.111 43.385 229.111 43.435 229.091 43.485L228.836 43.965ZM232.421 48.99C232.421 49.05 232.396 49.095 232.346 49.125C232.296 49.155 232.246 49.17 232.196 49.17H224.606C224.136 49.17 223.826 49.08 223.676 48.9C223.536 48.73 223.466 48.44 223.466 48.03V45.585C223.466 45.445 223.536 45.375 223.676 45.375H224.291C224.431 45.375 224.501 45.445 224.501 45.585V47.955C224.501 48.095 224.521 48.18 224.561 48.21C224.611 48.25 224.706 48.27 224.846 48.27H232.196C232.246 48.27 232.296 48.285 232.346 48.315C232.396 48.355 232.421 48.4 232.421 48.45V48.99ZM231.956 45.645C231.956 45.785 231.886 45.855 231.746 45.855H231.131C230.991 45.855 230.921 45.785 230.921 45.645V35.82C230.921 35.68 230.991 35.61 231.131 35.61H231.746C231.886 35.61 231.956 35.68 231.956 35.82V45.645ZM226.526 35.985C226.676 35.985 226.751 36.055 226.751 36.195V36.675C226.751 36.825 226.676 36.9 226.526 36.9H223.136C222.986 36.9 222.911 36.825 222.911 36.675V36.195C222.911 36.055 222.986 35.985 223.136 35.985H226.526ZM236.252 36.21C236.252 36.15 236.277 36.105 236.327 36.075C236.377 36.045 236.427 36.03 236.477 36.03H244.412C244.652 36.03 244.842 36.055 244.982 36.105C245.132 36.155 245.247 36.23 245.327 36.33C245.407 36.42 245.462 36.54 245.492 36.69C245.532 36.84 245.552 37.02 245.552 37.23C245.572 38.01 245.522 38.805 245.402 39.615C245.292 40.425 245.137 41.3 244.937 42.24H247.412C247.462 42.24 247.512 42.26 247.562 42.3C247.612 42.33 247.637 42.375 247.637 42.435V42.945C247.637 42.995 247.612 43.04 247.562 43.08C247.512 43.12 247.462 43.14 247.412 43.14H241.517V49.125C241.517 49.185 241.497 49.235 241.457 49.275C241.427 49.325 241.382 49.35 241.322 49.35H240.677C240.627 49.35 240.582 49.325 240.542 49.275C240.502 49.235 240.482 49.185 240.482 49.125V43.14H234.662C234.602 43.14 234.547 43.12 234.497 43.08C234.457 43.04 234.437 42.995 234.437 42.945V42.435C234.437 42.375 234.457 42.33 234.497 42.3C234.547 42.26 234.602 42.24 234.662 42.24H243.917C244.017 41.85 244.112 41.425 244.202 40.965C244.292 40.505 244.362 40.045 244.412 39.585C244.472 39.125 244.512 38.69 244.532 38.28C244.552 37.87 244.552 37.525 244.532 37.245C244.512 37.105 244.482 37.02 244.442 36.99C244.412 36.95 244.327 36.93 244.187 36.93H236.477C236.427 36.93 236.377 36.915 236.327 36.885C236.277 36.845 236.252 36.8 236.252 36.75V36.21ZM255.699 37.815C255.649 38.675 255.479 39.52 255.189 40.35C254.899 41.18 254.494 41.975 253.974 42.735C253.464 43.485 252.844 44.185 252.114 44.835C251.394 45.475 250.574 46.04 249.654 46.53C249.524 46.6 249.429 46.585 249.369 46.485L249.039 45.96C248.969 45.84 248.989 45.755 249.099 45.705C249.949 45.265 250.699 44.765 251.349 44.205C252.009 43.635 252.569 43.02 253.029 42.36C253.499 41.7 253.869 41.005 254.139 40.275C254.409 39.545 254.579 38.795 254.649 38.025C254.669 37.875 254.649 37.775 254.589 37.725C254.529 37.665 254.429 37.635 254.289 37.635H249.639C249.519 37.635 249.459 37.57 249.459 37.44V36.915C249.459 36.795 249.519 36.735 249.639 36.735H254.574C255.044 36.735 255.354 36.825 255.504 37.005C255.654 37.175 255.719 37.445 255.699 37.815ZM259.644 49.23C259.644 49.37 259.574 49.44 259.434 49.44H258.819C258.679 49.44 258.609 49.37 258.609 49.23V35.82C258.609 35.68 258.679 35.61 258.819 35.61H259.434C259.574 35.61 259.644 35.68 259.644 35.82V41.13H261.714C261.774 41.13 261.824 41.15 261.864 41.19C261.914 41.22 261.939 41.265 261.939 41.325V41.835C261.939 41.885 261.914 41.93 261.864 41.97C261.824 42.01 261.774 42.03 261.714 42.03H259.644V49.23ZM278.479 43.215C278.479 43.355 278.409 43.425 278.269 43.425H277.654C277.514 43.425 277.444 43.355 277.444 43.215V39.795H274.804C274.744 40.215 274.609 40.605 274.399 40.965C274.199 41.325 273.939 41.635 273.619 41.895C273.309 42.145 272.949 42.345 272.539 42.495C272.139 42.635 271.714 42.705 271.264 42.705C270.784 42.705 270.329 42.625 269.899 42.465C269.479 42.295 269.109 42.065 268.789 41.775C268.469 41.475 268.214 41.12 268.024 40.71C267.844 40.3 267.754 39.845 267.754 39.345C267.754 38.815 267.844 38.345 268.024 37.935C268.214 37.515 268.469 37.16 268.789 36.87C269.109 36.58 269.479 36.36 269.899 36.21C270.329 36.05 270.784 35.97 271.264 35.97C271.684 35.97 272.094 36.035 272.494 36.165C272.894 36.295 273.254 36.485 273.574 36.735C273.904 36.985 274.174 37.295 274.384 37.665C274.604 38.025 274.744 38.435 274.804 38.895H277.444V35.82C277.444 35.68 277.514 35.61 277.654 35.61H278.269C278.409 35.61 278.479 35.68 278.479 35.82V43.215ZM270.199 49.605C269.959 49.605 269.764 49.59 269.614 49.56C269.474 49.53 269.364 49.47 269.284 49.38C269.204 49.3 269.149 49.19 269.119 49.05C269.089 48.92 269.074 48.75 269.074 48.54V44.325C269.074 44.275 269.094 44.235 269.134 44.205C269.174 44.175 269.219 44.16 269.269 44.16H269.854C269.904 44.16 269.944 44.18 269.974 44.22C270.014 44.25 270.034 44.285 270.034 44.325V45.885H272.749V44.4C272.749 44.35 272.764 44.305 272.794 44.265C272.834 44.225 272.879 44.205 272.929 44.205H273.514C273.564 44.205 273.609 44.225 273.649 44.265C273.689 44.295 273.709 44.335 273.709 44.385V48.645C273.709 49.025 273.629 49.28 273.469 49.41C273.309 49.54 273.009 49.605 272.569 49.605H270.199ZM273.784 39.33C273.784 38.94 273.714 38.595 273.574 38.295C273.434 37.995 273.244 37.745 273.004 37.545C272.774 37.335 272.509 37.18 272.209 37.08C271.909 36.97 271.594 36.915 271.264 36.915C270.934 36.915 270.619 36.97 270.319 37.08C270.019 37.18 269.754 37.33 269.524 37.53C269.304 37.73 269.129 37.985 268.999 38.295C268.869 38.595 268.804 38.94 268.804 39.33C268.804 39.7 268.864 40.035 268.984 40.335C269.114 40.635 269.289 40.895 269.509 41.115C269.729 41.325 269.989 41.49 270.289 41.61C270.589 41.72 270.914 41.775 271.264 41.775C271.594 41.775 271.909 41.72 272.209 41.61C272.509 41.49 272.774 41.325 273.004 41.115C273.244 40.905 273.434 40.65 273.574 40.35C273.714 40.05 273.784 39.71 273.784 39.33ZM279.289 49.425C278.679 49.045 278.179 48.66 277.789 48.27C277.399 47.88 277.094 47.445 276.874 46.965C276.644 47.445 276.344 47.89 275.974 48.3C275.614 48.72 275.164 49.14 274.624 49.56C274.584 49.58 274.534 49.595 274.474 49.605C274.414 49.615 274.359 49.595 274.309 49.545L273.904 49.14C273.804 49.02 273.824 48.915 273.964 48.825C274.784 48.245 275.394 47.6 275.794 46.89C276.204 46.17 276.399 45.305 276.379 44.295C276.379 44.245 276.394 44.195 276.424 44.145C276.454 44.085 276.499 44.06 276.559 44.07L277.249 44.085C277.359 44.085 277.414 44.15 277.414 44.28C277.414 44.51 277.404 44.73 277.384 44.94C277.364 45.15 277.339 45.355 277.309 45.555C277.449 46.185 277.729 46.755 278.149 47.265C278.579 47.775 279.119 48.21 279.769 48.57C279.909 48.64 279.939 48.74 279.859 48.87L279.574 49.35C279.524 49.41 279.479 49.445 279.439 49.455C279.409 49.475 279.359 49.465 279.289 49.425ZM270.034 46.8V48.33C270.034 48.48 270.059 48.575 270.109 48.615C270.159 48.665 270.254 48.69 270.394 48.69H272.389C272.529 48.69 272.624 48.665 272.674 48.615C272.724 48.575 272.749 48.48 272.749 48.33V46.8H270.034ZM292.586 43.14C292.586 43.28 292.516 43.35 292.376 43.35H291.761C291.621 43.35 291.551 43.28 291.551 43.14V39.99H288.971C288.921 40.42 288.791 40.815 288.581 41.175C288.381 41.525 288.121 41.825 287.801 42.075C287.491 42.325 287.126 42.52 286.706 42.66C286.296 42.8 285.861 42.87 285.401 42.87C284.911 42.87 284.451 42.79 284.021 42.63C283.591 42.47 283.216 42.245 282.896 41.955C282.576 41.655 282.321 41.305 282.131 40.905C281.951 40.495 281.861 40.04 281.861 39.54C281.861 39.02 281.951 38.555 282.131 38.145C282.321 37.725 282.576 37.375 282.896 37.095C283.216 36.805 283.591 36.585 284.021 36.435C284.451 36.275 284.911 36.195 285.401 36.195C285.831 36.195 286.246 36.26 286.646 36.39C287.056 36.52 287.421 36.71 287.741 36.96C288.061 37.21 288.331 37.515 288.551 37.875C288.771 38.225 288.911 38.63 288.971 39.09H291.551V35.82C291.551 35.68 291.621 35.61 291.761 35.61H292.376C292.516 35.61 292.586 35.68 292.586 35.82V43.14ZM287.951 39.525C287.951 39.135 287.881 38.79 287.741 38.49C287.601 38.19 287.411 37.94 287.171 37.74C286.941 37.54 286.671 37.39 286.361 37.29C286.061 37.19 285.741 37.14 285.401 37.14C285.051 37.14 284.726 37.19 284.426 37.29C284.126 37.39 283.861 37.54 283.631 37.74C283.411 37.94 283.236 38.19 283.106 38.49C282.976 38.79 282.911 39.135 282.911 39.525C282.911 39.895 282.971 40.23 283.091 40.53C283.221 40.82 283.396 41.07 283.616 41.28C283.836 41.49 284.096 41.65 284.396 41.76C284.706 41.87 285.041 41.925 285.401 41.925C285.741 41.925 286.061 41.87 286.361 41.76C286.671 41.65 286.941 41.49 287.171 41.28C287.411 41.07 287.601 40.82 287.741 40.53C287.881 40.23 287.951 39.895 287.951 39.525ZM293.936 49.305C293.896 49.355 293.856 49.39 293.816 49.41C293.786 49.43 293.736 49.42 293.666 49.38C293.036 49.05 292.496 48.655 292.046 48.195C291.606 47.745 291.266 47.255 291.026 46.725C290.766 47.265 290.441 47.755 290.051 48.195C289.671 48.645 289.236 49.02 288.746 49.32C288.606 49.4 288.456 49.395 288.296 49.305C287.806 49.025 287.366 48.67 286.976 48.24C286.586 47.82 286.276 47.355 286.046 46.845C285.786 47.365 285.431 47.835 284.981 48.255C284.541 48.675 283.996 49.06 283.346 49.41C283.296 49.43 283.241 49.45 283.181 49.47C283.121 49.49 283.076 49.48 283.046 49.44L282.686 48.9C282.666 48.86 282.661 48.81 282.671 48.75C282.691 48.7 282.731 48.66 282.791 48.63C283.771 48.15 284.486 47.56 284.936 46.86C285.396 46.15 285.596 45.29 285.536 44.28C285.536 44.15 285.586 44.085 285.686 44.085L286.406 44.1C286.516 44.1 286.571 44.16 286.571 44.28C286.571 44.58 286.556 44.87 286.526 45.15C286.536 45.45 286.596 45.76 286.706 46.08C286.816 46.4 286.956 46.705 287.126 46.995C287.296 47.275 287.491 47.535 287.711 47.775C287.941 48.005 288.181 48.185 288.431 48.315C288.521 48.365 288.601 48.365 288.671 48.315C288.941 48.145 289.191 47.915 289.421 47.625C289.651 47.335 289.851 47.01 290.021 46.65C290.201 46.29 290.336 45.905 290.426 45.495C290.526 45.085 290.571 44.675 290.561 44.265C290.561 44.215 290.571 44.17 290.591 44.13C290.621 44.08 290.666 44.055 290.726 44.055L291.431 44.07C291.541 44.07 291.596 44.13 291.596 44.25C291.586 44.36 291.576 44.47 291.566 44.58C291.566 44.68 291.561 44.785 291.551 44.895C291.551 45.695 291.776 46.415 292.226 47.055C292.676 47.685 293.326 48.195 294.176 48.585C294.296 48.655 294.316 48.75 294.236 48.87L293.936 49.305ZM306.422 40.56C306.422 40.62 306.397 40.665 306.347 40.695C306.297 40.725 306.247 40.74 306.197 40.74H298.412C297.942 40.74 297.632 40.645 297.482 40.455C297.342 40.255 297.272 39.95 297.272 39.54V36.075C297.272 35.935 297.342 35.865 297.482 35.865H298.097C298.237 35.865 298.307 35.935 298.307 36.075V39.51C298.307 39.65 298.327 39.74 298.367 39.78C298.417 39.82 298.512 39.84 298.652 39.84H306.197C306.247 39.84 306.297 39.86 306.347 39.9C306.397 39.93 306.422 39.97 306.422 40.02V40.56ZM306.647 48.99C306.647 49.05 306.622 49.095 306.572 49.125C306.522 49.155 306.472 49.17 306.422 49.17H298.277C297.807 49.17 297.497 49.07 297.347 48.87C297.207 48.68 297.137 48.38 297.137 47.97V45.045C297.137 44.905 297.207 44.835 297.347 44.835H297.962C298.102 44.835 298.172 44.905 298.172 45.045V47.955C298.172 48.095 298.192 48.18 298.232 48.21C298.282 48.25 298.377 48.27 298.517 48.27H306.422C306.472 48.27 306.522 48.285 306.572 48.315C306.622 48.355 306.647 48.4 306.647 48.45V48.99ZM308.042 42.75C308.092 42.75 308.142 42.77 308.192 42.81C308.242 42.84 308.267 42.885 308.267 42.945V43.455C308.267 43.505 308.242 43.55 308.192 43.59C308.142 43.63 308.092 43.65 308.042 43.65H295.292C295.232 43.65 295.177 43.63 295.127 43.59C295.087 43.55 295.067 43.505 295.067 43.455V42.945C295.067 42.885 295.087 42.84 295.127 42.81C295.177 42.77 295.232 42.75 295.292 42.75H308.042ZM316.689 44.805C316.709 44.945 316.644 45.03 316.494 45.06C316.144 45.14 315.754 45.215 315.324 45.285C314.904 45.345 314.459 45.395 313.989 45.435C313.529 45.465 313.054 45.49 312.564 45.51C312.084 45.52 311.609 45.52 311.139 45.51C310.689 45.5 310.379 45.395 310.209 45.195C310.049 44.995 309.969 44.685 309.969 44.265V37.92C309.969 37.5 310.049 37.22 310.209 37.08C310.369 36.94 310.669 36.87 311.109 36.87H315.369C315.499 36.87 315.564 36.93 315.564 37.05V37.59C315.564 37.71 315.499 37.77 315.369 37.77H311.304C311.164 37.77 311.079 37.79 311.049 37.83C311.019 37.86 311.004 37.95 311.004 38.1V44.19C311.004 44.34 311.029 44.44 311.079 44.49C311.129 44.54 311.224 44.57 311.364 44.58C312.234 44.61 313.084 44.595 313.914 44.535C314.744 44.475 315.549 44.36 316.329 44.19C316.489 44.16 316.584 44.215 316.614 44.355L316.689 44.805ZM317.649 40.665V36.075C317.649 35.935 317.719 35.865 317.859 35.865H318.429C318.569 35.865 318.639 35.935 318.639 36.075V48.66C318.639 48.8 318.569 48.87 318.429 48.87H317.859C317.719 48.87 317.649 48.8 317.649 48.66V41.565H314.499C314.369 41.565 314.304 41.505 314.304 41.385V40.845C314.304 40.725 314.369 40.665 314.499 40.665H317.649ZM321.294 49.23C321.294 49.37 321.224 49.44 321.084 49.44H320.514C320.374 49.44 320.304 49.37 320.304 49.23V35.82C320.304 35.68 320.374 35.61 320.514 35.61H321.084C321.224 35.61 321.294 35.68 321.294 35.82V49.23ZM336.454 44.595C336.474 44.735 336.409 44.82 336.259 44.85C335.889 44.94 335.419 45.025 334.849 45.105C334.289 45.185 333.694 45.255 333.064 45.315C332.444 45.375 331.829 45.42 331.219 45.45C330.609 45.48 330.079 45.49 329.629 45.48C329.179 45.47 328.869 45.365 328.699 45.165C328.539 44.965 328.459 44.655 328.459 44.235V37.785C328.459 37.365 328.539 37.085 328.699 36.945C328.859 36.805 329.159 36.735 329.599 36.735H334.759C334.889 36.735 334.954 36.795 334.954 36.915V37.455C334.954 37.575 334.889 37.635 334.759 37.635H329.794C329.654 37.635 329.569 37.655 329.539 37.695C329.509 37.725 329.494 37.815 329.494 37.965V44.16C329.494 44.31 329.519 44.41 329.569 44.46C329.619 44.51 329.714 44.54 329.854 44.55C330.334 44.57 330.839 44.57 331.369 44.55C331.909 44.52 332.449 44.48 332.989 44.43C333.539 44.37 334.074 44.305 334.594 44.235C335.124 44.155 335.624 44.07 336.094 43.98C336.254 43.95 336.349 44.005 336.379 44.145L336.454 44.595ZM338.584 49.23C338.584 49.37 338.514 49.44 338.374 49.44H337.759C337.619 49.44 337.549 49.37 337.549 49.23V35.82C337.549 35.68 337.619 35.61 337.759 35.61H338.374C338.514 35.61 338.584 35.68 338.584 35.82V41.28H340.654C340.714 41.28 340.764 41.3 340.804 41.34C340.854 41.37 340.879 41.415 340.879 41.475V41.985C340.879 42.035 340.854 42.08 340.804 42.12C340.764 42.16 340.714 42.18 340.654 42.18H338.584V49.23ZM349.466 39.54C349.466 40.04 349.376 40.5 349.196 40.92C349.016 41.33 348.766 41.685 348.446 41.985C348.136 42.285 347.761 42.52 347.321 42.69C346.891 42.86 346.416 42.945 345.896 42.945C345.396 42.945 344.931 42.865 344.501 42.705C344.071 42.535 343.696 42.3 343.376 42C343.066 41.7 342.821 41.34 342.641 40.92C342.471 40.5 342.386 40.04 342.386 39.54C342.386 39.01 342.471 38.535 342.641 38.115C342.821 37.685 343.066 37.325 343.376 37.035C343.696 36.735 344.071 36.51 344.501 36.36C344.931 36.2 345.396 36.12 345.896 36.12C346.376 36.12 346.831 36.2 347.261 36.36C347.691 36.51 348.066 36.73 348.386 37.02C348.716 37.31 348.976 37.67 349.166 38.1C349.366 38.52 349.466 39 349.466 39.54ZM352.871 46.755C352.871 47.185 352.756 47.57 352.526 47.91C352.296 48.25 351.981 48.535 351.581 48.765C351.191 49.005 350.731 49.185 350.201 49.305C349.681 49.435 349.121 49.5 348.521 49.5C347.871 49.5 347.281 49.435 346.751 49.305C346.221 49.185 345.766 49.005 345.386 48.765C345.006 48.535 344.711 48.25 344.501 47.91C344.291 47.57 344.186 47.185 344.186 46.755C344.186 46.335 344.291 45.96 344.501 45.63C344.711 45.29 345.006 45.005 345.386 44.775C345.766 44.535 346.221 44.355 346.751 44.235C347.281 44.105 347.871 44.04 348.521 44.04C349.121 44.04 349.681 44.105 350.201 44.235C350.731 44.355 351.191 44.53 351.581 44.76C351.981 44.99 352.296 45.275 352.526 45.615C352.756 45.945 352.871 46.325 352.871 46.755ZM348.416 39.525C348.416 39.125 348.346 38.775 348.206 38.475C348.076 38.165 347.896 37.91 347.666 37.71C347.436 37.5 347.166 37.345 346.856 37.245C346.556 37.135 346.236 37.08 345.896 37.08C345.546 37.08 345.221 37.135 344.921 37.245C344.621 37.345 344.361 37.5 344.141 37.71C343.921 37.91 343.746 38.165 343.616 38.475C343.496 38.775 343.436 39.125 343.436 39.525C343.436 39.905 343.496 40.245 343.616 40.545C343.736 40.845 343.901 41.105 344.111 41.325C344.331 41.545 344.591 41.715 344.891 41.835C345.191 41.945 345.526 42 345.896 42C346.236 42 346.556 41.945 346.856 41.835C347.166 41.715 347.436 41.545 347.666 41.325C347.896 41.105 348.076 40.845 348.206 40.545C348.346 40.245 348.416 39.905 348.416 39.525ZM351.806 46.8C351.806 46.5 351.716 46.235 351.536 46.005C351.356 45.775 351.111 45.585 350.801 45.435C350.501 45.275 350.151 45.155 349.751 45.075C349.351 44.985 348.936 44.94 348.506 44.94C348.026 44.94 347.586 44.985 347.186 45.075C346.786 45.155 346.441 45.275 346.151 45.435C345.871 45.585 345.651 45.775 345.491 46.005C345.331 46.235 345.251 46.5 345.251 46.8C345.251 47.09 345.331 47.35 345.491 47.58C345.651 47.8 345.871 47.985 346.151 48.135C346.441 48.285 346.786 48.4 347.186 48.48C347.586 48.56 348.026 48.6 348.506 48.6C348.936 48.6 349.351 48.56 349.751 48.48C350.151 48.4 350.501 48.285 350.801 48.135C351.111 47.985 351.356 47.8 351.536 47.58C351.716 47.35 351.806 47.09 351.806 46.8ZM352.691 43.65C352.691 43.79 352.621 43.86 352.481 43.86H351.866C351.726 43.86 351.656 43.79 351.656 43.65V35.82C351.656 35.68 351.726 35.61 351.866 35.61H352.481C352.621 35.61 352.691 35.68 352.691 35.82V38.25H354.761C354.821 38.25 354.871 38.27 354.911 38.31C354.961 38.34 354.986 38.385 354.986 38.445V38.94C354.986 38.99 354.961 39.035 354.911 39.075C354.871 39.115 354.821 39.135 354.761 39.135H352.691V40.935H354.761C354.821 40.935 354.871 40.955 354.911 40.995C354.961 41.025 354.986 41.07 354.986 41.13V41.625C354.986 41.675 354.961 41.72 354.911 41.76C354.871 41.8 354.821 41.82 354.761 41.82H352.691V43.65ZM363.422 42.255C363.422 42.615 363.342 42.955 363.182 43.275C363.022 43.595 362.802 43.875 362.522 44.115C362.252 44.355 361.927 44.545 361.547 44.685C361.167 44.815 360.757 44.88 360.317 44.88C359.877 44.88 359.467 44.815 359.087 44.685C358.707 44.545 358.377 44.355 358.097 44.115C357.827 43.875 357.612 43.595 357.452 43.275C357.302 42.955 357.227 42.615 357.227 42.255C357.227 41.895 357.302 41.56 357.452 41.25C357.612 40.93 357.827 40.655 358.097 40.425C358.377 40.185 358.707 40 359.087 39.87C359.467 39.73 359.877 39.66 360.317 39.66C360.757 39.66 361.167 39.73 361.547 39.87C361.927 40 362.252 40.185 362.522 40.425C362.802 40.655 363.022 40.93 363.182 41.25C363.342 41.56 363.422 41.895 363.422 42.255ZM366.797 46.065C366.797 46.205 366.727 46.275 366.587 46.275H365.972C365.832 46.275 365.762 46.205 365.762 46.065V35.82C365.762 35.68 365.832 35.61 365.972 35.61H366.587C366.727 35.61 366.797 35.68 366.797 35.82V40.785H368.867C368.927 40.785 368.977 40.805 369.017 40.845C369.067 40.875 369.092 40.92 369.092 40.98V41.49C369.092 41.54 369.067 41.585 369.017 41.625C368.977 41.665 368.927 41.685 368.867 41.685H366.797V46.065ZM362.402 42.255C362.402 42.015 362.347 41.795 362.237 41.595C362.137 41.385 361.992 41.205 361.802 41.055C361.622 40.905 361.402 40.79 361.142 40.71C360.892 40.62 360.617 40.575 360.317 40.575C360.017 40.575 359.742 40.62 359.492 40.71C359.242 40.79 359.022 40.905 358.832 41.055C358.642 41.205 358.492 41.385 358.382 41.595C358.282 41.795 358.232 42.015 358.232 42.255C358.232 42.495 358.282 42.72 358.382 42.93C358.492 43.14 358.642 43.32 358.832 43.47C359.022 43.62 359.242 43.74 359.492 43.83C359.742 43.92 360.017 43.965 360.317 43.965C360.617 43.965 360.892 43.92 361.142 43.83C361.402 43.74 361.622 43.62 361.802 43.47C361.992 43.32 362.137 43.14 362.237 42.93C362.347 42.72 362.402 42.495 362.402 42.255ZM367.472 49.035C367.472 49.095 367.447 49.14 367.397 49.17C367.347 49.2 367.297 49.215 367.247 49.215H359.507C359.037 49.215 358.727 49.125 358.577 48.945C358.437 48.775 358.367 48.485 358.367 48.075V46.005C358.367 45.865 358.437 45.795 358.577 45.795H359.192C359.332 45.795 359.402 45.865 359.402 46.005V48.015C359.402 48.155 359.422 48.24 359.462 48.27C359.512 48.3 359.607 48.315 359.747 48.315H367.247C367.297 48.315 367.347 48.33 367.397 48.36C367.447 48.4 367.472 48.445 367.472 48.495V49.035ZM364.682 38.745C364.682 38.875 364.607 38.94 364.457 38.94H356.177C356.127 38.94 356.077 38.92 356.027 38.88C355.987 38.84 355.967 38.79 355.967 38.73V38.25C355.967 38.19 355.987 38.14 356.027 38.1C356.077 38.06 356.127 38.04 356.177 38.04H364.457C364.607 38.04 364.682 38.105 364.682 38.235V38.745ZM362.492 36.705C362.492 36.835 362.417 36.9 362.267 36.9H358.157C358.107 36.9 358.057 36.885 358.007 36.855C357.967 36.825 357.947 36.78 357.947 36.72V36.195C357.947 36.135 357.967 36.085 358.007 36.045C358.047 36.005 358.092 35.985 358.142 35.985H362.267C362.417 35.985 362.492 36.055 362.492 36.195V36.705ZM382.513 43.965C382.483 44.035 382.443 44.08 382.393 44.1C382.353 44.12 382.288 44.11 382.198 44.07C381.678 43.83 381.158 43.545 380.638 43.215C380.128 42.885 379.638 42.51 379.168 42.09C378.118 43.05 376.868 43.85 375.418 44.49C375.368 44.51 375.318 44.525 375.268 44.535C375.218 44.535 375.178 44.51 375.148 44.46L374.878 43.92C374.848 43.87 374.843 43.82 374.863 43.77C374.893 43.72 374.933 43.685 374.983 43.665C376.123 43.125 377.143 42.49 378.043 41.76C378.953 41.03 379.718 40.19 380.338 39.24C380.418 39.11 380.428 39.015 380.368 38.955C380.318 38.885 380.223 38.85 380.083 38.85H375.538C375.418 38.85 375.358 38.785 375.358 38.655V38.13C375.358 38.01 375.418 37.95 375.538 37.95H380.488C381.008 37.95 381.358 38.05 381.538 38.25C381.728 38.45 381.708 38.76 381.478 39.18C381.018 39.99 380.473 40.735 379.843 41.415C380.273 41.815 380.728 42.17 381.208 42.48C381.698 42.78 382.178 43.025 382.648 43.215C382.708 43.235 382.748 43.275 382.768 43.335C382.788 43.385 382.788 43.435 382.768 43.485L382.513 43.965ZM386.098 48.99C386.098 49.05 386.073 49.095 386.023 49.125C385.973 49.155 385.923 49.17 385.873 49.17H378.283C377.813 49.17 377.503 49.08 377.353 48.9C377.213 48.73 377.143 48.44 377.143 48.03V45.585C377.143 45.445 377.213 45.375 377.353 45.375H377.968C378.108 45.375 378.178 45.445 378.178 45.585V47.955C378.178 48.095 378.198 48.18 378.238 48.21C378.288 48.25 378.383 48.27 378.523 48.27H385.873C385.923 48.27 385.973 48.285 386.023 48.315C386.073 48.355 386.098 48.4 386.098 48.45V48.99ZM385.633 45.645C385.633 45.785 385.563 45.855 385.423 45.855H384.808C384.668 45.855 384.598 45.785 384.598 45.645V35.82C384.598 35.68 384.668 35.61 384.808 35.61H385.423C385.563 35.61 385.633 35.68 385.633 35.82V45.645ZM380.203 35.985C380.353 35.985 380.428 36.055 380.428 36.195V36.675C380.428 36.825 380.353 36.9 380.203 36.9H376.813C376.663 36.9 376.588 36.825 376.588 36.675V36.195C376.588 36.055 376.663 35.985 376.813 35.985H380.203ZM389.929 36.21C389.929 36.15 389.954 36.105 390.004 36.075C390.054 36.045 390.104 36.03 390.154 36.03H398.089C398.329 36.03 398.519 36.055 398.659 36.105C398.809 36.155 398.924 36.23 399.004 36.33C399.084 36.42 399.139 36.54 399.169 36.69C399.209 36.84 399.229 37.02 399.229 37.23C399.249 38.01 399.199 38.805 399.079 39.615C398.969 40.425 398.814 41.3 398.614 42.24H401.089C401.139 42.24 401.189 42.26 401.239 42.3C401.289 42.33 401.314 42.375 401.314 42.435V42.945C401.314 42.995 401.289 43.04 401.239 43.08C401.189 43.12 401.139 43.14 401.089 43.14H395.194V49.125C395.194 49.185 395.174 49.235 395.134 49.275C395.104 49.325 395.059 49.35 394.999 49.35H394.354C394.304 49.35 394.259 49.325 394.219 49.275C394.179 49.235 394.159 49.185 394.159 49.125V43.14H388.339C388.279 43.14 388.224 43.12 388.174 43.08C388.134 43.04 388.114 42.995 388.114 42.945V42.435C388.114 42.375 388.134 42.33 388.174 42.3C388.224 42.26 388.279 42.24 388.339 42.24H397.594C397.694 41.85 397.789 41.425 397.879 40.965C397.969 40.505 398.039 40.045 398.089 39.585C398.149 39.125 398.189 38.69 398.209 38.28C398.229 37.87 398.229 37.525 398.209 37.245C398.189 37.105 398.159 37.02 398.119 36.99C398.089 36.95 398.004 36.93 397.864 36.93H390.154C390.104 36.93 390.054 36.915 390.004 36.885C389.954 36.845 389.929 36.8 389.929 36.75V36.21ZM415.196 41.445C415.246 41.445 415.296 41.465 415.346 41.505C415.396 41.535 415.421 41.58 415.421 41.64V42.15C415.421 42.2 415.396 42.245 415.346 42.285C415.296 42.325 415.246 42.345 415.196 42.345H402.446C402.386 42.345 402.331 42.325 402.281 42.285C402.241 42.245 402.221 42.2 402.221 42.15V41.64C402.221 41.58 402.241 41.535 402.281 41.505C402.331 41.465 402.386 41.445 402.446 41.445H415.196ZM413.456 39.885C413.456 40.025 413.391 40.095 413.261 40.095H405.491C405.051 40.095 404.751 40.025 404.591 39.885C404.431 39.735 404.351 39.45 404.351 39.03V36.69C404.351 36.27 404.431 35.99 404.591 35.85C404.751 35.7 405.051 35.625 405.491 35.625H413.156C413.286 35.625 413.351 35.69 413.351 35.82V36.315C413.351 36.455 413.286 36.525 413.156 36.525H405.746C405.606 36.525 405.511 36.555 405.461 36.615C405.411 36.665 405.386 36.765 405.386 36.915V38.805C405.386 38.945 405.411 39.045 405.461 39.105C405.511 39.165 405.606 39.195 405.746 39.195H413.261C413.391 39.195 413.456 39.26 413.456 39.39V39.885ZM413.621 49.17C413.621 49.22 413.596 49.26 413.546 49.29C413.506 49.33 413.466 49.35 413.426 49.35H405.446C404.976 49.35 404.666 49.26 404.516 49.08C404.376 48.91 404.306 48.615 404.306 48.195V47.115C404.306 46.695 404.391 46.415 404.561 46.275C404.741 46.125 405.056 46.05 405.506 46.05H411.956C412.096 46.05 412.186 46.03 412.226 45.99C412.266 45.95 412.286 45.855 412.286 45.705V44.865C412.286 44.715 412.266 44.62 412.226 44.58C412.196 44.54 412.111 44.52 411.971 44.52H404.486C404.436 44.52 404.386 44.505 404.336 44.475C404.296 44.445 404.276 44.405 404.276 44.355V43.83C404.276 43.78 404.296 43.74 404.336 43.71C404.386 43.68 404.436 43.665 404.486 43.665H412.121C412.361 43.665 412.556 43.685 412.706 43.725C412.856 43.755 412.976 43.81 413.066 43.89C413.156 43.97 413.216 44.085 413.246 44.235C413.286 44.375 413.306 44.55 413.306 44.76V45.84C413.306 46.26 413.216 46.545 413.036 46.695C412.866 46.835 412.556 46.905 412.106 46.905H405.641C405.501 46.905 405.411 46.925 405.371 46.965C405.341 47.005 405.326 47.1 405.326 47.25V48.135C405.326 48.275 405.346 48.365 405.386 48.405C405.426 48.455 405.516 48.48 405.656 48.48H413.411C413.461 48.48 413.506 48.495 413.546 48.525C413.596 48.555 413.621 48.595 413.621 48.645V49.17ZM422.912 40.605C422.442 40.605 421.937 40.57 421.397 40.5C420.857 40.43 420.357 40.3 419.897 40.11C419.437 39.91 419.057 39.645 418.757 39.315C418.457 38.985 418.307 38.555 418.307 38.025C418.307 37.505 418.457 37.08 418.757 36.75C419.057 36.42 419.437 36.16 419.897 35.97C420.357 35.78 420.857 35.65 421.397 35.58C421.937 35.5 422.442 35.46 422.912 35.46C423.402 35.46 423.917 35.495 424.457 35.565C424.997 35.635 425.492 35.765 425.942 35.955C426.402 36.145 426.777 36.41 427.067 36.75C427.367 37.08 427.517 37.505 427.517 38.025C427.517 38.555 427.367 38.985 427.067 39.315C426.767 39.645 426.387 39.91 425.927 40.11C425.477 40.3 424.982 40.43 424.442 40.5C423.902 40.57 423.392 40.605 422.912 40.605ZM422.912 36.375C422.592 36.375 422.227 36.395 421.817 36.435C421.417 36.475 421.037 36.555 420.677 36.675C420.317 36.795 420.012 36.965 419.762 37.185C419.522 37.405 419.402 37.69 419.402 38.04C419.402 38.39 419.522 38.675 419.762 38.895C420.012 39.105 420.317 39.27 420.677 39.39C421.037 39.51 421.417 39.59 421.817 39.63C422.227 39.67 422.592 39.69 422.912 39.69C423.232 39.69 423.592 39.67 423.992 39.63C424.402 39.59 424.787 39.51 425.147 39.39C425.507 39.27 425.807 39.105 426.047 38.895C426.297 38.675 426.422 38.39 426.422 38.04C426.422 37.69 426.297 37.405 426.047 37.185C425.797 36.965 425.492 36.795 425.132 36.675C424.772 36.555 424.387 36.475 423.977 36.435C423.577 36.395 423.222 36.375 422.912 36.375ZM429.302 41.52C429.352 41.52 429.402 41.54 429.452 41.58C429.502 41.61 429.527 41.655 429.527 41.715V42.225C429.527 42.275 429.502 42.32 429.452 42.36C429.402 42.4 429.352 42.42 429.302 42.42H416.552C416.492 42.42 416.437 42.4 416.387 42.36C416.347 42.32 416.327 42.275 416.327 42.225V41.715C416.327 41.655 416.347 41.61 416.387 41.58C416.437 41.54 416.492 41.52 416.552 41.52H429.302ZM427.727 49.17C427.727 49.22 427.702 49.26 427.652 49.29C427.612 49.33 427.572 49.35 427.532 49.35H419.552C419.082 49.35 418.772 49.26 418.622 49.08C418.482 48.91 418.412 48.615 418.412 48.195V47.115C418.412 46.695 418.497 46.415 418.667 46.275C418.847 46.125 419.162 46.05 419.612 46.05H426.062C426.202 46.05 426.292 46.03 426.332 45.99C426.372 45.95 426.392 45.855 426.392 45.705V44.865C426.392 44.715 426.372 44.62 426.332 44.58C426.302 44.54 426.217 44.52 426.077 44.52H418.592C418.542 44.52 418.492 44.505 418.442 44.475C418.402 44.445 418.382 44.405 418.382 44.355V43.83C418.382 43.78 418.402 43.74 418.442 43.71C418.492 43.68 418.542 43.665 418.592 43.665H426.227C426.467 43.665 426.662 43.685 426.812 43.725C426.962 43.755 427.082 43.81 427.172 43.89C427.262 43.97 427.322 44.085 427.352 44.235C427.392 44.375 427.412 44.55 427.412 44.76V45.84C427.412 46.26 427.322 46.545 427.142 46.695C426.972 46.835 426.662 46.905 426.212 46.905H419.747C419.607 46.905 419.517 46.925 419.477 46.965C419.447 47.005 419.432 47.1 419.432 47.25V48.135C419.432 48.275 419.452 48.365 419.492 48.405C419.532 48.455 419.622 48.48 419.762 48.48H427.517C427.567 48.48 427.612 48.495 427.652 48.525C427.702 48.555 427.727 48.595 427.727 48.645V49.17ZM439.543 36.585C439.543 37.245 439.513 37.88 439.453 38.49C439.403 39.09 439.318 39.67 439.198 40.23C439.298 40.63 439.453 41.055 439.663 41.505C439.873 41.945 440.118 42.385 440.398 42.825C440.688 43.265 441.008 43.695 441.358 44.115C441.718 44.525 442.098 44.895 442.498 45.225C442.548 45.265 442.573 45.315 442.573 45.375C442.583 45.435 442.573 45.485 442.543 45.525L442.168 45.99C442.078 46.1 441.973 46.1 441.853 45.99C441.573 45.75 441.283 45.465 440.983 45.135C440.693 44.795 440.408 44.44 440.128 44.07C439.858 43.7 439.603 43.32 439.363 42.93C439.123 42.54 438.918 42.165 438.748 41.805C438.428 42.715 438.008 43.555 437.488 44.325C436.968 45.085 436.348 45.795 435.628 46.455C435.528 46.535 435.443 46.54 435.373 46.47L434.923 46.005C434.893 45.975 434.878 45.935 434.878 45.885C434.888 45.835 434.918 45.785 434.968 45.735C435.578 45.155 436.108 44.545 436.558 43.905C437.008 43.265 437.373 42.575 437.653 41.835C437.943 41.095 438.153 40.29 438.283 39.42C438.423 38.55 438.493 37.595 438.493 36.555C438.493 36.485 438.508 36.435 438.538 36.405C438.578 36.365 438.623 36.345 438.673 36.345L439.378 36.375C439.488 36.375 439.543 36.445 439.543 36.585ZM445.738 49.23C445.738 49.37 445.668 49.44 445.528 49.44H444.913C444.773 49.44 444.703 49.37 444.703 49.23V35.82C444.703 35.68 444.773 35.61 444.913 35.61H445.528C445.668 35.61 445.738 35.68 445.738 35.82V41.28H447.808C447.868 41.28 447.918 41.3 447.958 41.34C448.008 41.37 448.033 41.415 448.033 41.475V41.985C448.033 42.035 448.008 42.08 447.958 42.12C447.918 42.16 447.868 42.18 447.808 42.18H445.738V49.23ZM460.669 49.305C460.669 49.355 460.644 49.395 460.594 49.425C460.554 49.465 460.514 49.485 460.474 49.485H452.584C452.114 49.485 451.804 49.395 451.654 49.215C451.514 49.045 451.444 48.75 451.444 48.33V47.43C451.444 47.01 451.529 46.73 451.699 46.59C451.879 46.44 452.194 46.365 452.644 46.365H458.989C459.129 46.365 459.219 46.345 459.259 46.305C459.299 46.265 459.319 46.17 459.319 46.02V45.39C459.319 45.24 459.299 45.145 459.259 45.105C459.229 45.065 459.144 45.045 459.004 45.045H451.624C451.574 45.045 451.524 45.03 451.474 45C451.434 44.97 451.414 44.93 451.414 44.88V44.34C451.414 44.29 451.434 44.25 451.474 44.22C451.524 44.19 451.574 44.175 451.624 44.175H459.169C459.409 44.175 459.604 44.195 459.754 44.235C459.904 44.265 460.024 44.32 460.114 44.4C460.204 44.48 460.264 44.595 460.294 44.745C460.334 44.885 460.354 45.06 460.354 45.27V46.17C460.354 46.59 460.264 46.875 460.084 47.025C459.914 47.165 459.604 47.235 459.154 47.235H452.794C452.654 47.235 452.564 47.255 452.524 47.295C452.494 47.335 452.479 47.43 452.479 47.58V48.27C452.479 48.41 452.499 48.5 452.539 48.54C452.579 48.59 452.669 48.615 452.809 48.615H460.459C460.509 48.615 460.554 48.63 460.594 48.66C460.644 48.69 460.669 48.73 460.669 48.78V49.305ZM458.269 40.11C458.319 40.1 458.364 40.11 458.404 40.14C458.454 40.16 458.484 40.19 458.494 40.23L458.569 40.74C458.579 40.86 458.519 40.935 458.389 40.965C457.769 41.075 457.084 41.17 456.334 41.25C455.584 41.33 454.859 41.395 454.159 41.445V43.485C454.159 43.545 454.139 43.6 454.099 43.65C454.069 43.69 454.024 43.71 453.964 43.71H453.319C453.269 43.71 453.224 43.69 453.184 43.65C453.144 43.6 453.124 43.545 453.124 43.485V41.49C452.824 41.51 452.494 41.53 452.134 41.55C451.774 41.56 451.414 41.57 451.054 41.58C450.704 41.59 450.364 41.6 450.034 41.61C449.714 41.61 449.439 41.605 449.209 41.595C449.149 41.595 449.094 41.575 449.044 41.535C449.004 41.495 448.984 41.45 448.984 41.4V40.89C448.984 40.83 449.004 40.785 449.044 40.755C449.094 40.715 449.149 40.695 449.209 40.695C449.489 40.695 449.824 40.695 450.214 40.695C450.614 40.685 451.019 40.675 451.429 40.665C451.849 40.655 452.254 40.645 452.644 40.635C453.044 40.615 453.389 40.595 453.679 40.575C453.959 40.555 454.249 40.535 454.549 40.515C454.859 40.495 455.174 40.475 455.494 40.455C455.614 39.975 455.699 39.455 455.749 38.895C455.809 38.335 455.829 37.815 455.809 37.335C455.799 37.195 455.774 37.11 455.734 37.08C455.694 37.04 455.604 37.02 455.464 37.02H450.514C450.464 37.02 450.414 37.005 450.364 36.975C450.314 36.935 450.289 36.89 450.289 36.84V36.3C450.289 36.24 450.314 36.195 450.364 36.165C450.414 36.135 450.464 36.12 450.514 36.12H455.689C455.929 36.12 456.119 36.145 456.259 36.195C456.409 36.245 456.524 36.32 456.604 36.42C456.684 36.51 456.739 36.63 456.769 36.78C456.799 36.93 456.819 37.11 456.829 37.32C456.849 37.83 456.829 38.345 456.769 38.865C456.719 39.385 456.639 39.88 456.529 40.35C456.859 40.32 457.169 40.285 457.459 40.245C457.759 40.205 458.029 40.16 458.269 40.11ZM460.369 43.17C460.369 43.31 460.299 43.38 460.159 43.38H459.544C459.404 43.38 459.334 43.31 459.334 43.17V35.82C459.334 35.68 459.404 35.61 459.544 35.61H460.159C460.299 35.61 460.369 35.68 460.369 35.82V43.17ZM473.294 49.35C473.244 49.35 473.199 49.325 473.159 49.275C473.119 49.235 473.099 49.185 473.099 49.125V44.235H467.279C467.219 44.235 467.164 44.215 467.114 44.175C467.074 44.135 467.054 44.09 467.054 44.04V43.53C467.054 43.47 467.074 43.425 467.114 43.395C467.164 43.355 467.219 43.335 467.279 43.335H480.029C480.079 43.335 480.129 43.355 480.179 43.395C480.229 43.425 480.254 43.47 480.254 43.53V44.04C480.254 44.09 480.229 44.135 480.179 44.175C480.129 44.215 480.079 44.235 480.029 44.235H474.134V49.125C474.134 49.185 474.114 49.235 474.074 49.275C474.044 49.325 473.999 49.35 473.939 49.35H473.294ZM474.179 35.94C474.159 36.07 474.134 36.195 474.104 36.315C474.074 36.435 474.044 36.55 474.014 36.66C474.044 36.77 474.079 36.875 474.119 36.975C474.159 37.065 474.204 37.155 474.254 37.245C474.424 37.575 474.674 37.91 475.004 38.25C475.334 38.58 475.714 38.895 476.144 39.195C476.574 39.485 477.039 39.745 477.539 39.975C478.039 40.205 478.554 40.385 479.084 40.515C479.144 40.535 479.184 40.575 479.204 40.635C479.224 40.695 479.224 40.75 479.204 40.8L478.964 41.31C478.934 41.36 478.899 41.395 478.859 41.415C478.829 41.435 478.764 41.435 478.664 41.415C478.134 41.275 477.609 41.085 477.089 40.845C476.569 40.595 476.084 40.31 475.634 39.99C475.184 39.67 474.774 39.325 474.404 38.955C474.044 38.585 473.749 38.21 473.519 37.83C473.089 38.61 472.474 39.315 471.674 39.945C470.874 40.565 469.869 41.115 468.659 41.595C468.499 41.655 468.399 41.635 468.359 41.535L468.074 41.01C468.054 40.96 468.049 40.905 468.059 40.845C468.079 40.785 468.119 40.745 468.179 40.725C468.829 40.505 469.449 40.215 470.039 39.855C470.629 39.485 471.149 39.08 471.599 38.64C472.049 38.2 472.409 37.74 472.679 37.26C472.959 36.78 473.114 36.305 473.144 35.835C473.154 35.715 473.219 35.655 473.339 35.655L474.014 35.73C474.064 35.74 474.109 35.76 474.149 35.79C474.189 35.82 474.199 35.87 474.179 35.94ZM493.315 39.54C493.315 40.04 493.225 40.5 493.045 40.92C492.865 41.33 492.615 41.685 492.295 41.985C491.975 42.285 491.595 42.52 491.155 42.69C490.725 42.86 490.255 42.945 489.745 42.945C489.255 42.945 488.795 42.865 488.365 42.705C487.935 42.535 487.56 42.3 487.24 42C486.93 41.7 486.685 41.34 486.505 40.92C486.325 40.5 486.235 40.04 486.235 39.54C486.235 39.01 486.325 38.535 486.505 38.115C486.685 37.685 486.93 37.325 487.24 37.035C487.56 36.735 487.935 36.51 488.365 36.36C488.795 36.2 489.255 36.12 489.745 36.12C490.205 36.12 490.65 36.2 491.08 36.36C491.51 36.51 491.89 36.73 492.22 37.02C492.55 37.31 492.815 37.67 493.015 38.1C493.215 38.52 493.315 39 493.315 39.54ZM492.265 39.525C492.265 39.125 492.195 38.775 492.055 38.475C491.925 38.165 491.745 37.91 491.515 37.71C491.285 37.5 491.015 37.345 490.705 37.245C490.405 37.135 490.085 37.08 489.745 37.08C489.395 37.08 489.07 37.135 488.77 37.245C488.48 37.345 488.22 37.5 487.99 37.71C487.77 37.91 487.595 38.165 487.465 38.475C487.345 38.775 487.285 39.125 487.285 39.525C487.285 39.905 487.345 40.245 487.465 40.545C487.585 40.845 487.755 41.105 487.975 41.325C488.195 41.545 488.455 41.715 488.755 41.835C489.055 41.945 489.385 42 489.745 42C490.085 42 490.405 41.945 490.705 41.835C491.015 41.715 491.285 41.545 491.515 41.325C491.745 41.105 491.925 40.845 492.055 40.545C492.195 40.245 492.265 39.905 492.265 39.525ZM498.265 49.305C498.225 49.355 498.185 49.39 498.145 49.41C498.115 49.43 498.065 49.42 497.995 49.38C497.365 49.05 496.825 48.655 496.375 48.195C495.935 47.745 495.595 47.255 495.355 46.725C495.095 47.265 494.77 47.755 494.38 48.195C494 48.645 493.565 49.02 493.075 49.32C492.935 49.4 492.785 49.395 492.625 49.305C492.135 49.025 491.695 48.67 491.305 48.24C490.915 47.82 490.605 47.355 490.375 46.845C490.115 47.365 489.76 47.835 489.31 48.255C488.87 48.675 488.325 49.06 487.675 49.41C487.625 49.43 487.57 49.45 487.51 49.47C487.45 49.49 487.405 49.48 487.375 49.44L487.015 48.9C486.995 48.86 486.99 48.81 487 48.75C487.02 48.7 487.06 48.66 487.12 48.63C488.1 48.15 488.815 47.56 489.265 46.86C489.725 46.15 489.925 45.29 489.865 44.28C489.865 44.15 489.915 44.085 490.015 44.085L490.735 44.1C490.845 44.1 490.9 44.16 490.9 44.28C490.9 44.58 490.885 44.87 490.855 45.15C490.865 45.45 490.925 45.76 491.035 46.08C491.145 46.4 491.285 46.705 491.455 46.995C491.625 47.275 491.82 47.535 492.04 47.775C492.27 48.005 492.51 48.185 492.76 48.315C492.85 48.365 492.93 48.365 493 48.315C493.27 48.145 493.52 47.915 493.75 47.625C493.98 47.335 494.18 47.01 494.35 46.65C494.53 46.29 494.665 45.905 494.755 45.495C494.855 45.085 494.9 44.675 494.89 44.265C494.89 44.215 494.9 44.17 494.92 44.13C494.95 44.08 494.995 44.055 495.055 44.055L495.76 44.07C495.87 44.07 495.925 44.13 495.925 44.25C495.915 44.36 495.905 44.47 495.895 44.58C495.895 44.68 495.89 44.785 495.88 44.895C495.88 45.695 496.105 46.415 496.555 47.055C497.005 47.685 497.655 48.195 498.505 48.585C498.625 48.655 498.645 48.75 498.565 48.87L498.265 49.305ZM496.99 43.215C496.99 43.355 496.92 43.425 496.78 43.425H496.165C496.025 43.425 495.955 43.355 495.955 43.215V35.82C495.955 35.68 496.025 35.61 496.165 35.61H496.78C496.92 35.61 496.99 35.68 496.99 35.82V43.215ZM511.096 43.14C511.096 43.28 511.026 43.35 510.886 43.35H510.271C510.131 43.35 510.061 43.28 510.061 43.14V39.99H507.481C507.431 40.42 507.301 40.815 507.091 41.175C506.891 41.525 506.631 41.825 506.311 42.075C506.001 42.325 505.636 42.52 505.216 42.66C504.806 42.8 504.371 42.87 503.911 42.87C503.421 42.87 502.961 42.79 502.531 42.63C502.101 42.47 501.726 42.245 501.406 41.955C501.086 41.655 500.831 41.305 500.641 40.905C500.461 40.495 500.371 40.04 500.371 39.54C500.371 39.02 500.461 38.555 500.641 38.145C500.831 37.725 501.086 37.375 501.406 37.095C501.726 36.805 502.101 36.585 502.531 36.435C502.961 36.275 503.421 36.195 503.911 36.195C504.341 36.195 504.756 36.26 505.156 36.39C505.566 36.52 505.931 36.71 506.251 36.96C506.571 37.21 506.841 37.515 507.061 37.875C507.281 38.225 507.421 38.63 507.481 39.09H510.061V35.82C510.061 35.68 510.131 35.61 510.271 35.61H510.886C511.026 35.61 511.096 35.68 511.096 35.82V43.14ZM506.461 39.525C506.461 39.135 506.391 38.79 506.251 38.49C506.111 38.19 505.921 37.94 505.681 37.74C505.451 37.54 505.181 37.39 504.871 37.29C504.571 37.19 504.251 37.14 503.911 37.14C503.561 37.14 503.236 37.19 502.936 37.29C502.636 37.39 502.371 37.54 502.141 37.74C501.921 37.94 501.746 38.19 501.616 38.49C501.486 38.79 501.421 39.135 501.421 39.525C501.421 39.895 501.481 40.23 501.601 40.53C501.731 40.82 501.906 41.07 502.126 41.28C502.346 41.49 502.606 41.65 502.906 41.76C503.216 41.87 503.551 41.925 503.911 41.925C504.251 41.925 504.571 41.87 504.871 41.76C505.181 41.65 505.451 41.49 505.681 41.28C505.921 41.07 506.111 40.82 506.251 40.53C506.391 40.23 506.461 39.895 506.461 39.525ZM512.446 49.305C512.406 49.355 512.366 49.39 512.326 49.41C512.296 49.43 512.246 49.42 512.176 49.38C511.546 49.05 511.006 48.655 510.556 48.195C510.116 47.745 509.776 47.255 509.536 46.725C509.276 47.265 508.951 47.755 508.561 48.195C508.181 48.645 507.746 49.02 507.256 49.32C507.116 49.4 506.966 49.395 506.806 49.305C506.316 49.025 505.876 48.67 505.486 48.24C505.096 47.82 504.786 47.355 504.556 46.845C504.296 47.365 503.941 47.835 503.491 48.255C503.051 48.675 502.506 49.06 501.856 49.41C501.806 49.43 501.751 49.45 501.691 49.47C501.631 49.49 501.586 49.48 501.556 49.44L501.196 48.9C501.176 48.86 501.171 48.81 501.181 48.75C501.201 48.7 501.241 48.66 501.301 48.63C502.281 48.15 502.996 47.56 503.446 46.86C503.906 46.15 504.106 45.29 504.046 44.28C504.046 44.15 504.096 44.085 504.196 44.085L504.916 44.1C505.026 44.1 505.081 44.16 505.081 44.28C505.081 44.58 505.066 44.87 505.036 45.15C505.046 45.45 505.106 45.76 505.216 46.08C505.326 46.4 505.466 46.705 505.636 46.995C505.806 47.275 506.001 47.535 506.221 47.775C506.451 48.005 506.691 48.185 506.941 48.315C507.031 48.365 507.111 48.365 507.181 48.315C507.451 48.145 507.701 47.915 507.931 47.625C508.161 47.335 508.361 47.01 508.531 46.65C508.711 46.29 508.846 45.905 508.936 45.495C509.036 45.085 509.081 44.675 509.071 44.265C509.071 44.215 509.081 44.17 509.101 44.13C509.131 44.08 509.176 44.055 509.236 44.055L509.941 44.07C510.051 44.07 510.106 44.13 510.106 44.25C510.096 44.36 510.086 44.47 510.076 44.58C510.076 44.68 510.071 44.785 510.061 44.895C510.061 45.695 510.286 46.415 510.736 47.055C511.186 47.685 511.836 48.195 512.686 48.585C512.806 48.655 512.826 48.75 512.746 48.87L512.446 49.305ZM525.203 49.23C525.203 49.37 525.133 49.44 524.993 49.44H524.378C524.238 49.44 524.168 49.37 524.168 49.23V41.76H521.483C521.453 42.29 521.358 42.815 521.198 43.335C521.048 43.855 520.828 44.325 520.538 44.745C520.248 45.155 519.883 45.49 519.443 45.75C519.013 46.01 518.498 46.14 517.898 46.14C517.238 46.14 516.678 45.995 516.218 45.705C515.768 45.415 515.403 45.04 515.123 44.58C514.853 44.11 514.658 43.59 514.538 43.02C514.418 42.45 514.358 41.885 514.358 41.325C514.358 40.735 514.418 40.155 514.538 39.585C514.658 39.005 514.853 38.485 515.123 38.025C515.403 37.565 515.768 37.195 516.218 36.915C516.678 36.635 517.238 36.495 517.898 36.495C518.498 36.495 519.013 36.62 519.443 36.87C519.883 37.11 520.248 37.435 520.538 37.845C520.828 38.255 521.048 38.725 521.198 39.255C521.358 39.775 521.453 40.31 521.483 40.86H524.168V35.82C524.168 35.68 524.238 35.61 524.378 35.61H524.993C525.133 35.61 525.203 35.68 525.203 35.82V49.23ZM520.433 41.31C520.433 40.86 520.383 40.405 520.283 39.945C520.193 39.485 520.048 39.07 519.848 38.7C519.648 38.33 519.388 38.03 519.068 37.8C518.748 37.57 518.358 37.455 517.898 37.455C517.418 37.455 517.018 37.57 516.698 37.8C516.388 38.03 516.138 38.33 515.948 38.7C515.758 39.07 515.623 39.485 515.543 39.945C515.463 40.405 515.423 40.86 515.423 41.31C515.423 41.74 515.458 42.185 515.528 42.645C515.608 43.105 515.743 43.525 515.933 43.905C516.123 44.275 516.378 44.58 516.698 44.82C517.018 45.06 517.418 45.18 517.898 45.18C518.358 45.18 518.748 45.06 519.068 44.82C519.388 44.58 519.648 44.275 519.848 43.905C520.048 43.525 520.193 43.105 520.283 42.645C520.383 42.185 520.433 41.74 520.433 41.31ZM534.254 42.795C533.744 42.795 533.204 42.74 532.634 42.63C532.074 42.51 531.554 42.325 531.074 42.075C530.604 41.815 530.214 41.485 529.904 41.085C529.604 40.675 529.454 40.175 529.454 39.585C529.454 38.995 529.604 38.5 529.904 38.1C530.214 37.69 530.604 37.36 531.074 37.11C531.554 36.85 532.074 36.665 532.634 36.555C533.204 36.445 533.744 36.39 534.254 36.39C534.774 36.39 535.319 36.445 535.889 36.555C536.459 36.665 536.974 36.85 537.434 37.11C537.904 37.36 538.289 37.69 538.589 38.1C538.899 38.5 539.054 38.995 539.054 39.585C539.054 40.175 538.899 40.675 538.589 41.085C538.289 41.485 537.904 41.815 537.434 42.075C536.974 42.325 536.459 42.51 535.889 42.63C535.319 42.74 534.774 42.795 534.254 42.795ZM534.254 37.35C533.904 37.35 533.514 37.38 533.084 37.44C532.664 37.5 532.264 37.615 531.884 37.785C531.514 37.945 531.199 38.175 530.939 38.475C530.689 38.765 530.564 39.14 530.564 39.6C530.564 40.06 530.689 40.435 530.939 40.725C531.199 41.015 531.514 41.245 531.884 41.415C532.264 41.575 532.664 41.685 533.084 41.745C533.514 41.805 533.904 41.835 534.254 41.835C534.584 41.835 534.964 41.805 535.394 41.745C535.824 41.685 536.224 41.575 536.594 41.415C536.974 41.245 537.294 41.015 537.554 40.725C537.814 40.435 537.944 40.06 537.944 39.6C537.944 39.14 537.814 38.765 537.554 38.475C537.294 38.175 536.974 37.945 536.594 37.785C536.224 37.615 535.824 37.5 535.394 37.44C534.964 37.38 534.584 37.35 534.254 37.35ZM537.314 43.2C537.364 43.2 537.409 43.225 537.449 43.275C537.489 43.315 537.509 43.365 537.509 43.425V46.17H540.659C540.709 46.17 540.759 46.19 540.809 46.23C540.859 46.26 540.884 46.305 540.884 46.365V46.875C540.884 46.925 540.859 46.97 540.809 47.01C540.759 47.05 540.709 47.07 540.659 47.07H527.909C527.849 47.07 527.794 47.05 527.744 47.01C527.704 46.97 527.684 46.925 527.684 46.875V46.365C527.684 46.305 527.704 46.26 527.744 46.23C527.794 46.19 527.849 46.17 527.909 46.17H531.014V43.425C531.014 43.365 531.029 43.315 531.059 43.275C531.099 43.225 531.149 43.2 531.209 43.2H531.839C531.889 43.2 531.934 43.225 531.974 43.275C532.014 43.315 532.034 43.365 532.034 43.425V46.17H536.489V43.425C536.489 43.365 536.504 43.315 536.534 43.275C536.574 43.225 536.624 43.2 536.684 43.2H537.314ZM544.851 36.75C545.041 36.75 545.151 36.77 545.181 36.81C545.211 36.84 545.226 36.95 545.226 37.14L545.061 44.895C545.061 45.065 545.046 45.165 545.016 45.195C544.986 45.215 544.886 45.225 544.716 45.225H544.476C544.316 45.225 544.221 45.215 544.191 45.195C544.171 45.165 544.156 45.07 544.146 44.91L543.966 37.14C543.966 37.04 543.966 36.965 543.966 36.915C543.966 36.865 543.976 36.83 543.996 36.81C544.026 36.78 544.066 36.765 544.116 36.765C544.166 36.755 544.241 36.75 544.341 36.75H544.851ZM543.876 47.28C543.876 47.08 543.946 46.91 544.086 46.77C544.226 46.62 544.396 46.545 544.596 46.545C544.796 46.545 544.966 46.62 545.106 46.77C545.256 46.91 545.331 47.08 545.331 47.28C545.331 47.48 545.256 47.65 545.106 47.79C544.966 47.93 544.796 48 544.596 48C544.396 48 544.226 47.93 544.086 47.79C543.946 47.65 543.876 47.48 543.876 47.28Z" fill="#444444"/>
<path d="M74.21 79.33C74.21 79.71 74.125 79.98 73.955 80.14C73.795 80.3 73.525 80.38 73.145 80.38H66.56C66.11 80.38 65.805 80.3 65.645 80.14C65.495 79.98 65.42 79.705 65.42 79.315V76.18C65.42 75.8 65.5 75.525 65.66 75.355C65.83 75.185 66.105 75.1 66.485 75.1H73.07C73.52 75.1 73.82 75.185 73.97 75.355C74.13 75.515 74.21 75.795 74.21 76.195V79.33ZM72.5 76.675C72.5 76.595 72.485 76.545 72.455 76.525C72.435 76.495 72.385 76.48 72.305 76.48H67.325C67.245 76.48 67.19 76.49 67.16 76.51C67.14 76.53 67.13 76.58 67.13 76.66V78.805C67.13 78.895 67.14 78.95 67.16 78.97C67.19 78.99 67.245 79 67.325 79H72.305C72.385 79 72.435 78.99 72.455 78.97C72.485 78.95 72.5 78.895 72.5 78.805V76.675ZM63.965 74.65C63.855 74.7 63.76 74.72 63.68 74.71C63.6 74.69 63.535 74.63 63.485 74.53L63.11 73.735C63.07 73.655 63.055 73.575 63.065 73.495C63.085 73.415 63.145 73.35 63.245 73.3C64.475 72.78 65.5 72.14 66.32 71.38C67.14 70.61 67.69 69.77 67.97 68.86C68.02 68.7 68.035 68.59 68.015 68.53C67.995 68.47 67.91 68.44 67.76 68.44H63.725C63.655 68.44 63.6 68.415 63.56 68.365C63.53 68.315 63.515 68.26 63.515 68.2V67.21C63.515 67.07 63.59 67 63.74 67H68.78C69.22 67 69.53 67.07 69.71 67.21C69.89 67.35 69.98 67.58 69.98 67.9C69.98 67.94 69.975 68 69.965 68.08C69.955 68.15 69.94 68.225 69.92 68.305C69.91 68.385 69.895 68.46 69.875 68.53C69.865 68.59 69.855 68.635 69.845 68.665C69.465 70.035 68.785 71.215 67.805 72.205C66.825 73.185 65.545 74 63.965 74.65ZM72.5 74.155V66.565C72.5 66.435 72.565 66.37 72.695 66.37H74.03C74.16 66.37 74.225 66.435 74.225 66.565V74.155C74.225 74.285 74.16 74.35 74.03 74.35H72.695C72.565 74.35 72.5 74.285 72.5 74.155ZM85.8114 77.56C85.3614 78.13 84.8164 78.555 84.1764 78.835C83.5464 79.105 82.8364 79.24 82.0464 79.24C81.1664 79.24 80.4064 79.085 79.7664 78.775C79.1364 78.455 78.6164 78.025 78.2064 77.485C77.8064 76.945 77.5064 76.32 77.3064 75.61C77.1164 74.89 77.0214 74.13 77.0214 73.33C77.0214 72.55 77.1214 71.805 77.3214 71.095C77.5214 70.375 77.8264 69.745 78.2364 69.205C78.6464 68.665 79.1664 68.235 79.7964 67.915C80.4264 67.595 81.1764 67.435 82.0464 67.435C82.8964 67.435 83.6364 67.6 84.2664 67.93C84.8964 68.25 85.4164 68.68 85.8264 69.22C86.2464 69.76 86.5564 70.385 86.7564 71.095C86.9664 71.805 87.0664 72.55 87.0564 73.33C87.0464 74.21 86.9414 75.005 86.7414 75.715C86.5414 76.415 86.2314 77.03 85.8114 77.56ZM82.0464 69.04C81.4664 69.04 80.9664 69.17 80.5464 69.43C80.1364 69.68 79.7964 70.01 79.5264 70.42C79.2664 70.82 79.0714 71.28 78.9414 71.8C78.8214 72.31 78.7614 72.82 78.7614 73.33C78.7614 73.84 78.8214 74.355 78.9414 74.875C79.0714 75.385 79.2664 75.845 79.5264 76.255C79.7964 76.665 80.1364 77 80.5464 77.26C80.9664 77.51 81.4664 77.635 82.0464 77.635C82.6264 77.635 83.1214 77.51 83.5314 77.26C83.9514 77 84.2914 76.665 84.5514 76.255C84.8114 75.845 85.0014 75.385 85.1214 74.875C85.2514 74.355 85.3164 73.84 85.3164 73.33C85.3164 72.83 85.2564 72.325 85.1364 71.815C85.0164 71.305 84.8214 70.845 84.5514 70.435C84.2914 70.025 83.9514 69.69 83.5314 69.43C83.1214 69.17 82.6264 69.04 82.0464 69.04ZM96.0281 72.64C96.0281 72.98 95.9431 73.235 95.7731 73.405C95.6131 73.565 95.3181 73.645 94.8881 73.645H90.5531C90.1131 73.645 89.8131 73.57 89.6531 73.42C89.4931 73.27 89.4131 72.995 89.4131 72.595V67.03C89.4131 66.98 89.4331 66.935 89.4731 66.895C89.5131 66.855 89.5581 66.835 89.6081 66.835H90.9131C90.9631 66.835 91.0081 66.855 91.0481 66.895C91.0981 66.935 91.1231 66.98 91.1231 67.03V69.07H94.3031V67.015C94.3031 66.965 94.3231 66.92 94.3631 66.88C94.4131 66.83 94.4631 66.805 94.5131 66.805H95.8181C95.8681 66.805 95.9131 66.83 95.9531 66.88C96.0031 66.92 96.0281 66.965 96.0281 67.015V69.595H98.5631V66.565C98.5631 66.515 98.5881 66.47 98.6381 66.43C98.6881 66.39 98.7381 66.37 98.7881 66.37H100.123C100.233 66.37 100.288 66.435 100.288 66.565V74.215C100.288 74.355 100.223 74.425 100.093 74.425H98.7581C98.6281 74.425 98.5631 74.36 98.5631 74.23V71.035H96.0281V72.64ZM100.273 79.33C100.273 79.71 100.188 79.98 100.018 80.14C99.8581 80.3 99.5881 80.38 99.2081 80.38H92.5181C92.0681 80.38 91.7631 80.3 91.6031 80.14C91.4431 79.98 91.3631 79.705 91.3631 79.315V76.255C91.3631 75.875 91.4481 75.6 91.6181 75.43C91.7881 75.26 92.0631 75.175 92.4431 75.175H99.1331C99.5831 75.175 99.8831 75.26 100.033 75.43C100.193 75.59 100.273 75.87 100.273 76.27V79.33ZM98.5631 76.75C98.5631 76.67 98.5481 76.62 98.5181 76.6C98.4981 76.57 98.4481 76.555 98.3681 76.555H93.2831C93.2031 76.555 93.1481 76.565 93.1181 76.585C93.0981 76.605 93.0881 76.655 93.0881 76.735V78.805C93.0881 78.895 93.0981 78.95 93.1181 78.97C93.1481 78.99 93.2031 79 93.2831 79H98.3681C98.4481 79 98.4981 78.99 98.5181 78.97C98.5481 78.95 98.5631 78.895 98.5631 78.805V76.75ZM94.3031 70.465H91.1231V71.98C91.1231 72.16 91.2131 72.25 91.3931 72.25H94.0331C94.2131 72.25 94.3031 72.16 94.3031 71.98V70.465ZM118.449 74.17C118.449 74.3 118.384 74.365 118.254 74.365H116.919C116.789 74.365 116.724 74.295 116.724 74.155V66.565C116.724 66.435 116.789 66.37 116.919 66.37H118.254C118.384 66.37 118.449 66.435 118.449 66.565V74.17ZM116.724 76.72C116.724 76.64 116.709 76.59 116.679 76.57C116.649 76.54 116.594 76.525 116.514 76.525H111.579C111.499 76.525 111.444 76.535 111.414 76.555C111.394 76.575 111.384 76.625 111.384 76.705V78.745C111.384 78.835 111.394 78.89 111.414 78.91C111.444 78.93 111.499 78.94 111.579 78.94H116.514C116.604 78.94 116.659 78.93 116.679 78.91C116.709 78.89 116.724 78.835 116.724 78.745V76.72ZM118.434 79.3C118.434 79.68 118.349 79.95 118.179 80.11C118.009 80.27 117.734 80.35 117.354 80.35H110.814C110.364 80.35 110.059 80.27 109.899 80.11C109.739 79.95 109.659 79.675 109.659 79.285V76.195C109.659 75.815 109.744 75.54 109.914 75.37C110.084 75.2 110.359 75.115 110.739 75.115H117.279C117.729 75.115 118.034 75.2 118.194 75.37C118.354 75.53 118.434 75.81 118.434 76.21V79.3ZM115.929 72.685C115.939 72.745 115.924 72.795 115.884 72.835C115.844 72.865 115.799 72.885 115.749 72.895C115.299 73.015 114.779 73.115 114.189 73.195C113.609 73.275 113.014 73.34 112.404 73.39C111.804 73.44 111.214 73.475 110.634 73.495C110.054 73.505 109.544 73.5 109.104 73.48C108.664 73.46 108.369 73.365 108.219 73.195C108.079 73.015 108.009 72.75 108.009 72.4V67.09C108.009 67.04 108.029 66.995 108.069 66.955C108.119 66.905 108.169 66.88 108.219 66.88H109.509C109.569 66.88 109.619 66.905 109.659 66.955C109.709 66.995 109.734 67.04 109.734 67.09V71.785C109.734 71.885 109.754 71.95 109.794 71.98C109.844 72 109.919 72.015 110.019 72.025C110.339 72.045 110.719 72.05 111.159 72.04C111.599 72.03 112.064 72.01 112.554 71.98C113.044 71.94 113.539 71.89 114.039 71.83C114.549 71.76 115.039 71.675 115.509 71.575C115.559 71.565 115.609 71.575 115.659 71.605C115.719 71.625 115.754 71.66 115.764 71.71L115.929 72.685ZM132.454 80.545C132.454 80.675 132.389 80.74 132.259 80.74H130.894C130.764 80.74 130.699 80.675 130.699 80.545V66.43C130.699 66.3 130.764 66.235 130.894 66.235H132.259C132.389 66.235 132.454 66.3 132.454 66.43V80.545ZM143.985 79.06C143.795 79.06 143.7 78.995 143.7 78.865V78.01C143.7 77.93 143.72 77.85 143.76 77.77C143.81 77.69 143.865 77.61 143.925 77.53L146.205 74.83C147.035 73.84 147.65 73.015 148.05 72.355C148.45 71.695 148.65 71.155 148.65 70.735C148.65 70.255 148.5 69.86 148.2 69.55C147.91 69.24 147.55 69.085 147.12 69.085C146.71 69.085 146.31 69.145 145.92 69.265C145.54 69.375 145.125 69.56 144.675 69.82C144.595 69.87 144.515 69.895 144.435 69.895C144.355 69.885 144.305 69.835 144.285 69.745L144.075 68.605C144.055 68.555 144.06 68.505 144.09 68.455C144.12 68.405 144.185 68.35 144.285 68.29C144.665 68.09 145.1 67.91 145.59 67.75C146.08 67.59 146.56 67.51 147.03 67.51C147.51 67.51 147.95 67.58 148.35 67.72C148.76 67.85 149.11 68.05 149.4 68.32C149.7 68.58 149.935 68.91 150.105 69.31C150.275 69.71 150.36 70.17 150.36 70.69C150.36 71.14 150.26 71.6 150.06 72.07C149.86 72.53 149.61 72.985 149.31 73.435C149.01 73.875 148.69 74.3 148.35 74.71C148.01 75.11 147.7 75.475 147.42 75.805C147.2 76.075 146.965 76.36 146.715 76.66C146.475 76.95 146.23 77.235 145.98 77.515H150.375C150.515 77.515 150.585 77.595 150.585 77.755V78.805C150.585 78.975 150.515 79.06 150.375 79.06H143.985ZM156.546 79.12C155.266 79.12 154.316 78.615 153.696 77.605C153.086 76.585 152.781 75.16 152.781 73.33C152.781 72.71 152.826 72.06 152.916 71.38C153.016 70.7 153.201 70.075 153.471 69.505C153.751 68.935 154.136 68.465 154.626 68.095C155.116 67.725 155.756 67.54 156.546 67.54C157.066 67.54 157.521 67.625 157.911 67.795C158.301 67.965 158.631 68.2 158.901 68.5C159.181 68.79 159.411 69.13 159.591 69.52C159.771 69.9 159.911 70.305 160.011 70.735C160.111 71.165 160.181 71.605 160.221 72.055C160.261 72.495 160.281 72.92 160.281 73.33C160.281 74.24 160.206 75.055 160.056 75.775C159.906 76.495 159.676 77.105 159.366 77.605C159.056 78.095 158.666 78.47 158.196 78.73C157.736 78.99 157.186 79.12 156.546 79.12ZM156.546 69.175C156.226 69.175 155.941 69.25 155.691 69.4C155.441 69.54 155.226 69.775 155.046 70.105C154.866 70.435 154.726 70.865 154.626 71.395C154.536 71.925 154.491 72.57 154.491 73.33C154.491 74.1 154.536 74.75 154.626 75.28C154.726 75.81 154.866 76.24 155.046 76.57C155.226 76.9 155.441 77.14 155.691 77.29C155.941 77.43 156.226 77.5 156.546 77.5C156.856 77.5 157.136 77.43 157.386 77.29C157.646 77.14 157.866 76.9 158.046 76.57C158.226 76.24 158.361 75.81 158.451 75.28C158.551 74.75 158.601 74.1 158.601 73.33C158.601 72.57 158.551 71.925 158.451 71.395C158.361 70.865 158.226 70.435 158.046 70.105C157.866 69.775 157.646 69.54 157.386 69.4C157.136 69.25 156.856 69.175 156.546 69.175ZM162.178 79.06C161.988 79.06 161.893 78.995 161.893 78.865V78.01C161.893 77.93 161.913 77.85 161.953 77.77C162.003 77.69 162.058 77.61 162.118 77.53L164.398 74.83C165.228 73.84 165.843 73.015 166.243 72.355C166.643 71.695 166.843 71.155 166.843 70.735C166.843 70.255 166.693 69.86 166.393 69.55C166.103 69.24 165.743 69.085 165.313 69.085C164.903 69.085 164.503 69.145 164.113 69.265C163.733 69.375 163.318 69.56 162.868 69.82C162.788 69.87 162.708 69.895 162.628 69.895C162.548 69.885 162.498 69.835 162.478 69.745L162.268 68.605C162.248 68.555 162.253 68.505 162.283 68.455C162.313 68.405 162.378 68.35 162.478 68.29C162.858 68.09 163.293 67.91 163.783 67.75C164.273 67.59 164.753 67.51 165.223 67.51C165.703 67.51 166.143 67.58 166.543 67.72C166.953 67.85 167.303 68.05 167.593 68.32C167.893 68.58 168.128 68.91 168.298 69.31C168.468 69.71 168.553 70.17 168.553 70.69C168.553 71.14 168.453 71.6 168.253 72.07C168.053 72.53 167.803 72.985 167.503 73.435C167.203 73.875 166.883 74.3 166.543 74.71C166.203 75.11 165.893 75.475 165.613 75.805C165.393 76.075 165.158 76.36 164.908 76.66C164.668 76.95 164.423 77.235 164.173 77.515H168.568C168.708 77.515 168.778 77.595 168.778 77.755V78.805C168.778 78.975 168.708 79.06 168.568 79.06H162.178ZM174.74 79.12C173.46 79.12 172.51 78.615 171.89 77.605C171.28 76.585 170.975 75.16 170.975 73.33C170.975 72.71 171.02 72.06 171.11 71.38C171.21 70.7 171.395 70.075 171.665 69.505C171.945 68.935 172.33 68.465 172.82 68.095C173.31 67.725 173.95 67.54 174.74 67.54C175.26 67.54 175.715 67.625 176.105 67.795C176.495 67.965 176.825 68.2 177.095 68.5C177.375 68.79 177.605 69.13 177.785 69.52C177.965 69.9 178.105 70.305 178.205 70.735C178.305 71.165 178.375 71.605 178.415 72.055C178.455 72.495 178.475 72.92 178.475 73.33C178.475 74.24 178.4 75.055 178.25 75.775C178.1 76.495 177.87 77.105 177.56 77.605C177.25 78.095 176.86 78.47 176.39 78.73C175.93 78.99 175.38 79.12 174.74 79.12ZM174.74 69.175C174.42 69.175 174.135 69.25 173.885 69.4C173.635 69.54 173.42 69.775 173.24 70.105C173.06 70.435 172.92 70.865 172.82 71.395C172.73 71.925 172.685 72.57 172.685 73.33C172.685 74.1 172.73 74.75 172.82 75.28C172.92 75.81 173.06 76.24 173.24 76.57C173.42 76.9 173.635 77.14 173.885 77.29C174.135 77.43 174.42 77.5 174.74 77.5C175.05 77.5 175.33 77.43 175.58 77.29C175.84 77.14 176.06 76.9 176.24 76.57C176.42 76.24 176.555 75.81 176.645 75.28C176.745 74.75 176.795 74.1 176.795 73.33C176.795 72.57 176.745 71.925 176.645 71.395C176.555 70.865 176.42 70.435 176.24 70.105C176.06 69.775 175.84 69.54 175.58 69.4C175.33 69.25 175.05 69.175 174.74 69.175ZM186.446 68.035H189.866V66.565C189.866 66.515 189.886 66.47 189.926 66.43C189.976 66.39 190.026 66.37 190.076 66.37H191.396C191.536 66.37 191.606 66.435 191.606 66.565V76.285C191.606 76.415 191.536 76.48 191.396 76.48H190.076C190.026 76.48 189.976 76.46 189.926 76.42C189.886 76.38 189.866 76.335 189.866 76.285V71.95H186.446C186.396 71.95 186.346 71.935 186.296 71.905C186.256 71.865 186.236 71.82 186.236 71.77V70.795C186.236 70.745 186.256 70.7 186.296 70.66C186.346 70.62 186.396 70.6 186.446 70.6H189.866V69.385H186.446C186.396 69.385 186.346 69.37 186.296 69.34C186.256 69.3 186.236 69.255 186.236 69.205V68.215C186.236 68.165 186.256 68.125 186.296 68.095C186.346 68.055 186.396 68.035 186.446 68.035ZM188.261 73.99C188.271 74.05 188.256 74.1 188.216 74.14C188.176 74.18 188.131 74.205 188.081 74.215C187.671 74.305 187.201 74.38 186.671 74.44C186.151 74.49 185.611 74.53 185.051 74.56C184.501 74.58 183.956 74.595 183.416 74.605C182.886 74.605 182.406 74.595 181.976 74.575C181.566 74.555 181.281 74.445 181.121 74.245C180.971 74.035 180.896 73.775 180.896 73.465V67.255C180.896 67.205 180.916 67.16 180.956 67.12C181.006 67.07 181.056 67.045 181.106 67.045H182.396C182.456 67.045 182.506 67.07 182.546 67.12C182.596 67.16 182.621 67.205 182.621 67.255V72.94C182.621 73.05 182.641 73.12 182.681 73.15C182.721 73.18 182.791 73.195 182.891 73.195C183.221 73.205 183.596 73.21 184.016 73.21C184.436 73.2 184.866 73.185 185.306 73.165C185.756 73.145 186.201 73.12 186.641 73.09C187.081 73.05 187.486 73 187.856 72.94C187.936 72.92 187.996 72.93 188.036 72.97C188.086 73.01 188.116 73.055 188.126 73.105L188.261 73.99ZM192.041 80.17C192.041 80.29 191.981 80.35 191.861 80.35H183.911C183.451 80.35 183.141 80.27 182.981 80.11C182.831 79.95 182.756 79.675 182.756 79.285V76.135C182.756 76.085 182.776 76.035 182.816 75.985C182.866 75.935 182.916 75.91 182.966 75.91H184.256C184.316 75.91 184.366 75.935 184.406 75.985C184.456 76.025 184.481 76.075 184.481 76.135V78.67C184.481 78.77 184.501 78.835 184.541 78.865C184.591 78.895 184.666 78.91 184.766 78.91H191.831C191.881 78.91 191.926 78.93 191.966 78.97C192.016 79.01 192.041 79.055 192.041 79.105V80.17ZM202.147 79.12C200.867 79.12 199.917 78.615 199.297 77.605C198.687 76.585 198.382 75.16 198.382 73.33C198.382 72.71 198.427 72.06 198.517 71.38C198.617 70.7 198.802 70.075 199.072 69.505C199.352 68.935 199.737 68.465 200.227 68.095C200.717 67.725 201.357 67.54 202.147 67.54C202.667 67.54 203.122 67.625 203.512 67.795C203.902 67.965 204.232 68.2 204.502 68.5C204.782 68.79 205.012 69.13 205.192 69.52C205.372 69.9 205.512 70.305 205.612 70.735C205.712 71.165 205.782 71.605 205.822 72.055C205.862 72.495 205.882 72.92 205.882 73.33C205.882 74.24 205.807 75.055 205.657 75.775C205.507 76.495 205.277 77.105 204.967 77.605C204.657 78.095 204.267 78.47 203.797 78.73C203.337 78.99 202.787 79.12 202.147 79.12ZM202.147 69.175C201.827 69.175 201.542 69.25 201.292 69.4C201.042 69.54 200.827 69.775 200.647 70.105C200.467 70.435 200.327 70.865 200.227 71.395C200.137 71.925 200.092 72.57 200.092 73.33C200.092 74.1 200.137 74.75 200.227 75.28C200.327 75.81 200.467 76.24 200.647 76.57C200.827 76.9 201.042 77.14 201.292 77.29C201.542 77.43 201.827 77.5 202.147 77.5C202.457 77.5 202.737 77.43 202.987 77.29C203.247 77.14 203.467 76.9 203.647 76.57C203.827 76.24 203.962 75.81 204.052 75.28C204.152 74.75 204.202 74.1 204.202 73.33C204.202 72.57 204.152 71.925 204.052 71.395C203.962 70.865 203.827 70.435 203.647 70.105C203.467 69.775 203.247 69.54 202.987 69.4C202.737 69.25 202.457 69.175 202.147 69.175ZM210.569 78.835C210.529 78.915 210.489 78.97 210.449 79C210.409 79.03 210.339 79.045 210.239 79.045H209.024C208.874 79.045 208.779 79.03 208.739 79C208.699 78.96 208.699 78.885 208.739 78.775L212.654 69.19H207.869C207.799 69.19 207.739 69.17 207.689 69.13C207.639 69.08 207.614 69.015 207.614 68.935V67.885C207.614 67.725 207.699 67.645 207.869 67.645H214.259C214.429 67.645 214.529 67.665 214.559 67.705C214.599 67.735 214.619 67.805 214.619 67.915V68.83C214.619 68.91 214.594 68.99 214.544 69.07L210.569 78.835ZM228.455 80.455C228.455 80.505 228.43 80.55 228.38 80.59C228.34 80.64 228.3 80.665 228.26 80.665H219.905C219.515 80.665 219.245 80.595 219.095 80.455C218.955 80.315 218.885 80.085 218.885 79.765V78.34C218.885 78.02 218.955 77.79 219.095 77.65C219.235 77.51 219.5 77.44 219.89 77.44H226.22C226.3 77.44 226.35 77.43 226.37 77.41C226.39 77.38 226.4 77.32 226.4 77.23V76.99C226.4 76.88 226.39 76.815 226.37 76.795C226.35 76.765 226.295 76.75 226.205 76.75H219.08C219.03 76.75 218.98 76.735 218.93 76.705C218.88 76.665 218.855 76.62 218.855 76.57V75.67C218.855 75.62 218.88 75.575 218.93 75.535C218.98 75.495 219.03 75.475 219.08 75.475H227.075C227.485 75.475 227.755 75.54 227.885 75.67C228.025 75.79 228.095 76.02 228.095 76.36V77.8C228.095 78.15 228.025 78.385 227.885 78.505C227.755 78.625 227.485 78.685 227.075 78.685H220.775C220.695 78.685 220.645 78.7 220.625 78.73C220.605 78.75 220.595 78.8 220.595 78.88V79.18C220.595 79.28 220.605 79.335 220.625 79.345C220.645 79.365 220.7 79.375 220.79 79.375H228.245C228.295 79.375 228.34 79.39 228.38 79.42C228.43 79.46 228.455 79.51 228.455 79.57V80.455ZM228.095 74.815C228.095 74.945 228.03 75.01 227.9 75.01H226.565C226.435 75.01 226.37 74.945 226.37 74.815V74.545H223.805C223.755 74.545 223.705 74.525 223.655 74.485C223.615 74.445 223.595 74.4 223.595 74.35V73.495C223.595 73.445 223.615 73.405 223.655 73.375C223.705 73.335 223.755 73.315 223.805 73.315H226.37V66.55C226.37 66.42 226.435 66.355 226.565 66.355H227.9C228.03 66.355 228.095 66.42 228.095 66.55V74.815ZM225.86 72.31C225.87 72.37 225.85 72.43 225.8 72.49C225.76 72.55 225.715 72.585 225.665 72.595C225.375 72.645 225.05 72.69 224.69 72.73C224.33 72.76 223.965 72.79 223.595 72.82C223.225 72.85 222.865 72.875 222.515 72.895C222.165 72.915 221.865 72.93 221.615 72.94V74.665C221.615 74.725 221.59 74.78 221.54 74.83C221.5 74.87 221.45 74.89 221.39 74.89H220.145C220.085 74.89 220.03 74.87 219.98 74.83C219.94 74.78 219.92 74.725 219.92 74.665V73.06C219.62 73.07 219.31 73.08 218.99 73.09C218.68 73.09 218.375 73.095 218.075 73.105C217.775 73.105 217.49 73.105 217.22 73.105C216.95 73.105 216.715 73.1 216.515 73.09C216.455 73.09 216.405 73.065 216.365 73.015C216.325 72.965 216.305 72.91 216.305 72.85V71.965C216.305 71.825 216.375 71.755 216.515 71.755C218.545 71.775 220.29 71.75 221.75 71.68C223.22 71.6 224.47 71.49 225.5 71.35C225.55 71.34 225.6 71.355 225.65 71.395C225.71 71.425 225.745 71.465 225.755 71.515L225.86 72.31ZM220.85 67.615C220.32 67.615 219.885 67.725 219.545 67.945C219.215 68.165 219.05 68.44 219.05 68.77C219.05 69.11 219.215 69.39 219.545 69.61C219.885 69.82 220.32 69.925 220.85 69.925C221.39 69.925 221.825 69.82 222.155 69.61C222.495 69.39 222.665 69.11 222.665 68.77C222.665 68.44 222.495 68.165 222.155 67.945C221.825 67.725 221.39 67.615 220.85 67.615ZM220.85 66.4C221.37 66.4 221.84 66.465 222.26 66.595C222.68 66.715 223.04 66.885 223.34 67.105C223.64 67.315 223.87 67.565 224.03 67.855C224.2 68.135 224.285 68.44 224.285 68.77C224.285 69.1 224.2 69.41 224.03 69.7C223.87 69.99 223.64 70.245 223.34 70.465C223.04 70.675 222.68 70.845 222.26 70.975C221.84 71.095 221.37 71.155 220.85 71.155C220.34 71.155 219.875 71.095 219.455 70.975C219.035 70.845 218.675 70.675 218.375 70.465C218.075 70.245 217.84 69.99 217.67 69.7C217.51 69.41 217.43 69.1 217.43 68.77C217.43 68.44 217.51 68.135 217.67 67.855C217.84 67.565 218.075 67.315 218.375 67.105C218.675 66.885 219.035 66.715 219.455 66.595C219.875 66.465 220.34 66.4 220.85 66.4ZM238.651 79.12C237.371 79.12 236.421 78.615 235.801 77.605C235.191 76.585 234.886 75.16 234.886 73.33C234.886 72.71 234.931 72.06 235.021 71.38C235.121 70.7 235.306 70.075 235.576 69.505C235.856 68.935 236.241 68.465 236.731 68.095C237.221 67.725 237.861 67.54 238.651 67.54C239.171 67.54 239.626 67.625 240.016 67.795C240.406 67.965 240.736 68.2 241.006 68.5C241.286 68.79 241.516 69.13 241.696 69.52C241.876 69.9 242.016 70.305 242.116 70.735C242.216 71.165 242.286 71.605 242.326 72.055C242.366 72.495 242.386 72.92 242.386 73.33C242.386 74.24 242.311 75.055 242.161 75.775C242.011 76.495 241.781 77.105 241.471 77.605C241.161 78.095 240.771 78.47 240.301 78.73C239.841 78.99 239.291 79.12 238.651 79.12ZM238.651 69.175C238.331 69.175 238.046 69.25 237.796 69.4C237.546 69.54 237.331 69.775 237.151 70.105C236.971 70.435 236.831 70.865 236.731 71.395C236.641 71.925 236.596 72.57 236.596 73.33C236.596 74.1 236.641 74.75 236.731 75.28C236.831 75.81 236.971 76.24 237.151 76.57C237.331 76.9 237.546 77.14 237.796 77.29C238.046 77.43 238.331 77.5 238.651 77.5C238.961 77.5 239.241 77.43 239.491 77.29C239.751 77.14 239.971 76.9 240.151 76.57C240.331 76.24 240.466 75.81 240.556 75.28C240.656 74.75 240.706 74.1 240.706 73.33C240.706 72.57 240.656 71.925 240.556 71.395C240.466 70.865 240.331 70.435 240.151 70.105C239.971 69.775 239.751 69.54 239.491 69.4C239.241 69.25 238.961 69.175 238.651 69.175ZM247.433 79.045C247.293 79.045 247.223 78.98 247.223 78.85V69.97L246.113 70.93C246.063 70.97 246.003 70.995 245.933 71.005C245.873 71.015 245.823 71 245.783 70.96L245.108 70.15C245.078 70.11 245.063 70.065 245.063 70.015C245.073 69.955 245.103 69.9 245.153 69.85L247.448 67.735C247.468 67.715 247.503 67.695 247.553 67.675C247.603 67.655 247.643 67.645 247.673 67.645H248.468C248.638 67.645 248.738 67.665 248.768 67.705C248.808 67.735 248.828 67.85 248.828 68.05V78.85C248.828 78.98 248.763 79.045 248.633 79.045H247.433ZM260.579 70.045C260.579 70.515 260.494 70.95 260.324 71.35C260.154 71.74 259.909 72.08 259.589 72.37C259.279 72.66 258.899 72.89 258.449 73.06C258.009 73.22 257.519 73.3 256.979 73.3C256.419 73.3 255.919 73.22 255.479 73.06C255.039 72.89 254.664 72.66 254.354 72.37C254.054 72.08 253.824 71.74 253.664 71.35C253.504 70.95 253.424 70.515 253.424 70.045C253.424 69.575 253.504 69.135 253.664 68.725C253.824 68.315 254.054 67.96 254.354 67.66C254.664 67.36 255.039 67.125 255.479 66.955C255.919 66.785 256.419 66.7 256.979 66.7C257.519 66.7 258.009 66.785 258.449 66.955C258.899 67.125 259.279 67.36 259.589 67.66C259.909 67.96 260.154 68.315 260.324 68.725C260.494 69.135 260.579 69.575 260.579 70.045ZM259.049 70.06C259.049 69.48 258.859 69.005 258.479 68.635C258.109 68.265 257.609 68.08 256.979 68.08C256.369 68.08 255.879 68.265 255.509 68.635C255.139 69.005 254.954 69.48 254.954 70.06C254.954 70.61 255.139 71.07 255.509 71.44C255.879 71.8 256.369 71.98 256.979 71.98C257.289 71.98 257.569 71.935 257.819 71.845C258.079 71.745 258.299 71.61 258.479 71.44C258.659 71.26 258.799 71.055 258.899 70.825C258.999 70.585 259.049 70.33 259.049 70.06ZM264.839 80.365C264.839 80.415 264.814 80.46 264.764 80.5C264.724 80.55 264.684 80.575 264.644 80.575H256.694C256.304 80.575 256.034 80.5 255.884 80.35C255.744 80.2 255.674 79.965 255.674 79.645V77.815C255.674 77.495 255.744 77.265 255.884 77.125C256.024 76.975 256.289 76.9 256.679 76.9H262.604C262.684 76.9 262.734 76.89 262.754 76.87C262.774 76.84 262.784 76.78 262.784 76.69V76.135C262.784 76.025 262.774 75.96 262.754 75.94C262.734 75.92 262.679 75.91 262.589 75.91H255.869C255.819 75.91 255.769 75.895 255.719 75.865C255.669 75.825 255.644 75.78 255.644 75.73V74.74C255.644 74.69 255.669 74.645 255.719 74.605C255.769 74.555 255.819 74.53 255.869 74.53H263.444C263.854 74.53 264.124 74.6 264.254 74.74C264.394 74.88 264.464 75.12 264.464 75.46V77.275C264.464 77.625 264.394 77.865 264.254 77.995C264.124 78.125 263.854 78.19 263.444 78.19H257.564C257.484 78.19 257.434 78.205 257.414 78.235C257.394 78.255 257.384 78.305 257.384 78.385V79.015C257.384 79.105 257.394 79.155 257.414 79.165C257.434 79.185 257.489 79.195 257.579 79.195H264.629C264.679 79.195 264.724 79.215 264.764 79.255C264.814 79.295 264.839 79.345 264.839 79.405V80.365ZM264.464 73.645C264.464 73.775 264.399 73.84 264.269 73.84H262.934C262.804 73.84 262.739 73.77 262.739 73.63V66.565C262.739 66.435 262.804 66.37 262.934 66.37H264.269C264.399 66.37 264.464 66.435 264.464 66.565V73.645Z" fill="#444444"/>
<defs>
<filter id="filter0_d" x="0" y="0" width="685" height="121.397" filterUnits="userSpaceOnUse" color-interpolation-filters="sRGB">
<feFlood flood-opacity="0" result="BackgroundImageFix"/>
<feColorMatrix in="SourceAlpha" type="matrix" values="0 0 0 0 0 0 0 0 0 0 0 0 0 0 0 0 0 0 127 0" result="hardAlpha"/>
<feOffset dy="2"/>
<feGaussianBlur stdDeviation="2"/>
<feColorMatrix type="matrix" values="0 0 0 0 0 0 0 0 0 0 0 0 0 0 0 0 0 0 0.25 0"/>
<feBlend mode="normal" in2="BackgroundImageFix" result="effect1_dropShadow"/>
<feBlend mode="normal" in="SourceGraphic" in2="effect1_dropShadow" result="shape"/>
</filter>
<linearGradient id="paint0_linear" x1="342.5" y1="2" x2="342.5" y2="115.397" gradientUnits="userSpaceOnUse">
<stop stop-color="#FED74D"/>
<stop offset="1" stop-color="#FFC700"/>
</linearGradient>
</defs>
</svg>
