<svg width="37" height="37" viewBox="0 0 37 37" fill="none" xmlns="http://www.w3.org/2000/svg">
<path d="M18.5 3.33144C23.443 3.33144 24.0283 3.35312 25.9723 3.43984C27.7789 3.51934 28.7545 3.82285 29.4049 4.07578C30.2648 4.4082 30.8863 4.81289 31.5295 5.45605C32.1799 6.10645 32.5773 6.7207 32.9098 7.58066C33.1627 8.23105 33.4662 9.21387 33.5457 11.0133C33.6324 12.9645 33.6541 13.5498 33.6541 18.4855C33.6541 23.4285 33.6324 24.0139 33.5457 25.9578C33.4662 27.7645 33.1627 28.74 32.9098 29.3904C32.5773 30.2504 32.1727 30.8719 31.5295 31.515C30.8791 32.1654 30.2648 32.5629 29.4049 32.8953C28.7545 33.1482 27.7717 33.4518 25.9723 33.5312C24.0211 33.618 23.4357 33.6396 18.5 33.6396C13.557 33.6396 12.9717 33.618 11.0277 33.5312C9.2211 33.4518 8.24551 33.1482 7.59512 32.8953C6.73516 32.5629 6.11367 32.1582 5.47051 31.515C4.82012 30.8646 4.42266 30.2504 4.09023 29.3904C3.8373 28.74 3.53379 27.7572 3.4543 25.9578C3.36758 24.0066 3.3459 23.4213 3.3459 18.4855C3.3459 13.5426 3.36758 12.9572 3.4543 11.0133C3.53379 9.20664 3.8373 8.23105 4.09023 7.58066C4.42266 6.7207 4.82734 6.09922 5.47051 5.45605C6.1209 4.80566 6.73516 4.4082 7.59512 4.07578C8.24551 3.82285 9.22832 3.51934 11.0277 3.43984C12.9717 3.35312 13.557 3.33144 18.5 3.33144ZM18.5 0C13.4775 0 12.8488 0.0216797 10.876 0.108398C8.91035 0.195117 7.55899 0.513086 6.38828 0.968359C5.16699 1.44531 4.13359 2.07402 3.10742 3.10742C2.07402 4.13359 1.44531 5.16699 0.968359 6.38105C0.513086 7.55898 0.195117 8.90312 0.108398 10.8687C0.0216797 12.8488 0 13.4775 0 18.5C0 23.5225 0.0216797 24.1512 0.108398 26.124C0.195117 28.0896 0.513086 29.441 0.968359 30.6117C1.44531 31.833 2.07402 32.8664 3.10742 33.8926C4.13359 34.9188 5.16699 35.5547 6.38106 36.0244C7.55899 36.4797 8.90313 36.7977 10.8688 36.8844C12.8416 36.9711 13.4703 36.9928 18.4928 36.9928C23.5152 36.9928 24.1439 36.9711 26.1168 36.8844C28.0824 36.7977 29.4338 36.4797 30.6045 36.0244C31.8186 35.5547 32.852 34.9188 33.8781 33.8926C34.9043 32.8664 35.5402 31.833 36.01 30.6189C36.4652 29.441 36.7832 28.0969 36.8699 26.1313C36.9566 24.1584 36.9783 23.5297 36.9783 18.5072C36.9783 13.4848 36.9566 12.8561 36.8699 10.8832C36.7832 8.91758 36.4652 7.56621 36.01 6.39551C35.5547 5.16699 34.926 4.13359 33.8926 3.10742C32.8664 2.08125 31.833 1.44531 30.6189 0.975586C29.441 0.520312 28.0969 0.202344 26.1313 0.115625C24.1512 0.0216797 23.5225 0 18.5 0Z" fill="white"/>
<path d="M18.5 8.99707C13.2535 8.99707 8.99707 13.2535 8.99707 18.5C8.99707 23.7465 13.2535 28.0029 18.5 28.0029C23.7465 28.0029 28.0029 23.7465 28.0029 18.5C28.0029 13.2535 23.7465 8.99707 18.5 8.99707ZM18.5 24.6643C15.0963 24.6643 12.3357 21.9037 12.3357 18.5C12.3357 15.0963 15.0963 12.3357 18.5 12.3357C21.9037 12.3357 24.6643 15.0963 24.6643 18.5C24.6643 21.9037 21.9037 24.6643 18.5 24.6643Z" fill="white"/>
<path d="M30.5973 8.62139C30.5973 9.84991 29.6 10.8399 28.3787 10.8399C27.1502 10.8399 26.1602 9.84268 26.1602 8.62139C26.1602 7.39287 27.1574 6.40283 28.3787 6.40283C29.6 6.40283 30.5973 7.4001 30.5973 8.62139Z" fill="white"/>
</svg>
