<svg width="37" height="37" viewBox="0 0 37 37" fill="none" xmlns="http://www.w3.org/2000/svg">
<path d="M36.6314 11.1001C36.6314 11.1001 36.2701 8.54917 35.1572 7.42905C33.748 5.95483 32.1727 5.94761 31.45 5.86089C26.2758 5.48511 18.5072 5.48511 18.5072 5.48511H18.4928C18.4928 5.48511 10.7242 5.48511 5.55 5.86089C4.82734 5.94761 3.25195 5.95483 1.84277 7.42905C0.729883 8.54917 0.375781 11.1001 0.375781 11.1001C0.375781 11.1001 0 14.0992 0 17.091V19.8949C0 22.8867 0.368555 25.8857 0.368555 25.8857C0.368555 25.8857 0.729883 28.4367 1.83555 29.5568C3.24473 31.031 5.09473 30.9804 5.91855 31.1394C8.88144 31.4212 18.5 31.508 18.5 31.508C18.5 31.508 26.2758 31.4935 31.45 31.125C32.1727 31.0382 33.748 31.031 35.1572 29.5568C36.2701 28.4367 36.6314 25.8857 36.6314 25.8857C36.6314 25.8857 37 22.8939 37 19.8949V17.091C37 14.0992 36.6314 11.1001 36.6314 11.1001ZM14.6771 23.2986V12.8996L24.6715 18.1171L14.6771 23.2986Z" fill="white"/>
</svg>
