<svg width="685" height="122" viewBox="0 0 685 122" fill="none" xmlns="http://www.w3.org/2000/svg">
<g filter="url(#filter0_d)">
<path fill-rule="evenodd" clip-rule="evenodd" d="M658.655 13.3869C660.279 8.45698 666.706 0.0790786 681 2.39701C676.667 4.23033 668 14.897 668 42.897V82.397C668 100.622 653.225 115.397 635 115.397H37C18.7746 115.397 4 100.622 4 82.397V36.397C4 18.1716 18.7746 3.39697 37 3.39697H635C644.277 3.39697 652.659 7.22471 658.655 13.3869Z" fill="url(#paint0_linear)"/>
</g>
<path d="M63.14 38.875C63.14 38.455 63.22 38.175 63.38 38.035C63.54 37.885 63.84 37.81 64.28 37.81H67.775C68.015 37.81 68.205 37.825 68.345 37.855C68.495 37.885 68.61 37.94 68.69 38.02C68.78 38.1 68.84 38.21 68.87 38.35C68.9 38.49 68.915 38.665 68.915 38.875V45.4C68.915 45.82 68.835 46.105 68.675 46.255C68.515 46.395 68.215 46.465 67.775 46.465H64.28C64.04 46.465 63.845 46.45 63.695 46.42C63.555 46.39 63.44 46.335 63.35 46.255C63.27 46.165 63.215 46.055 63.185 45.925C63.155 45.785 63.14 45.61 63.14 45.4V38.875ZM71.675 42.28H73.58V36.82C73.58 36.68 73.65 36.61 73.79 36.61H74.36C74.5 36.61 74.57 36.68 74.57 36.82V50.23C74.57 50.37 74.5 50.44 74.36 50.44H73.79C73.65 50.44 73.58 50.37 73.58 50.23V43.18H71.675V49.66C71.675 49.8 71.605 49.87 71.465 49.87H70.895C70.755 49.87 70.685 49.8 70.685 49.66V37.075C70.685 36.935 70.755 36.865 70.895 36.865H71.465C71.605 36.865 71.675 36.935 71.675 37.075V42.28ZM64.535 38.71C64.395 38.71 64.3 38.74 64.25 38.8C64.2 38.85 64.175 38.95 64.175 39.1V45.175C64.175 45.325 64.2 45.43 64.25 45.49C64.3 45.54 64.395 45.565 64.535 45.565H67.52C67.66 45.565 67.755 45.54 67.805 45.49C67.855 45.43 67.88 45.325 67.88 45.175V39.1C67.88 38.95 67.855 38.85 67.805 38.8C67.755 38.74 67.66 38.71 67.52 38.71H64.535ZM78.8964 44.32C78.6564 44.32 78.4614 44.305 78.3114 44.275C78.1714 44.245 78.0614 44.19 77.9814 44.11C77.9014 44.02 77.8464 43.91 77.8164 43.78C77.7864 43.64 77.7714 43.465 77.7714 43.255V37.345C77.7714 37.295 77.7914 37.255 77.8314 37.225C77.8714 37.185 77.9164 37.165 77.9664 37.165H78.6114C78.6614 37.165 78.7014 37.185 78.7314 37.225C78.7714 37.265 78.7914 37.305 78.7914 37.345V39.94H83.1564V37.36C83.1564 37.31 83.1714 37.265 83.2014 37.225C83.2414 37.185 83.2864 37.165 83.3364 37.165H83.9814C84.0314 37.165 84.0764 37.185 84.1164 37.225C84.1564 37.255 84.1764 37.295 84.1764 37.345V40.315H87.1464V36.82C87.1464 36.68 87.2164 36.61 87.3564 36.61H87.9714C88.1114 36.61 88.1814 36.68 88.1814 36.82V46.39C88.1814 46.53 88.1114 46.6 87.9714 46.6H87.3564C87.2164 46.6 87.1464 46.53 87.1464 46.39V41.215H84.1764V43.36C84.1764 43.74 84.0964 43.995 83.9364 44.125C83.7764 44.255 83.4764 44.32 83.0364 44.32H78.8964ZM88.8564 49.99C88.8564 50.05 88.8314 50.095 88.7814 50.125C88.7314 50.155 88.6814 50.17 88.6314 50.17H80.8614C80.3914 50.17 80.0814 50.08 79.9314 49.9C79.7914 49.73 79.7214 49.44 79.7214 49.03V46.09C79.7214 45.95 79.7914 45.88 79.9314 45.88H80.5464C80.6864 45.88 80.7564 45.95 80.7564 46.09V48.955C80.7564 49.095 80.7764 49.18 80.8164 49.21C80.8664 49.25 80.9614 49.27 81.1014 49.27H88.6314C88.6814 49.27 88.7314 49.285 88.7814 49.315C88.8314 49.355 88.8564 49.4 88.8564 49.45V49.99ZM78.7914 40.825V43.075C78.7914 43.225 78.8164 43.325 78.8664 43.375C78.9164 43.415 79.0114 43.435 79.1514 43.435H82.7964C82.9364 43.435 83.0314 43.415 83.0814 43.375C83.1314 43.325 83.1564 43.225 83.1564 43.075V40.825H78.7914ZM105.307 41.875C105.307 42.175 105.222 42.445 105.052 42.685C104.892 42.925 104.667 43.135 104.377 43.315C104.087 43.495 103.737 43.64 103.327 43.75C102.917 43.86 102.467 43.93 101.977 43.96V45.01H107.842C107.892 45.01 107.942 45.03 107.992 45.07C108.042 45.1 108.067 45.145 108.067 45.205V45.715C108.067 45.765 108.042 45.81 107.992 45.85C107.942 45.89 107.892 45.91 107.842 45.91H95.092C95.032 45.91 94.977 45.89 94.927 45.85C94.887 45.81 94.867 45.765 94.867 45.715V45.205C94.867 45.145 94.887 45.1 94.927 45.07C94.977 45.03 95.032 45.01 95.092 45.01H100.942V43.96C100.432 43.93 99.967 43.865 99.547 43.765C99.137 43.655 98.782 43.51 98.482 43.33C98.182 43.15 97.947 42.94 97.777 42.7C97.617 42.45 97.537 42.175 97.537 41.875C97.537 41.555 97.632 41.265 97.822 41.005C98.012 40.745 98.277 40.525 98.617 40.345C98.967 40.165 99.377 40.03 99.847 39.94C100.327 39.84 100.852 39.79 101.422 39.79C101.992 39.79 102.512 39.84 102.982 39.94C103.462 40.04 103.872 40.18 104.212 40.36C104.562 40.54 104.832 40.76 105.022 41.02C105.212 41.27 105.307 41.555 105.307 41.875ZM104.167 41.875C104.167 41.665 104.097 41.485 103.957 41.335C103.827 41.175 103.637 41.045 103.387 40.945C103.147 40.835 102.857 40.755 102.517 40.705C102.187 40.655 101.822 40.63 101.422 40.63C101.022 40.63 100.652 40.655 100.312 40.705C99.972 40.755 99.677 40.83 99.427 40.93C99.187 41.03 98.997 41.16 98.857 41.32C98.717 41.48 98.647 41.665 98.647 41.875C98.647 42.085 98.717 42.27 98.857 42.43C98.997 42.59 99.187 42.725 99.427 42.835C99.677 42.935 99.972 43.01 100.312 43.06C100.652 43.11 101.022 43.135 101.422 43.135C101.822 43.135 102.187 43.11 102.517 43.06C102.857 43.01 103.147 42.935 103.387 42.835C103.637 42.725 103.827 42.59 103.957 42.43C104.097 42.27 104.167 42.085 104.167 41.875ZM106.402 49.99C106.402 50.05 106.377 50.095 106.327 50.125C106.277 50.155 106.227 50.17 106.177 50.17H98.077C97.607 50.17 97.297 50.07 97.147 49.87C97.007 49.68 96.937 49.38 96.937 48.97V47.02C96.937 46.88 97.007 46.81 97.147 46.81H97.762C97.902 46.81 97.972 46.88 97.972 47.02V48.955C97.972 49.095 97.992 49.18 98.032 49.21C98.082 49.25 98.177 49.27 98.317 49.27H106.177C106.227 49.27 106.277 49.285 106.327 49.315C106.377 49.355 106.402 49.4 106.402 49.45V49.99ZM106.762 39.07C106.762 39.2 106.687 39.265 106.537 39.265H96.337C96.287 39.265 96.237 39.245 96.187 39.205C96.147 39.165 96.127 39.115 96.127 39.055V38.575C96.127 38.515 96.147 38.465 96.187 38.425C96.237 38.385 96.287 38.365 96.337 38.365H106.537C106.687 38.365 106.762 38.43 106.762 38.56V39.07ZM103.297 36.745C103.447 36.745 103.522 36.815 103.522 36.955V37.42C103.522 37.57 103.447 37.645 103.297 37.645H99.472C99.322 37.645 99.247 37.57 99.247 37.42V36.955C99.247 36.815 99.322 36.745 99.472 36.745H103.297ZM112.633 50.32C112.393 50.32 112.198 50.305 112.048 50.275C111.908 50.245 111.798 50.185 111.718 50.095C111.638 50.015 111.583 49.905 111.553 49.765C111.523 49.635 111.508 49.465 111.508 49.255V44.95C111.508 44.9 111.528 44.86 111.568 44.83C111.608 44.8 111.653 44.785 111.703 44.785H112.363C112.413 44.785 112.453 44.805 112.483 44.845C112.523 44.875 112.543 44.91 112.543 44.95V46.54H119.038V44.995C119.038 44.945 119.053 44.9 119.083 44.86C119.123 44.82 119.168 44.8 119.218 44.8H119.878C119.928 44.8 119.973 44.82 120.013 44.86C120.053 44.89 120.073 44.93 120.073 44.98V49.36C120.073 49.74 119.993 49.995 119.833 50.125C119.673 50.255 119.373 50.32 118.933 50.32H112.633ZM111.238 43.42C110.998 43.42 110.803 43.405 110.653 43.375C110.513 43.345 110.403 43.29 110.323 43.21C110.243 43.12 110.188 43.01 110.158 42.88C110.128 42.74 110.113 42.565 110.113 42.355V37.135C110.113 37.085 110.133 37.045 110.173 37.015C110.213 36.975 110.258 36.955 110.308 36.955H110.953C111.003 36.955 111.043 36.975 111.073 37.015C111.113 37.055 111.133 37.095 111.133 37.135V39.385H115.513V37.15C115.513 37.1 115.528 37.055 115.558 37.015C115.598 36.975 115.643 36.955 115.693 36.955H116.338C116.388 36.955 116.433 36.975 116.473 37.015C116.513 37.045 116.533 37.085 116.533 37.135V42.46C116.533 42.84 116.453 43.095 116.293 43.225C116.133 43.355 115.833 43.42 115.393 43.42H111.238ZM112.543 47.44V49.06C112.543 49.21 112.568 49.305 112.618 49.345C112.668 49.395 112.763 49.42 112.903 49.42H118.678C118.818 49.42 118.913 49.395 118.963 49.345C119.013 49.305 119.038 49.21 119.038 49.06V47.44H112.543ZM111.133 40.27V42.175C111.133 42.325 111.158 42.425 111.208 42.475C111.258 42.515 111.353 42.535 111.493 42.535H115.153C115.293 42.535 115.388 42.515 115.438 42.475C115.488 42.425 115.513 42.325 115.513 42.175V40.27H111.133ZM120.073 43.78C120.073 43.92 120.003 43.99 119.863 43.99H119.248C119.108 43.99 119.038 43.92 119.038 43.78V36.82C119.038 36.68 119.108 36.61 119.248 36.61H119.863C120.003 36.61 120.073 36.68 120.073 36.82V39.985H122.143C122.203 39.985 122.253 40.005 122.293 40.045C122.343 40.075 122.368 40.12 122.368 40.18V40.69C122.368 40.74 122.343 40.785 122.293 40.825C122.253 40.865 122.203 40.885 122.143 40.885H120.073V43.78ZM130.94 44.725C130.94 45.135 130.855 45.515 130.685 45.865C130.525 46.215 130.3 46.525 130.01 46.795C129.72 47.055 129.375 47.26 128.975 47.41C128.575 47.56 128.145 47.635 127.685 47.635C127.215 47.635 126.78 47.56 126.38 47.41C125.99 47.26 125.65 47.055 125.36 46.795C125.07 46.535 124.84 46.23 124.67 45.88C124.51 45.52 124.43 45.135 124.43 44.725C124.43 44.305 124.51 43.92 124.67 43.57C124.84 43.21 125.07 42.9 125.36 42.64C125.65 42.38 125.99 42.175 126.38 42.025C126.78 41.875 127.215 41.8 127.685 41.8C128.145 41.8 128.575 41.88 128.975 42.04C129.375 42.19 129.72 42.395 130.01 42.655C130.3 42.915 130.525 43.225 130.685 43.585C130.855 43.945 130.94 44.325 130.94 44.725ZM134.18 50.23C134.18 50.37 134.11 50.44 133.97 50.44H133.355C133.215 50.44 133.145 50.37 133.145 50.23V36.82C133.145 36.68 133.215 36.61 133.355 36.61H133.97C134.11 36.61 134.18 36.68 134.18 36.82V42.355H136.25C136.31 42.355 136.36 42.375 136.4 42.415C136.45 42.445 136.475 42.49 136.475 42.55V43.06C136.475 43.11 136.45 43.155 136.4 43.195C136.36 43.235 136.31 43.255 136.25 43.255H134.18V50.23ZM129.92 44.725C129.92 44.435 129.865 44.165 129.755 43.915C129.645 43.665 129.49 43.45 129.29 43.27C129.09 43.08 128.85 42.935 128.57 42.835C128.3 42.725 128.005 42.67 127.685 42.67C127.365 42.67 127.065 42.725 126.785 42.835C126.515 42.935 126.28 43.08 126.08 43.27C125.88 43.45 125.72 43.665 125.6 43.915C125.49 44.165 125.435 44.435 125.435 44.725C125.435 45.015 125.49 45.285 125.6 45.535C125.72 45.775 125.88 45.99 126.08 46.18C126.28 46.36 126.515 46.505 126.785 46.615C127.065 46.715 127.365 46.765 127.685 46.765C128.005 46.765 128.3 46.715 128.57 46.615C128.85 46.505 129.09 46.36 129.29 46.18C129.49 46 129.645 45.785 129.755 45.535C129.865 45.285 129.92 45.015 129.92 44.725ZM132.065 40.54C132.065 40.67 131.99 40.735 131.84 40.735H123.56C123.51 40.735 123.46 40.715 123.41 40.675C123.37 40.635 123.35 40.585 123.35 40.525V40.045C123.35 39.985 123.37 39.935 123.41 39.895C123.46 39.855 123.51 39.835 123.56 39.835H131.84C131.99 39.835 132.065 39.9 132.065 40.03V40.54ZM129.875 37.99C129.875 38.13 129.8 38.2 129.65 38.2H125.54C125.49 38.2 125.44 38.185 125.39 38.155C125.35 38.115 125.33 38.065 125.33 38.005V37.495C125.33 37.435 125.35 37.385 125.39 37.345C125.43 37.305 125.475 37.285 125.525 37.285H129.65C129.8 37.285 129.875 37.355 129.875 37.495V37.99ZM148.811 50.23C148.811 50.37 148.741 50.44 148.601 50.44H147.986C147.846 50.44 147.776 50.37 147.776 50.23V36.82C147.776 36.68 147.846 36.61 147.986 36.61H148.601C148.741 36.61 148.811 36.68 148.811 36.82V50.23ZM144.791 38.815C144.741 39.675 144.571 40.52 144.281 41.35C143.991 42.18 143.586 42.975 143.066 43.735C142.556 44.485 141.936 45.185 141.206 45.835C140.486 46.475 139.666 47.04 138.746 47.53C138.616 47.6 138.521 47.585 138.461 47.485L138.131 46.96C138.061 46.84 138.081 46.755 138.191 46.705C139.041 46.265 139.791 45.765 140.441 45.205C141.101 44.635 141.661 44.02 142.121 43.36C142.591 42.7 142.961 42.005 143.231 41.275C143.501 40.545 143.671 39.795 143.741 39.025C143.761 38.875 143.741 38.775 143.681 38.725C143.621 38.665 143.521 38.635 143.381 38.635H138.611C138.491 38.635 138.431 38.57 138.431 38.44V37.915C138.431 37.795 138.491 37.735 138.611 37.735H143.666C144.136 37.735 144.446 37.825 144.596 38.005C144.746 38.175 144.811 38.445 144.791 38.815ZM163.672 40.87C163.672 41.29 163.597 41.685 163.447 42.055C163.297 42.425 163.087 42.755 162.817 43.045C162.547 43.325 162.227 43.56 161.857 43.75C161.487 43.94 161.082 44.065 160.642 44.125V46.72C160.992 46.7 161.362 46.675 161.752 46.645C162.152 46.605 162.547 46.565 162.937 46.525C163.337 46.485 163.722 46.44 164.092 46.39C164.462 46.34 164.792 46.285 165.082 46.225C165.242 46.195 165.327 46.23 165.337 46.33L165.427 46.855C165.447 46.975 165.382 47.045 165.232 47.065C164.902 47.125 164.542 47.185 164.152 47.245C163.762 47.295 163.357 47.345 162.937 47.395C162.527 47.435 162.112 47.475 161.692 47.515C161.272 47.555 160.862 47.585 160.462 47.605C160.172 47.625 159.822 47.64 159.412 47.65C159.012 47.66 158.597 47.67 158.167 47.68C157.747 47.68 157.337 47.68 156.937 47.68C156.537 47.68 156.197 47.675 155.917 47.665C155.857 47.665 155.802 47.645 155.752 47.605C155.712 47.565 155.692 47.52 155.692 47.47V46.96C155.692 46.9 155.712 46.855 155.752 46.825C155.802 46.785 155.857 46.765 155.917 46.765C156.127 46.775 156.377 46.785 156.667 46.795C156.967 46.795 157.282 46.795 157.612 46.795C157.942 46.795 158.277 46.79 158.617 46.78C158.967 46.77 159.297 46.76 159.607 46.75V44.14C159.157 44.09 158.742 43.97 158.362 43.78C157.992 43.59 157.672 43.355 157.402 43.075C157.132 42.785 156.917 42.455 156.757 42.085C156.607 41.705 156.532 41.3 156.532 40.87C156.532 40.35 156.622 39.885 156.802 39.475C156.982 39.065 157.227 38.72 157.537 38.44C157.857 38.16 158.232 37.945 158.662 37.795C159.102 37.645 159.572 37.57 160.072 37.57C160.552 37.57 161.007 37.645 161.437 37.795C161.877 37.945 162.262 38.165 162.592 38.455C162.922 38.735 163.182 39.08 163.372 39.49C163.572 39.9 163.672 40.36 163.672 40.87ZM162.622 40.855C162.622 40.475 162.552 40.145 162.412 39.865C162.272 39.575 162.082 39.335 161.842 39.145C161.612 38.945 161.342 38.795 161.032 38.695C160.722 38.595 160.402 38.545 160.072 38.545C159.722 38.545 159.397 38.595 159.097 38.695C158.797 38.795 158.532 38.945 158.302 39.145C158.082 39.335 157.907 39.575 157.777 39.865C157.647 40.155 157.582 40.485 157.582 40.855C157.582 41.215 157.642 41.54 157.762 41.83C157.892 42.11 158.067 42.355 158.287 42.565C158.507 42.765 158.767 42.92 159.067 43.03C159.377 43.14 159.712 43.195 160.072 43.195C160.402 43.195 160.722 43.14 161.032 43.03C161.342 42.91 161.612 42.745 161.842 42.535C162.082 42.325 162.272 42.08 162.412 41.8C162.552 41.51 162.622 41.195 162.622 40.855ZM167.122 50.23C167.122 50.37 167.052 50.44 166.912 50.44H166.297C166.157 50.44 166.087 50.37 166.087 50.23V36.82C166.087 36.68 166.157 36.61 166.297 36.61H166.912C167.052 36.61 167.122 36.68 167.122 36.82V50.23ZM175.648 47.17V44.56H172.648C172.178 44.56 171.868 44.475 171.718 44.305C171.578 44.125 171.508 43.825 171.508 43.405V41.53C171.508 41.1 171.593 40.815 171.763 40.675C171.943 40.535 172.258 40.465 172.708 40.465H179.473C179.613 40.465 179.698 40.445 179.728 40.405C179.768 40.365 179.788 40.27 179.788 40.12V38.56C179.788 38.41 179.768 38.315 179.728 38.275C179.698 38.235 179.613 38.215 179.473 38.215H171.718C171.668 38.215 171.618 38.2 171.568 38.17C171.528 38.14 171.508 38.1 171.508 38.05V37.48C171.508 37.43 171.528 37.39 171.568 37.36C171.618 37.33 171.668 37.315 171.718 37.315H179.638C179.878 37.315 180.073 37.335 180.223 37.375C180.373 37.405 180.493 37.46 180.583 37.54C180.673 37.62 180.733 37.735 180.763 37.885C180.803 38.025 180.823 38.2 180.823 38.41V40.285C180.823 40.715 180.733 41 180.553 41.14C180.383 41.28 180.073 41.35 179.623 41.35H172.858C172.718 41.35 172.628 41.37 172.588 41.41C172.558 41.45 172.543 41.545 172.543 41.695V43.315C172.543 43.455 172.563 43.55 172.603 43.6C172.643 43.64 172.733 43.66 172.873 43.66H180.928C180.978 43.66 181.023 43.675 181.063 43.705C181.113 43.735 181.138 43.775 181.138 43.825V44.38C181.138 44.43 181.113 44.475 181.063 44.515C181.023 44.545 180.983 44.56 180.943 44.56H176.683V47.17H182.578C182.628 47.17 182.678 47.19 182.728 47.23C182.778 47.26 182.803 47.305 182.803 47.365V47.875C182.803 47.925 182.778 47.97 182.728 48.01C182.678 48.05 182.628 48.07 182.578 48.07H169.828C169.768 48.07 169.713 48.05 169.663 48.01C169.623 47.97 169.603 47.925 169.603 47.875V47.365C169.603 47.305 169.623 47.26 169.663 47.23C169.713 47.19 169.768 47.17 169.828 47.17H175.648ZM191.795 39.325C191.795 39.685 191.705 40.015 191.525 40.315C191.345 40.615 191.095 40.875 190.775 41.095C190.465 41.315 190.1 41.485 189.68 41.605C189.27 41.725 188.835 41.785 188.375 41.785C187.925 41.785 187.495 41.725 187.085 41.605C186.675 41.485 186.315 41.32 186.005 41.11C185.705 40.89 185.465 40.63 185.285 40.33C185.105 40.02 185.015 39.685 185.015 39.325C185.015 38.925 185.105 38.57 185.285 38.26C185.465 37.95 185.705 37.69 186.005 37.48C186.315 37.27 186.675 37.115 187.085 37.015C187.495 36.905 187.925 36.85 188.375 36.85C188.805 36.85 189.225 36.905 189.635 37.015C190.045 37.115 190.41 37.27 190.73 37.48C191.05 37.69 191.305 37.95 191.495 38.26C191.695 38.57 191.795 38.925 191.795 39.325ZM196.595 50.275C196.535 50.405 196.45 50.445 196.34 50.395C195.72 50.115 195.175 49.785 194.705 49.405C194.235 49.025 193.865 48.58 193.595 48.07C193.365 48.5 193.055 48.9 192.665 49.27C192.275 49.64 191.81 49.985 191.27 50.305C191.12 50.385 190.965 50.385 190.805 50.305C190.245 50.025 189.775 49.705 189.395 49.345C189.015 48.985 188.715 48.59 188.495 48.16C187.965 49.03 187.045 49.78 185.735 50.41C185.585 50.48 185.485 50.465 185.435 50.365L185.105 49.855C185.085 49.815 185.085 49.765 185.105 49.705C185.125 49.655 185.165 49.62 185.225 49.6C186.235 49.17 186.96 48.68 187.4 48.13C187.85 47.57 188.05 46.92 188 46.18C188 46.05 188.05 45.985 188.15 45.985L188.87 46C188.98 46 189.035 46.06 189.035 46.18C189.035 46.39 189.02 46.59 188.99 46.78C189.07 47.33 189.275 47.835 189.605 48.295C189.945 48.745 190.385 49.085 190.925 49.315C190.975 49.335 191.015 49.345 191.045 49.345C191.075 49.355 191.115 49.345 191.165 49.315C191.775 48.925 192.25 48.465 192.59 47.935C192.93 47.395 193.095 46.805 193.085 46.165C193.085 46.115 193.095 46.07 193.115 46.03C193.145 45.98 193.19 45.955 193.25 45.955L193.955 45.97C194.065 45.97 194.12 46.03 194.12 46.15C194.12 46.25 194.115 46.35 194.105 46.45C194.095 46.54 194.08 46.63 194.06 46.72C194.1 47.02 194.195 47.31 194.345 47.59C194.495 47.87 194.69 48.135 194.93 48.385C195.17 48.625 195.445 48.845 195.755 49.045C196.065 49.255 196.4 49.425 196.76 49.555C196.89 49.605 196.92 49.695 196.85 49.825L196.595 50.275ZM190.805 39.31C190.805 39.03 190.73 38.79 190.58 38.59C190.43 38.39 190.24 38.225 190.01 38.095C189.78 37.965 189.52 37.875 189.23 37.825C188.94 37.765 188.655 37.735 188.375 37.735C188.085 37.735 187.8 37.765 187.52 37.825C187.24 37.885 186.985 37.98 186.755 38.11C186.535 38.23 186.355 38.39 186.215 38.59C186.075 38.79 186.005 39.03 186.005 39.31C186.005 39.58 186.07 39.815 186.2 40.015C186.34 40.215 186.52 40.385 186.74 40.525C186.96 40.655 187.21 40.755 187.49 40.825C187.78 40.885 188.075 40.915 188.375 40.915C188.655 40.915 188.94 40.88 189.23 40.81C189.52 40.74 189.78 40.64 190.01 40.51C190.24 40.37 190.43 40.2 190.58 40C190.73 39.8 190.805 39.57 190.805 39.31ZM194.3 43.93V36.82C194.3 36.68 194.37 36.61 194.51 36.61H195.125C195.265 36.61 195.335 36.68 195.335 36.82V45.37C195.335 45.51 195.265 45.58 195.125 45.58H194.51C194.37 45.58 194.3 45.51 194.3 45.37V44.8H191.285C191.155 44.8 191.09 44.74 191.09 44.62V44.11C191.09 43.99 191.155 43.93 191.285 43.93H194.3ZM188.075 45.43C188.025 45.43 187.98 45.41 187.94 45.37C187.9 45.32 187.88 45.265 187.88 45.205V43.495C187.59 43.515 187.28 43.53 186.95 43.54C186.62 43.55 186.295 43.56 185.975 43.57C185.655 43.58 185.35 43.585 185.06 43.585C184.77 43.585 184.515 43.58 184.295 43.57C184.235 43.57 184.18 43.55 184.13 43.51C184.09 43.47 184.07 43.425 184.07 43.375V42.865C184.07 42.805 184.09 42.76 184.13 42.73C184.18 42.69 184.235 42.67 184.295 42.67C184.575 42.67 184.905 42.67 185.285 42.67C185.665 42.66 186.055 42.65 186.455 42.64C186.865 42.63 187.26 42.62 187.64 42.61C188.02 42.59 188.355 42.57 188.645 42.55C188.965 42.53 189.32 42.505 189.71 42.475C190.1 42.435 190.49 42.395 190.88 42.355C191.28 42.315 191.67 42.275 192.05 42.235C192.43 42.185 192.77 42.13 193.07 42.07C193.12 42.06 193.165 42.07 193.205 42.1C193.255 42.12 193.285 42.15 193.295 42.19L193.37 42.7C193.38 42.82 193.32 42.895 193.19 42.925C192.53 43.035 191.84 43.13 191.12 43.21C190.41 43.29 189.675 43.36 188.915 43.42V45.205C188.915 45.265 188.895 45.32 188.855 45.37C188.825 45.41 188.78 45.43 188.72 45.43H188.075ZM209.171 41.56C209.171 41.62 209.146 41.665 209.096 41.695C209.046 41.725 208.996 41.74 208.946 41.74H201.161C200.691 41.74 200.381 41.645 200.231 41.455C200.091 41.255 200.021 40.95 200.021 40.54V37.075C200.021 36.935 200.091 36.865 200.231 36.865H200.846C200.986 36.865 201.056 36.935 201.056 37.075V40.51C201.056 40.65 201.076 40.74 201.116 40.78C201.166 40.82 201.261 40.84 201.401 40.84H208.946C208.996 40.84 209.046 40.86 209.096 40.9C209.146 40.93 209.171 40.97 209.171 41.02V41.56ZM209.396 49.99C209.396 50.05 209.371 50.095 209.321 50.125C209.271 50.155 209.221 50.17 209.171 50.17H201.026C200.556 50.17 200.246 50.07 200.096 49.87C199.956 49.68 199.886 49.38 199.886 48.97V46.045C199.886 45.905 199.956 45.835 200.096 45.835H200.711C200.851 45.835 200.921 45.905 200.921 46.045V48.955C200.921 49.095 200.941 49.18 200.981 49.21C201.031 49.25 201.126 49.27 201.266 49.27H209.171C209.221 49.27 209.271 49.285 209.321 49.315C209.371 49.355 209.396 49.4 209.396 49.45V49.99ZM210.791 43.75C210.841 43.75 210.891 43.77 210.941 43.81C210.991 43.84 211.016 43.885 211.016 43.945V44.455C211.016 44.505 210.991 44.55 210.941 44.59C210.891 44.63 210.841 44.65 210.791 44.65H198.041C197.981 44.65 197.926 44.63 197.876 44.59C197.836 44.55 197.816 44.505 197.816 44.455V43.945C197.816 43.885 197.836 43.84 197.876 43.81C197.926 43.77 197.981 43.75 198.041 43.75H210.791ZM219.438 45.805C219.458 45.945 219.393 46.03 219.243 46.06C218.893 46.14 218.503 46.215 218.073 46.285C217.653 46.345 217.208 46.395 216.738 46.435C216.278 46.465 215.803 46.49 215.313 46.51C214.833 46.52 214.358 46.52 213.888 46.51C213.438 46.5 213.128 46.395 212.958 46.195C212.798 45.995 212.718 45.685 212.718 45.265V38.92C212.718 38.5 212.798 38.22 212.958 38.08C213.118 37.94 213.418 37.87 213.858 37.87H218.118C218.248 37.87 218.313 37.93 218.313 38.05V38.59C218.313 38.71 218.248 38.77 218.118 38.77H214.053C213.913 38.77 213.828 38.79 213.798 38.83C213.768 38.86 213.753 38.95 213.753 39.1V45.19C213.753 45.34 213.778 45.44 213.828 45.49C213.878 45.54 213.973 45.57 214.113 45.58C214.983 45.61 215.833 45.595 216.663 45.535C217.493 45.475 218.298 45.36 219.078 45.19C219.238 45.16 219.333 45.215 219.363 45.355L219.438 45.805ZM220.398 41.665V37.075C220.398 36.935 220.468 36.865 220.608 36.865H221.178C221.318 36.865 221.388 36.935 221.388 37.075V49.66C221.388 49.8 221.318 49.87 221.178 49.87H220.608C220.468 49.87 220.398 49.8 220.398 49.66V42.565H217.248C217.118 42.565 217.053 42.505 217.053 42.385V41.845C217.053 41.725 217.118 41.665 217.248 41.665H220.398ZM224.043 50.23C224.043 50.37 223.973 50.44 223.833 50.44H223.263C223.123 50.44 223.053 50.37 223.053 50.23V36.82C223.053 36.68 223.123 36.61 223.263 36.61H223.833C223.973 36.61 224.043 36.68 224.043 36.82V50.23ZM241.858 50.23C241.858 50.37 241.788 50.44 241.648 50.44H241.033C240.893 50.44 240.823 50.37 240.823 50.23V42.76H238.138C238.108 43.29 238.013 43.815 237.853 44.335C237.703 44.855 237.483 45.325 237.193 45.745C236.903 46.155 236.538 46.49 236.098 46.75C235.668 47.01 235.153 47.14 234.553 47.14C233.893 47.14 233.333 46.995 232.873 46.705C232.423 46.415 232.058 46.04 231.778 45.58C231.508 45.11 231.313 44.59 231.193 44.02C231.073 43.45 231.013 42.885 231.013 42.325C231.013 41.735 231.073 41.155 231.193 40.585C231.313 40.005 231.508 39.485 231.778 39.025C232.058 38.565 232.423 38.195 232.873 37.915C233.333 37.635 233.893 37.495 234.553 37.495C235.153 37.495 235.668 37.62 236.098 37.87C236.538 38.11 236.903 38.435 237.193 38.845C237.483 39.255 237.703 39.725 237.853 40.255C238.013 40.775 238.108 41.31 238.138 41.86H240.823V36.82C240.823 36.68 240.893 36.61 241.033 36.61H241.648C241.788 36.61 241.858 36.68 241.858 36.82V50.23ZM237.088 42.31C237.088 41.86 237.038 41.405 236.938 40.945C236.848 40.485 236.703 40.07 236.503 39.7C236.303 39.33 236.043 39.03 235.723 38.8C235.403 38.57 235.013 38.455 234.553 38.455C234.073 38.455 233.673 38.57 233.353 38.8C233.043 39.03 232.793 39.33 232.603 39.7C232.413 40.07 232.278 40.485 232.198 40.945C232.118 41.405 232.078 41.86 232.078 42.31C232.078 42.74 232.113 43.185 232.183 43.645C232.263 44.105 232.398 44.525 232.588 44.905C232.778 45.275 233.033 45.58 233.353 45.82C233.673 46.06 234.073 46.18 234.553 46.18C235.013 46.18 235.403 46.06 235.723 45.82C236.043 45.58 236.303 45.275 236.503 44.905C236.703 44.525 236.848 44.105 236.938 43.645C237.038 43.185 237.088 42.74 237.088 42.31ZM257.315 47.17C257.365 47.17 257.415 47.19 257.465 47.23C257.515 47.26 257.54 47.305 257.54 47.365V47.875C257.54 47.925 257.515 47.97 257.465 48.01C257.415 48.05 257.365 48.07 257.315 48.07H244.565C244.505 48.07 244.45 48.05 244.4 48.01C244.36 47.97 244.34 47.925 244.34 47.875V47.365C244.34 47.305 244.36 47.26 244.4 47.23C244.45 47.19 244.505 47.17 244.565 47.17H257.315ZM247.4 44.23C247.16 44.23 246.965 44.215 246.815 44.185C246.675 44.155 246.565 44.1 246.485 44.02C246.405 43.93 246.35 43.82 246.32 43.69C246.29 43.55 246.275 43.375 246.275 43.165V37.39C246.275 37.34 246.295 37.3 246.335 37.27C246.375 37.23 246.42 37.21 246.47 37.21H247.115C247.165 37.21 247.205 37.23 247.235 37.27C247.275 37.31 247.295 37.35 247.295 37.39V39.85H254.51V37.405C254.51 37.355 254.525 37.31 254.555 37.27C254.595 37.23 254.64 37.21 254.69 37.21H255.335C255.385 37.21 255.43 37.23 255.47 37.27C255.51 37.3 255.53 37.34 255.53 37.39V43.27C255.53 43.65 255.45 43.905 255.29 44.035C255.13 44.165 254.83 44.23 254.39 44.23H247.4ZM247.295 40.735V42.985C247.295 43.135 247.32 43.235 247.37 43.285C247.42 43.325 247.515 43.345 247.655 43.345H254.15C254.29 43.345 254.385 43.325 254.435 43.285C254.485 43.235 254.51 43.135 254.51 42.985V40.735H247.295ZM264.491 47.17V44.56H261.491C261.021 44.56 260.711 44.475 260.561 44.305C260.421 44.125 260.351 43.825 260.351 43.405V41.53C260.351 41.1 260.436 40.815 260.606 40.675C260.786 40.535 261.101 40.465 261.551 40.465H268.316C268.456 40.465 268.541 40.445 268.571 40.405C268.611 40.365 268.631 40.27 268.631 40.12V38.56C268.631 38.41 268.611 38.315 268.571 38.275C268.541 38.235 268.456 38.215 268.316 38.215H260.561C260.511 38.215 260.461 38.2 260.411 38.17C260.371 38.14 260.351 38.1 260.351 38.05V37.48C260.351 37.43 260.371 37.39 260.411 37.36C260.461 37.33 260.511 37.315 260.561 37.315H268.481C268.721 37.315 268.916 37.335 269.066 37.375C269.216 37.405 269.336 37.46 269.426 37.54C269.516 37.62 269.576 37.735 269.606 37.885C269.646 38.025 269.666 38.2 269.666 38.41V40.285C269.666 40.715 269.576 41 269.396 41.14C269.226 41.28 268.916 41.35 268.466 41.35H261.701C261.561 41.35 261.471 41.37 261.431 41.41C261.401 41.45 261.386 41.545 261.386 41.695V43.315C261.386 43.455 261.406 43.55 261.446 43.6C261.486 43.64 261.576 43.66 261.716 43.66H269.771C269.821 43.66 269.866 43.675 269.906 43.705C269.956 43.735 269.981 43.775 269.981 43.825V44.38C269.981 44.43 269.956 44.475 269.906 44.515C269.866 44.545 269.826 44.56 269.786 44.56H265.526V47.17H271.421C271.471 47.17 271.521 47.19 271.571 47.23C271.621 47.26 271.646 47.305 271.646 47.365V47.875C271.646 47.925 271.621 47.97 271.571 48.01C271.521 48.05 271.471 48.07 271.421 48.07H258.671C258.611 48.07 258.556 48.05 258.506 48.01C258.466 47.97 258.446 47.925 258.446 47.875V47.365C258.446 47.305 258.466 47.26 258.506 47.23C258.556 47.19 258.611 47.17 258.671 47.17H264.491ZM285.528 47.17C285.578 47.17 285.628 47.19 285.678 47.23C285.728 47.26 285.753 47.305 285.753 47.365V47.875C285.753 47.925 285.728 47.97 285.678 48.01C285.628 48.05 285.578 48.07 285.528 48.07H272.778C272.718 48.07 272.663 48.05 272.613 48.01C272.573 47.97 272.553 47.925 272.553 47.875V47.365C272.553 47.305 272.573 47.26 272.613 47.23C272.663 47.19 272.718 47.17 272.778 47.17H285.528ZM283.893 43.84C283.893 43.98 283.828 44.05 283.698 44.05H275.598C275.158 44.05 274.858 43.98 274.698 43.84C274.538 43.69 274.458 43.405 274.458 42.985V38.65C274.458 38.23 274.538 37.95 274.698 37.81C274.858 37.66 275.158 37.585 275.598 37.585H283.593C283.723 37.585 283.788 37.65 283.788 37.78V38.275C283.788 38.415 283.723 38.485 283.593 38.485H275.853C275.713 38.485 275.618 38.515 275.568 38.575C275.518 38.625 275.493 38.725 275.493 38.875V42.76C275.493 42.9 275.518 43 275.568 43.06C275.618 43.12 275.713 43.15 275.853 43.15H283.698C283.828 43.15 283.893 43.215 283.893 43.345V43.84ZM299.728 43.21C299.758 43.35 299.693 43.435 299.533 43.465C299.153 43.525 298.703 43.58 298.183 43.63C297.663 43.68 297.118 43.725 296.548 43.765C295.988 43.795 295.418 43.815 294.838 43.825C294.268 43.835 293.738 43.835 293.248 43.825C292.798 43.815 292.488 43.71 292.318 43.51C292.158 43.31 292.078 43 292.078 42.58V38.38C292.078 37.96 292.158 37.68 292.318 37.54C292.478 37.4 292.778 37.33 293.218 37.33H298.273C298.403 37.33 298.468 37.39 298.468 37.51V38.05C298.468 38.17 298.403 38.23 298.273 38.23H293.413C293.273 38.23 293.188 38.25 293.158 38.29C293.128 38.32 293.113 38.41 293.113 38.56V42.505C293.113 42.655 293.138 42.755 293.188 42.805C293.238 42.855 293.333 42.885 293.473 42.895C294.433 42.925 295.423 42.915 296.443 42.865C297.463 42.805 298.448 42.71 299.398 42.58C299.498 42.56 299.563 42.57 299.593 42.61C299.633 42.64 299.658 42.685 299.668 42.745L299.728 43.21ZM293.743 45.61C293.743 45.55 293.768 45.505 293.818 45.475C293.868 45.445 293.918 45.43 293.968 45.43H301.348C301.818 45.43 302.123 45.52 302.263 45.7C302.413 45.87 302.488 46.16 302.488 46.57V50.29C302.488 50.43 302.418 50.5 302.278 50.5H301.663C301.523 50.5 301.453 50.43 301.453 50.29V46.645C301.453 46.505 301.428 46.42 301.378 46.39C301.338 46.35 301.248 46.33 301.108 46.33H293.968C293.918 46.33 293.868 46.315 293.818 46.285C293.768 46.245 293.743 46.2 293.743 46.15V45.61ZM301.453 39.925V36.82C301.453 36.68 301.523 36.61 301.663 36.61H302.278C302.418 36.61 302.488 36.68 302.488 36.82V44.38C302.488 44.52 302.418 44.59 302.278 44.59H301.663C301.523 44.59 301.453 44.52 301.453 44.38V40.825H297.538C297.408 40.825 297.343 40.765 297.343 40.645V40.105C297.343 39.985 297.408 39.925 297.538 39.925H301.453ZM308.27 42.16C308.03 42.16 307.835 42.145 307.685 42.115C307.545 42.085 307.435 42.03 307.355 41.95C307.275 41.86 307.22 41.75 307.19 41.62C307.16 41.48 307.145 41.305 307.145 41.095V37C307.145 36.95 307.165 36.91 307.205 36.88C307.245 36.84 307.29 36.82 307.34 36.82H307.985C308.035 36.82 308.075 36.84 308.105 36.88C308.145 36.92 308.165 36.96 308.165 37V38.545H314.975V37.015C314.975 36.965 314.99 36.92 315.02 36.88C315.06 36.84 315.105 36.82 315.155 36.82H315.8C315.85 36.82 315.895 36.84 315.935 36.88C315.975 36.91 315.995 36.95 315.995 37V41.2C315.995 41.58 315.915 41.835 315.755 41.965C315.595 42.095 315.295 42.16 314.855 42.16H308.27ZM311.345 47.725C311.295 47.725 311.25 47.705 311.21 47.665C311.17 47.615 311.15 47.56 311.15 47.5V44.53H305.195C305.135 44.53 305.08 44.51 305.03 44.47C304.99 44.43 304.97 44.385 304.97 44.335V43.825C304.97 43.765 304.99 43.72 305.03 43.69C305.08 43.65 305.135 43.63 305.195 43.63H317.945C317.995 43.63 318.045 43.65 318.095 43.69C318.145 43.72 318.17 43.765 318.17 43.825V44.335C318.17 44.385 318.145 44.43 318.095 44.47C318.045 44.51 317.995 44.53 317.945 44.53H312.185V47.5C312.185 47.56 312.165 47.615 312.125 47.665C312.095 47.705 312.05 47.725 311.99 47.725H311.345ZM308.165 39.43V40.915C308.165 41.065 308.19 41.165 308.24 41.215C308.29 41.255 308.385 41.275 308.525 41.275H314.615C314.755 41.275 314.85 41.255 314.9 41.215C314.95 41.165 314.975 41.065 314.975 40.915V39.43H308.165ZM316.55 49.99C316.55 50.05 316.525 50.095 316.475 50.125C316.425 50.155 316.375 50.17 316.325 50.17H308.06C307.59 50.17 307.28 50.07 307.13 49.87C306.99 49.68 306.92 49.38 306.92 48.97V46.195C306.92 46.055 306.99 45.985 307.13 45.985H307.745C307.885 45.985 307.955 46.055 307.955 46.195V48.955C307.955 49.095 307.975 49.18 308.015 49.21C308.065 49.25 308.16 49.27 308.3 49.27H316.325C316.375 49.27 316.425 49.285 316.475 49.315C316.525 49.355 316.55 49.4 316.55 49.45V49.99ZM328.541 49.66C328.541 49.8 328.471 49.87 328.331 49.87H327.761C327.621 49.87 327.551 49.8 327.551 49.66V42.67H325.856C325.816 43.36 325.706 43.965 325.526 44.485C325.346 44.995 325.111 45.425 324.821 45.775C324.531 46.115 324.196 46.37 323.816 46.54C323.446 46.71 323.051 46.795 322.631 46.795C322.181 46.795 321.766 46.7 321.386 46.51C321.006 46.31 320.676 46.02 320.396 45.64C320.116 45.25 319.896 44.765 319.736 44.185C319.576 43.605 319.496 42.925 319.496 42.145C319.496 41.365 319.576 40.69 319.736 40.12C319.896 39.54 320.116 39.06 320.396 38.68C320.686 38.29 321.021 38.005 321.401 37.825C321.781 37.635 322.196 37.54 322.646 37.54C323.076 37.54 323.476 37.625 323.846 37.795C324.226 37.965 324.561 38.225 324.851 38.575C325.141 38.925 325.371 39.365 325.541 39.895C325.721 40.425 325.826 41.05 325.856 41.77H327.551V37.075C327.551 36.935 327.621 36.865 327.761 36.865H328.331C328.471 36.865 328.541 36.935 328.541 37.075V49.66ZM324.821 42.145C324.821 41.685 324.776 41.235 324.686 40.795C324.596 40.355 324.461 39.96 324.281 39.61C324.101 39.26 323.871 38.98 323.591 38.77C323.321 38.55 323.001 38.44 322.631 38.44C322.241 38.44 321.911 38.55 321.641 38.77C321.381 38.99 321.166 39.28 320.996 39.64C320.836 39.99 320.721 40.385 320.651 40.825C320.581 41.265 320.546 41.705 320.546 42.145C320.546 42.585 320.586 43.03 320.666 43.48C320.746 43.92 320.866 44.32 321.026 44.68C321.196 45.04 321.411 45.335 321.671 45.565C321.941 45.785 322.261 45.895 322.631 45.895C323.001 45.895 323.321 45.785 323.591 45.565C323.871 45.345 324.101 45.06 324.281 44.71C324.461 44.35 324.596 43.945 324.686 43.495C324.776 43.045 324.821 42.595 324.821 42.145ZM331.196 50.23C331.196 50.37 331.126 50.44 330.986 50.44H330.416C330.276 50.44 330.206 50.37 330.206 50.23V36.82C330.206 36.68 330.276 36.61 330.416 36.61H330.986C331.126 36.61 331.196 36.68 331.196 36.82V50.23ZM348.487 47.83C348.487 47.96 348.422 48.025 348.292 48.025H341.122V49.225C341.122 49.365 341.147 49.465 341.197 49.525C341.247 49.585 341.342 49.615 341.482 49.615H348.622C348.752 49.615 348.817 49.68 348.817 49.81V50.275C348.817 50.415 348.752 50.485 348.622 50.485H341.212C340.772 50.485 340.472 50.41 340.312 50.26C340.152 50.12 340.072 49.84 340.072 49.42V45.79C340.072 45.37 340.152 45.09 340.312 44.95C340.472 44.8 340.772 44.725 341.212 44.725H348.367C348.497 44.725 348.562 44.79 348.562 44.92V45.385C348.562 45.525 348.497 45.595 348.367 45.595H341.482C341.342 45.595 341.247 45.625 341.197 45.685C341.147 45.735 341.122 45.835 341.122 45.985V47.17H348.277C348.417 47.17 348.487 47.225 348.487 47.335V47.83ZM344.647 38.2C344.527 38.86 344.327 39.47 344.047 40.03C343.767 40.59 343.382 41.12 342.892 41.62C342.412 42.12 341.817 42.595 341.107 43.045C340.397 43.485 339.552 43.915 338.572 44.335C338.412 44.405 338.302 44.375 338.242 44.245L338.017 43.75C337.977 43.67 337.972 43.605 338.002 43.555C338.042 43.505 338.087 43.47 338.137 43.45C341.367 42.12 343.162 40.46 343.522 38.47C343.582 38.18 343.462 38.035 343.162 38.035H338.542C338.422 38.035 338.362 37.97 338.362 37.84V37.315C338.362 37.195 338.422 37.135 338.542 37.135H343.507C343.987 37.135 344.312 37.22 344.482 37.39C344.662 37.56 344.717 37.83 344.647 38.2ZM348.487 43.765C348.487 43.905 348.417 43.975 348.277 43.975H347.662C347.522 43.975 347.452 43.905 347.452 43.765V36.82C347.452 36.68 347.522 36.61 347.662 36.61H348.277C348.417 36.61 348.487 36.68 348.487 36.82V39.865H350.557C350.617 39.865 350.667 39.885 350.707 39.925C350.757 39.955 350.782 40 350.782 40.06V40.57C350.782 40.62 350.757 40.665 350.707 40.705C350.667 40.745 350.617 40.765 350.557 40.765H348.487V43.765ZM359.608 42.325C359.608 42.885 359.538 43.45 359.398 44.02C359.268 44.59 359.058 45.105 358.768 45.565C358.478 46.025 358.103 46.405 357.643 46.705C357.193 46.995 356.648 47.14 356.008 47.14C355.348 47.14 354.788 46.995 354.328 46.705C353.878 46.415 353.513 46.04 353.233 45.58C352.963 45.11 352.768 44.59 352.648 44.02C352.528 43.45 352.468 42.885 352.468 42.325C352.468 41.735 352.528 41.155 352.648 40.585C352.768 40.005 352.963 39.485 353.233 39.025C353.513 38.565 353.878 38.195 354.328 37.915C354.788 37.635 355.348 37.495 356.008 37.495C356.648 37.495 357.193 37.635 357.643 37.915C358.103 38.195 358.478 38.565 358.768 39.025C359.058 39.475 359.268 39.99 359.398 40.57C359.538 41.14 359.608 41.725 359.608 42.325ZM358.543 42.31C358.543 41.85 358.493 41.385 358.393 40.915C358.303 40.445 358.158 40.025 357.958 39.655C357.758 39.275 357.498 38.97 357.178 38.74C356.858 38.5 356.468 38.38 356.008 38.38C355.528 38.38 355.128 38.5 354.808 38.74C354.498 38.97 354.248 39.275 354.058 39.655C353.868 40.025 353.733 40.445 353.653 40.915C353.573 41.385 353.533 41.85 353.533 42.31C353.533 42.75 353.568 43.205 353.638 43.675C353.718 44.135 353.853 44.56 354.043 44.95C354.233 45.33 354.488 45.645 354.808 45.895C355.128 46.135 355.528 46.255 356.008 46.255C356.468 46.255 356.858 46.135 357.178 45.895C357.498 45.645 357.758 45.33 357.958 44.95C358.158 44.56 358.303 44.135 358.393 43.675C358.493 43.205 358.543 42.75 358.543 42.31ZM363.118 50.23C363.118 50.37 363.048 50.44 362.908 50.44H362.293C362.153 50.44 362.083 50.37 362.083 50.23V36.82C362.083 36.68 362.153 36.61 362.293 36.61H362.908C363.048 36.61 363.118 36.68 363.118 36.82V50.23ZM373.464 50.32C373.224 50.32 373.029 50.305 372.879 50.275C372.739 50.245 372.629 50.185 372.549 50.095C372.469 50.015 372.414 49.905 372.384 49.765C372.354 49.635 372.339 49.465 372.339 49.255V44.95C372.339 44.9 372.359 44.86 372.399 44.83C372.439 44.8 372.484 44.785 372.534 44.785H373.194C373.244 44.785 373.284 44.805 373.314 44.845C373.354 44.875 373.374 44.91 373.374 44.95V46.54H379.869V44.995C379.869 44.945 379.884 44.9 379.914 44.86C379.954 44.82 379.999 44.8 380.049 44.8H380.709C380.759 44.8 380.804 44.82 380.844 44.86C380.884 44.89 380.904 44.93 380.904 44.98V49.36C380.904 49.74 380.824 49.995 380.664 50.125C380.504 50.255 380.204 50.32 379.764 50.32H373.464ZM372.069 43.42C371.829 43.42 371.634 43.405 371.484 43.375C371.344 43.345 371.234 43.29 371.154 43.21C371.074 43.12 371.019 43.01 370.989 42.88C370.959 42.74 370.944 42.565 370.944 42.355V37.135C370.944 37.085 370.964 37.045 371.004 37.015C371.044 36.975 371.089 36.955 371.139 36.955H371.784C371.834 36.955 371.874 36.975 371.904 37.015C371.944 37.055 371.964 37.095 371.964 37.135V39.385H376.344V37.15C376.344 37.1 376.359 37.055 376.389 37.015C376.429 36.975 376.474 36.955 376.524 36.955H377.169C377.219 36.955 377.264 36.975 377.304 37.015C377.344 37.045 377.364 37.085 377.364 37.135V42.46C377.364 42.84 377.284 43.095 377.124 43.225C376.964 43.355 376.664 43.42 376.224 43.42H372.069ZM373.374 47.44V49.06C373.374 49.21 373.399 49.305 373.449 49.345C373.499 49.395 373.594 49.42 373.734 49.42H379.509C379.649 49.42 379.744 49.395 379.794 49.345C379.844 49.305 379.869 49.21 379.869 49.06V47.44H373.374ZM371.964 40.27V42.175C371.964 42.325 371.989 42.425 372.039 42.475C372.089 42.515 372.184 42.535 372.324 42.535H375.984C376.124 42.535 376.219 42.515 376.269 42.475C376.319 42.425 376.344 42.325 376.344 42.175V40.27H371.964ZM380.904 43.78C380.904 43.92 380.834 43.99 380.694 43.99H380.079C379.939 43.99 379.869 43.92 379.869 43.78V36.82C379.869 36.68 379.939 36.61 380.079 36.61H380.694C380.834 36.61 380.904 36.68 380.904 36.82V39.985H382.974C383.034 39.985 383.084 40.005 383.124 40.045C383.174 40.075 383.199 40.12 383.199 40.18V40.69C383.199 40.74 383.174 40.785 383.124 40.825C383.084 40.865 383.034 40.885 382.974 40.885H380.904V43.78ZM385.125 38.395C385.125 37.975 385.205 37.695 385.365 37.555C385.525 37.405 385.825 37.33 386.265 37.33H390.39C390.63 37.33 390.82 37.345 390.96 37.375C391.11 37.405 391.225 37.46 391.305 37.54C391.395 37.62 391.455 37.73 391.485 37.87C391.515 38.01 391.53 38.185 391.53 38.395V40.09H394.5V36.82C394.5 36.68 394.57 36.61 394.71 36.61H395.325C395.465 36.61 395.535 36.68 395.535 36.82V44.455C395.535 44.595 395.465 44.665 395.325 44.665H394.71C394.57 44.665 394.5 44.595 394.5 44.455V40.99H391.53V42.73C391.53 43.15 391.45 43.435 391.29 43.585C391.13 43.725 390.83 43.795 390.39 43.795H386.265C386.025 43.795 385.83 43.78 385.68 43.75C385.54 43.72 385.425 43.665 385.335 43.585C385.255 43.495 385.2 43.385 385.17 43.255C385.14 43.115 385.125 42.94 385.125 42.73V38.395ZM386.52 38.23C386.38 38.23 386.285 38.26 386.235 38.32C386.185 38.37 386.16 38.47 386.16 38.62V42.505C386.16 42.655 386.185 42.76 386.235 42.82C386.285 42.87 386.38 42.895 386.52 42.895H390.135C390.275 42.895 390.37 42.87 390.42 42.82C390.47 42.76 390.495 42.655 390.495 42.505V38.62C390.495 38.47 390.47 38.37 390.42 38.32C390.37 38.26 390.275 38.23 390.135 38.23H386.52ZM386.79 45.61C386.79 45.55 386.815 45.505 386.865 45.475C386.915 45.445 386.965 45.43 387.015 45.43H394.395C394.865 45.43 395.17 45.52 395.31 45.7C395.46 45.87 395.535 46.16 395.535 46.57V50.29C395.535 50.43 395.465 50.5 395.325 50.5H394.71C394.57 50.5 394.5 50.43 394.5 50.29V46.645C394.5 46.505 394.475 46.42 394.425 46.39C394.385 46.35 394.295 46.33 394.155 46.33H387.015C386.965 46.33 386.915 46.315 386.865 46.285C386.815 46.245 386.79 46.2 386.79 46.15V45.61ZM409.371 41.56C409.371 41.62 409.346 41.665 409.296 41.695C409.246 41.725 409.196 41.74 409.146 41.74H401.361C400.891 41.74 400.581 41.645 400.431 41.455C400.291 41.255 400.221 40.95 400.221 40.54V37.075C400.221 36.935 400.291 36.865 400.431 36.865H401.046C401.186 36.865 401.256 36.935 401.256 37.075V40.51C401.256 40.65 401.276 40.74 401.316 40.78C401.366 40.82 401.461 40.84 401.601 40.84H409.146C409.196 40.84 409.246 40.86 409.296 40.9C409.346 40.93 409.371 40.97 409.371 41.02V41.56ZM409.596 49.99C409.596 50.05 409.571 50.095 409.521 50.125C409.471 50.155 409.421 50.17 409.371 50.17H401.226C400.756 50.17 400.446 50.07 400.296 49.87C400.156 49.68 400.086 49.38 400.086 48.97V46.045C400.086 45.905 400.156 45.835 400.296 45.835H400.911C401.051 45.835 401.121 45.905 401.121 46.045V48.955C401.121 49.095 401.141 49.18 401.181 49.21C401.231 49.25 401.326 49.27 401.466 49.27H409.371C409.421 49.27 409.471 49.285 409.521 49.315C409.571 49.355 409.596 49.4 409.596 49.45V49.99ZM410.991 43.75C411.041 43.75 411.091 43.77 411.141 43.81C411.191 43.84 411.216 43.885 411.216 43.945V44.455C411.216 44.505 411.191 44.55 411.141 44.59C411.091 44.63 411.041 44.65 410.991 44.65H398.241C398.181 44.65 398.126 44.63 398.076 44.59C398.036 44.55 398.016 44.505 398.016 44.455V43.945C398.016 43.885 398.036 43.84 398.076 43.81C398.126 43.77 398.181 43.75 398.241 43.75H410.991ZM424.832 44.965C424.802 45.035 424.762 45.08 424.712 45.1C424.672 45.12 424.607 45.11 424.517 45.07C423.997 44.83 423.477 44.545 422.957 44.215C422.447 43.885 421.957 43.51 421.487 43.09C420.437 44.05 419.187 44.85 417.737 45.49C417.687 45.51 417.637 45.525 417.587 45.535C417.537 45.535 417.497 45.51 417.467 45.46L417.197 44.92C417.167 44.87 417.162 44.82 417.182 44.77C417.212 44.72 417.252 44.685 417.302 44.665C418.442 44.125 419.462 43.49 420.362 42.76C421.272 42.03 422.037 41.19 422.657 40.24C422.737 40.11 422.747 40.015 422.687 39.955C422.637 39.885 422.542 39.85 422.402 39.85H417.857C417.737 39.85 417.677 39.785 417.677 39.655V39.13C417.677 39.01 417.737 38.95 417.857 38.95H422.807C423.327 38.95 423.677 39.05 423.857 39.25C424.047 39.45 424.027 39.76 423.797 40.18C423.337 40.99 422.792 41.735 422.162 42.415C422.592 42.815 423.047 43.17 423.527 43.48C424.017 43.78 424.497 44.025 424.967 44.215C425.027 44.235 425.067 44.275 425.087 44.335C425.107 44.385 425.107 44.435 425.087 44.485L424.832 44.965ZM428.417 49.99C428.417 50.05 428.392 50.095 428.342 50.125C428.292 50.155 428.242 50.17 428.192 50.17H420.602C420.132 50.17 419.822 50.08 419.672 49.9C419.532 49.73 419.462 49.44 419.462 49.03V46.585C419.462 46.445 419.532 46.375 419.672 46.375H420.287C420.427 46.375 420.497 46.445 420.497 46.585V48.955C420.497 49.095 420.517 49.18 420.557 49.21C420.607 49.25 420.702 49.27 420.842 49.27H428.192C428.242 49.27 428.292 49.285 428.342 49.315C428.392 49.355 428.417 49.4 428.417 49.45V49.99ZM427.952 46.645C427.952 46.785 427.882 46.855 427.742 46.855H427.127C426.987 46.855 426.917 46.785 426.917 46.645V36.82C426.917 36.68 426.987 36.61 427.127 36.61H427.742C427.882 36.61 427.952 36.68 427.952 36.82V46.645ZM422.522 36.985C422.672 36.985 422.747 37.055 422.747 37.195V37.675C422.747 37.825 422.672 37.9 422.522 37.9H419.132C418.982 37.9 418.907 37.825 418.907 37.675V37.195C418.907 37.055 418.982 36.985 419.132 36.985H422.522ZM432.248 37.21C432.248 37.15 432.273 37.105 432.323 37.075C432.373 37.045 432.423 37.03 432.473 37.03H440.408C440.648 37.03 440.838 37.055 440.978 37.105C441.128 37.155 441.243 37.23 441.323 37.33C441.403 37.42 441.458 37.54 441.488 37.69C441.528 37.84 441.548 38.02 441.548 38.23C441.568 39.01 441.518 39.805 441.398 40.615C441.288 41.425 441.133 42.3 440.933 43.24H443.408C443.458 43.24 443.508 43.26 443.558 43.3C443.608 43.33 443.633 43.375 443.633 43.435V43.945C443.633 43.995 443.608 44.04 443.558 44.08C443.508 44.12 443.458 44.14 443.408 44.14H437.513V50.125C437.513 50.185 437.493 50.235 437.453 50.275C437.423 50.325 437.378 50.35 437.318 50.35H436.673C436.623 50.35 436.578 50.325 436.538 50.275C436.498 50.235 436.478 50.185 436.478 50.125V44.14H430.658C430.598 44.14 430.543 44.12 430.493 44.08C430.453 44.04 430.433 43.995 430.433 43.945V43.435C430.433 43.375 430.453 43.33 430.493 43.3C430.543 43.26 430.598 43.24 430.658 43.24H439.913C440.013 42.85 440.108 42.425 440.198 41.965C440.288 41.505 440.358 41.045 440.408 40.585C440.468 40.125 440.508 39.69 440.528 39.28C440.548 38.87 440.548 38.525 440.528 38.245C440.508 38.105 440.478 38.02 440.438 37.99C440.408 37.95 440.323 37.93 440.183 37.93H432.473C432.423 37.93 432.373 37.915 432.323 37.885C432.273 37.845 432.248 37.8 432.248 37.75V37.21ZM451.695 38.815C451.645 39.675 451.475 40.52 451.185 41.35C450.895 42.18 450.49 42.975 449.97 43.735C449.46 44.485 448.84 45.185 448.11 45.835C447.39 46.475 446.57 47.04 445.65 47.53C445.52 47.6 445.425 47.585 445.365 47.485L445.035 46.96C444.965 46.84 444.985 46.755 445.095 46.705C445.945 46.265 446.695 45.765 447.345 45.205C448.005 44.635 448.565 44.02 449.025 43.36C449.495 42.7 449.865 42.005 450.135 41.275C450.405 40.545 450.575 39.795 450.645 39.025C450.665 38.875 450.645 38.775 450.585 38.725C450.525 38.665 450.425 38.635 450.285 38.635H445.635C445.515 38.635 445.455 38.57 445.455 38.44V37.915C445.455 37.795 445.515 37.735 445.635 37.735H450.57C451.04 37.735 451.35 37.825 451.5 38.005C451.65 38.175 451.715 38.445 451.695 38.815ZM455.64 50.23C455.64 50.37 455.57 50.44 455.43 50.44H454.815C454.675 50.44 454.605 50.37 454.605 50.23V36.82C454.605 36.68 454.675 36.61 454.815 36.61H455.43C455.57 36.61 455.64 36.68 455.64 36.82V42.13H457.71C457.77 42.13 457.82 42.15 457.86 42.19C457.91 42.22 457.935 42.265 457.935 42.325V42.835C457.935 42.885 457.91 42.93 457.86 42.97C457.82 43.01 457.77 43.03 457.71 43.03H455.64V50.23ZM465.76 47.755C465.76 47.325 465.875 46.945 466.105 46.615C466.335 46.275 466.655 45.99 467.065 45.76C467.485 45.52 467.975 45.34 468.535 45.22C469.105 45.1 469.73 45.04 470.41 45.04C471.03 45.04 471.62 45.1 472.18 45.22C472.74 45.34 473.235 45.515 473.665 45.745C474.095 45.975 474.435 46.26 474.685 46.6C474.935 46.93 475.06 47.315 475.06 47.755C475.06 48.195 474.935 48.59 474.685 48.94C474.435 49.28 474.095 49.565 473.665 49.795C473.235 50.025 472.74 50.2 472.18 50.32C471.62 50.44 471.03 50.5 470.41 50.5C469.73 50.5 469.105 50.44 468.535 50.32C467.975 50.2 467.485 50.025 467.065 49.795C466.655 49.565 466.335 49.28 466.105 48.94C465.875 48.59 465.76 48.195 465.76 47.755ZM466.87 47.8C466.87 48.1 466.955 48.365 467.125 48.595C467.305 48.815 467.55 49 467.86 49.15C468.18 49.3 468.555 49.41 468.985 49.48C469.415 49.56 469.885 49.6 470.395 49.6C470.845 49.6 471.285 49.56 471.715 49.48C472.145 49.41 472.525 49.3 472.855 49.15C473.185 49 473.45 48.815 473.65 48.595C473.86 48.365 473.965 48.1 473.965 47.8C473.965 47.49 473.86 47.22 473.65 46.99C473.45 46.76 473.185 46.57 472.855 46.42C472.525 46.26 472.145 46.14 471.715 46.06C471.285 45.98 470.845 45.94 470.395 45.94C469.885 45.94 469.415 45.98 468.985 46.06C468.555 46.14 468.18 46.26 467.86 46.42C467.55 46.57 467.305 46.76 467.125 46.99C466.955 47.22 466.87 47.49 466.87 47.8ZM472.075 44.185C472.075 44.325 472.005 44.395 471.865 44.395H471.295C471.155 44.395 471.085 44.325 471.085 44.185V37.075C471.085 36.935 471.155 36.865 471.295 36.865H471.865C472.005 36.865 472.075 36.935 472.075 37.075V40.39H473.98V36.82C473.98 36.68 474.05 36.61 474.19 36.61H474.76C474.9 36.61 474.97 36.68 474.97 36.82V44.65C474.97 44.79 474.9 44.86 474.76 44.86H474.19C474.05 44.86 473.98 44.79 473.98 44.65V41.29H472.075V44.185ZM467.395 37.315C467.385 38.075 467.28 38.8 467.08 39.49C467.2 39.84 467.36 40.185 467.56 40.525C467.76 40.865 467.985 41.185 468.235 41.485C468.495 41.785 468.775 42.06 469.075 42.31C469.375 42.55 469.68 42.75 469.99 42.91C470.1 42.97 470.115 43.06 470.035 43.18L469.675 43.69C469.645 43.73 469.61 43.755 469.57 43.765C469.54 43.765 469.48 43.74 469.39 43.69C468.84 43.35 468.32 42.915 467.83 42.385C467.34 41.855 466.935 41.305 466.615 40.735C466.325 41.345 465.96 41.925 465.52 42.475C465.09 43.015 464.57 43.535 463.96 44.035C463.88 44.095 463.81 44.125 463.75 44.125C463.7 44.125 463.665 44.11 463.645 44.08L463.225 43.6C463.135 43.49 463.16 43.385 463.3 43.285C463.81 42.885 464.25 42.465 464.62 42.025C464.99 41.585 465.3 41.12 465.55 40.63C465.8 40.13 465.99 39.605 466.12 39.055C466.25 38.505 466.325 37.92 466.345 37.3C466.335 37.23 466.35 37.175 466.39 37.135C466.43 37.085 466.475 37.06 466.525 37.06L467.23 37.105C467.34 37.105 467.395 37.175 467.395 37.315ZM484.547 38.335C484.517 38.485 484.487 38.635 484.457 38.785C484.427 38.925 484.392 39.065 484.352 39.205H487.547V36.82C487.547 36.68 487.617 36.61 487.757 36.61H488.372C488.512 36.61 488.582 36.68 488.582 36.82V44.17C488.582 44.31 488.512 44.38 488.372 44.38H487.757C487.617 44.38 487.547 44.31 487.547 44.17V42.79H483.722C483.592 42.79 483.527 42.73 483.527 42.61V42.085C483.527 41.965 483.592 41.905 483.722 41.905H487.547V40.09H484.022C483.592 41.06 482.932 41.935 482.042 42.715C481.152 43.485 479.987 44.17 478.547 44.77C478.387 44.84 478.277 44.81 478.217 44.68L477.992 44.185C477.952 44.105 477.947 44.04 477.977 43.99C478.007 43.94 478.052 43.905 478.112 43.885C479.702 43.225 480.937 42.445 481.817 41.545C482.697 40.635 483.232 39.655 483.422 38.605C483.482 38.315 483.362 38.17 483.062 38.17H478.517C478.397 38.17 478.337 38.105 478.337 37.975V37.45C478.337 37.33 478.397 37.27 478.517 37.27H483.407C483.887 37.27 484.212 37.355 484.382 37.525C484.552 37.695 484.607 37.965 484.547 38.335ZM489.872 50.305C489.832 50.355 489.792 50.39 489.752 50.41C489.722 50.43 489.672 50.42 489.602 50.38C488.972 50.05 488.432 49.655 487.982 49.195C487.542 48.745 487.202 48.255 486.962 47.725C486.702 48.265 486.377 48.755 485.987 49.195C485.607 49.645 485.172 50.02 484.682 50.32C484.542 50.4 484.392 50.395 484.232 50.305C483.742 50.025 483.302 49.67 482.912 49.24C482.522 48.82 482.212 48.355 481.982 47.845C481.722 48.365 481.367 48.835 480.917 49.255C480.477 49.675 479.932 50.06 479.282 50.41C479.232 50.43 479.177 50.45 479.117 50.47C479.057 50.49 479.012 50.48 478.982 50.44L478.622 49.9C478.602 49.86 478.597 49.81 478.607 49.75C478.627 49.7 478.667 49.66 478.727 49.63C479.707 49.15 480.422 48.56 480.872 47.86C481.332 47.15 481.532 46.29 481.472 45.28C481.472 45.15 481.522 45.085 481.622 45.085L482.342 45.1C482.452 45.1 482.507 45.16 482.507 45.28C482.507 45.58 482.492 45.87 482.462 46.15C482.472 46.45 482.532 46.76 482.642 47.08C482.752 47.4 482.892 47.705 483.062 47.995C483.232 48.275 483.427 48.535 483.647 48.775C483.877 49.005 484.117 49.185 484.367 49.315C484.457 49.365 484.537 49.365 484.607 49.315C484.877 49.145 485.127 48.915 485.357 48.625C485.587 48.335 485.787 48.01 485.957 47.65C486.137 47.29 486.272 46.905 486.362 46.495C486.462 46.085 486.507 45.675 486.497 45.265C486.497 45.215 486.507 45.17 486.527 45.13C486.557 45.08 486.602 45.055 486.662 45.055L487.367 45.07C487.477 45.07 487.532 45.13 487.532 45.25C487.522 45.36 487.512 45.47 487.502 45.58C487.502 45.68 487.497 45.785 487.487 45.895C487.487 46.695 487.712 47.415 488.162 48.055C488.612 48.685 489.262 49.195 490.112 49.585C490.232 49.655 490.252 49.75 490.172 49.87L489.872 50.305ZM502.688 50.23C502.688 50.37 502.618 50.44 502.478 50.44H501.863C501.723 50.44 501.653 50.37 501.653 50.23V42.76H498.968C498.938 43.29 498.843 43.815 498.683 44.335C498.533 44.855 498.313 45.325 498.023 45.745C497.733 46.155 497.368 46.49 496.928 46.75C496.498 47.01 495.983 47.14 495.383 47.14C494.723 47.14 494.163 46.995 493.703 46.705C493.253 46.415 492.888 46.04 492.608 45.58C492.338 45.11 492.143 44.59 492.023 44.02C491.903 43.45 491.843 42.885 491.843 42.325C491.843 41.735 491.903 41.155 492.023 40.585C492.143 40.005 492.338 39.485 492.608 39.025C492.888 38.565 493.253 38.195 493.703 37.915C494.163 37.635 494.723 37.495 495.383 37.495C495.983 37.495 496.498 37.62 496.928 37.87C497.368 38.11 497.733 38.435 498.023 38.845C498.313 39.255 498.533 39.725 498.683 40.255C498.843 40.775 498.938 41.31 498.968 41.86H501.653V36.82C501.653 36.68 501.723 36.61 501.863 36.61H502.478C502.618 36.61 502.688 36.68 502.688 36.82V50.23ZM497.918 42.31C497.918 41.86 497.868 41.405 497.768 40.945C497.678 40.485 497.533 40.07 497.333 39.7C497.133 39.33 496.873 39.03 496.553 38.8C496.233 38.57 495.843 38.455 495.383 38.455C494.903 38.455 494.503 38.57 494.183 38.8C493.873 39.03 493.623 39.33 493.433 39.7C493.243 40.07 493.108 40.485 493.028 40.945C492.948 41.405 492.908 41.86 492.908 42.31C492.908 42.74 492.943 43.185 493.013 43.645C493.093 44.105 493.228 44.525 493.418 44.905C493.608 45.275 493.863 45.58 494.183 45.82C494.503 46.06 494.903 46.18 495.383 46.18C495.843 46.18 496.233 46.06 496.553 45.82C496.873 45.58 497.133 45.275 497.333 44.905C497.533 44.525 497.678 44.105 497.768 43.645C497.868 43.185 497.918 42.74 497.918 42.31ZM511.74 43.795C511.23 43.795 510.69 43.74 510.12 43.63C509.56 43.51 509.04 43.325 508.56 43.075C508.09 42.815 507.7 42.485 507.39 42.085C507.09 41.675 506.94 41.175 506.94 40.585C506.94 39.995 507.09 39.5 507.39 39.1C507.7 38.69 508.09 38.36 508.56 38.11C509.04 37.85 509.56 37.665 510.12 37.555C510.69 37.445 511.23 37.39 511.74 37.39C512.26 37.39 512.805 37.445 513.375 37.555C513.945 37.665 514.46 37.85 514.92 38.11C515.39 38.36 515.775 38.69 516.075 39.1C516.385 39.5 516.54 39.995 516.54 40.585C516.54 41.175 516.385 41.675 516.075 42.085C515.775 42.485 515.39 42.815 514.92 43.075C514.46 43.325 513.945 43.51 513.375 43.63C512.805 43.74 512.26 43.795 511.74 43.795ZM511.74 38.35C511.39 38.35 511 38.38 510.57 38.44C510.15 38.5 509.75 38.615 509.37 38.785C509 38.945 508.685 39.175 508.425 39.475C508.175 39.765 508.05 40.14 508.05 40.6C508.05 41.06 508.175 41.435 508.425 41.725C508.685 42.015 509 42.245 509.37 42.415C509.75 42.575 510.15 42.685 510.57 42.745C511 42.805 511.39 42.835 511.74 42.835C512.07 42.835 512.45 42.805 512.88 42.745C513.31 42.685 513.71 42.575 514.08 42.415C514.46 42.245 514.78 42.015 515.04 41.725C515.3 41.435 515.43 41.06 515.43 40.6C515.43 40.14 515.3 39.765 515.04 39.475C514.78 39.175 514.46 38.945 514.08 38.785C513.71 38.615 513.31 38.5 512.88 38.44C512.45 38.38 512.07 38.35 511.74 38.35ZM514.8 44.2C514.85 44.2 514.895 44.225 514.935 44.275C514.975 44.315 514.995 44.365 514.995 44.425V47.17H518.145C518.195 47.17 518.245 47.19 518.295 47.23C518.345 47.26 518.37 47.305 518.37 47.365V47.875C518.37 47.925 518.345 47.97 518.295 48.01C518.245 48.05 518.195 48.07 518.145 48.07H505.395C505.335 48.07 505.28 48.05 505.23 48.01C505.19 47.97 505.17 47.925 505.17 47.875V47.365C505.17 47.305 505.19 47.26 505.23 47.23C505.28 47.19 505.335 47.17 505.395 47.17H508.5V44.425C508.5 44.365 508.515 44.315 508.545 44.275C508.585 44.225 508.635 44.2 508.695 44.2H509.325C509.375 44.2 509.42 44.225 509.46 44.275C509.5 44.315 509.52 44.365 509.52 44.425V47.17H513.975V44.425C513.975 44.365 513.99 44.315 514.02 44.275C514.06 44.225 514.11 44.2 514.17 44.2H514.8ZM522.336 37.75C522.526 37.75 522.636 37.77 522.666 37.81C522.696 37.84 522.711 37.95 522.711 38.14L522.546 45.895C522.546 46.065 522.531 46.165 522.501 46.195C522.471 46.215 522.371 46.225 522.201 46.225H521.961C521.801 46.225 521.706 46.215 521.676 46.195C521.656 46.165 521.641 46.07 521.631 45.91L521.451 38.14C521.451 38.04 521.451 37.965 521.451 37.915C521.451 37.865 521.461 37.83 521.481 37.81C521.511 37.78 521.551 37.765 521.601 37.765C521.651 37.755 521.726 37.75 521.826 37.75H522.336ZM521.361 48.28C521.361 48.08 521.431 47.91 521.571 47.77C521.711 47.62 521.881 47.545 522.081 47.545C522.281 47.545 522.451 47.62 522.591 47.77C522.741 47.91 522.816 48.08 522.816 48.28C522.816 48.48 522.741 48.65 522.591 48.79C522.451 48.93 522.281 49 522.081 49C521.881 49 521.711 48.93 521.571 48.79C521.431 48.65 521.361 48.48 521.361 48.28Z" fill="#444444"/>
<path d="M74.225 75.2C74.225 75.33 74.16 75.395 74.03 75.395H72.695C72.565 75.395 72.5 75.325 72.5 75.185V67.565C72.5 67.435 72.565 67.37 72.695 67.37H74.03C74.16 67.37 74.225 67.435 74.225 67.565V75.2ZM74.225 80.33C74.225 80.71 74.14 80.98 73.97 81.14C73.81 81.3 73.54 81.38 73.16 81.38H66.785C66.325 81.38 65.99 81.3 65.78 81.14C65.58 80.98 65.48 80.705 65.48 80.315V77.225C65.48 76.845 65.56 76.57 65.72 76.4C65.89 76.23 66.165 76.145 66.545 76.145H73.085C73.535 76.145 73.835 76.23 73.985 76.4C74.145 76.56 74.225 76.84 74.225 77.24V80.33ZM72.515 77.72C72.515 77.64 72.5 77.59 72.47 77.57C72.45 77.54 72.4 77.525 72.32 77.525H67.385C67.305 77.525 67.25 77.535 67.22 77.555C67.2 77.575 67.19 77.625 67.19 77.705V79.805C67.19 79.895 67.2 79.95 67.22 79.97C67.25 79.99 67.305 80 67.385 80H72.32C72.4 80 72.45 79.99 72.47 79.97C72.5 79.95 72.515 79.895 72.515 79.805V77.72ZM70.355 71.345C70.355 71.845 70.265 72.31 70.085 72.74C69.915 73.16 69.665 73.525 69.335 73.835C69.015 74.145 68.63 74.385 68.18 74.555C67.74 74.725 67.25 74.81 66.71 74.81C66.18 74.81 65.695 74.725 65.255 74.555C64.815 74.385 64.435 74.145 64.115 73.835C63.805 73.525 63.565 73.16 63.395 72.74C63.225 72.31 63.14 71.845 63.14 71.345C63.14 70.865 63.225 70.415 63.395 69.995C63.565 69.575 63.805 69.21 64.115 68.9C64.435 68.58 64.815 68.33 65.255 68.15C65.695 67.97 66.18 67.88 66.71 67.88C67.25 67.88 67.74 67.97 68.18 68.15C68.63 68.33 69.015 68.58 69.335 68.9C69.665 69.21 69.915 69.575 70.085 69.995C70.265 70.415 70.355 70.865 70.355 71.345ZM68.645 71.375C68.645 70.785 68.47 70.315 68.12 69.965C67.77 69.605 67.3 69.425 66.71 69.425C66.14 69.425 65.68 69.605 65.33 69.965C64.98 70.315 64.805 70.785 64.805 71.375C64.805 71.975 64.98 72.455 65.33 72.815C65.68 73.175 66.14 73.355 66.71 73.355C67.3 73.355 67.77 73.175 68.12 72.815C68.47 72.455 68.645 71.975 68.645 71.375ZM85.8114 78.56C85.3614 79.13 84.8164 79.555 84.1764 79.835C83.5464 80.105 82.8364 80.24 82.0464 80.24C81.1664 80.24 80.4064 80.085 79.7664 79.775C79.1364 79.455 78.6164 79.025 78.2064 78.485C77.8064 77.945 77.5064 77.32 77.3064 76.61C77.1164 75.89 77.0214 75.13 77.0214 74.33C77.0214 73.55 77.1214 72.805 77.3214 72.095C77.5214 71.375 77.8264 70.745 78.2364 70.205C78.6464 69.665 79.1664 69.235 79.7964 68.915C80.4264 68.595 81.1764 68.435 82.0464 68.435C82.8964 68.435 83.6364 68.6 84.2664 68.93C84.8964 69.25 85.4164 69.68 85.8264 70.22C86.2464 70.76 86.5564 71.385 86.7564 72.095C86.9664 72.805 87.0664 73.55 87.0564 74.33C87.0464 75.21 86.9414 76.005 86.7414 76.715C86.5414 77.415 86.2314 78.03 85.8114 78.56ZM82.0464 70.04C81.4664 70.04 80.9664 70.17 80.5464 70.43C80.1364 70.68 79.7964 71.01 79.5264 71.42C79.2664 71.82 79.0714 72.28 78.9414 72.8C78.8214 73.31 78.7614 73.82 78.7614 74.33C78.7614 74.84 78.8214 75.355 78.9414 75.875C79.0714 76.385 79.2664 76.845 79.5264 77.255C79.7964 77.665 80.1364 78 80.5464 78.26C80.9664 78.51 81.4664 78.635 82.0464 78.635C82.6264 78.635 83.1214 78.51 83.5314 78.26C83.9514 78 84.2914 77.665 84.5514 77.255C84.8114 76.845 85.0014 76.385 85.1214 75.875C85.2514 75.355 85.3164 74.84 85.3164 74.33C85.3164 73.83 85.2564 73.325 85.1364 72.815C85.0164 72.305 84.8214 71.845 84.5514 71.435C84.2914 71.025 83.9514 70.69 83.5314 70.43C83.1214 70.17 82.6264 70.04 82.0464 70.04ZM92.8781 72.92C92.4081 72.92 92.0181 73.05 91.7081 73.31C91.3981 73.57 91.2431 73.885 91.2431 74.255C91.2431 74.635 91.3981 74.96 91.7081 75.23C92.0181 75.5 92.4081 75.635 92.8781 75.635C93.3581 75.635 93.7481 75.5 94.0481 75.23C94.3581 74.96 94.5131 74.635 94.5131 74.255C94.5131 73.885 94.3581 73.57 94.0481 73.31C93.7481 73.05 93.3581 72.92 92.8781 72.92ZM92.8781 71.585C93.3281 71.585 93.7531 71.655 94.1531 71.795C94.5531 71.935 94.8981 72.125 95.1881 72.365C95.4881 72.605 95.7231 72.89 95.8931 73.22C96.0631 73.54 96.1481 73.885 96.1481 74.255C96.1481 74.635 96.0631 74.99 95.8931 75.32C95.7231 75.64 95.4881 75.92 95.1881 76.16C94.8981 76.4 94.5531 76.59 94.1531 76.73C93.7531 76.87 93.3231 76.94 92.8631 76.94C92.4131 76.94 91.9931 76.87 91.6031 76.73C91.2131 76.59 90.8681 76.4 90.5681 76.16C90.2781 75.92 90.0481 75.64 89.8781 75.32C89.7081 74.99 89.6231 74.635 89.6231 74.255C89.6231 73.885 89.7081 73.54 89.8781 73.22C90.0481 72.89 90.2781 72.605 90.5681 72.365C90.8681 72.125 91.2131 71.935 91.6031 71.795C92.0031 71.655 92.4281 71.585 92.8781 71.585ZM96.9581 70.82C96.9581 70.89 96.9331 70.95 96.8831 71C96.8431 71.04 96.7931 71.06 96.7331 71.06H88.7831C88.7231 71.06 88.6681 71.035 88.6181 70.985C88.5681 70.935 88.5431 70.875 88.5431 70.805V69.92C88.5431 69.87 88.5681 69.82 88.6181 69.77C88.6781 69.72 88.7381 69.695 88.7981 69.695H96.7331C96.7931 69.695 96.8431 69.72 96.8831 69.77C96.9331 69.81 96.9581 69.86 96.9581 69.92V70.82ZM95.0231 68.81C95.0231 68.87 94.9981 68.925 94.9481 68.975C94.9081 69.025 94.8481 69.05 94.7681 69.05H90.8531C90.8131 69.05 90.7631 69.03 90.7031 68.99C90.6531 68.95 90.6281 68.895 90.6281 68.825V67.94C90.6281 67.86 90.6531 67.8 90.7031 67.76C90.7631 67.72 90.8131 67.7 90.8531 67.7H94.7681C94.8381 67.7 94.8981 67.725 94.9481 67.775C94.9981 67.825 95.0231 67.885 95.0231 67.955V68.81ZM100.243 81.2C100.243 81.26 100.218 81.305 100.168 81.335C100.118 81.365 100.068 81.38 100.018 81.38H92.0981C91.6481 81.38 91.3431 81.3 91.1831 81.14C91.0231 80.98 90.9431 80.705 90.9431 80.315V77.99C90.9431 77.94 90.9681 77.89 91.0181 77.84C91.0681 77.79 91.1181 77.765 91.1681 77.765H92.4431C92.5131 77.765 92.5681 77.79 92.6081 77.84C92.6581 77.89 92.6831 77.94 92.6831 77.99V79.7C92.6831 79.8 92.7031 79.865 92.7431 79.895C92.7831 79.925 92.8531 79.94 92.9531 79.94H100.018C100.068 79.94 100.118 79.96 100.168 80C100.218 80.04 100.243 80.085 100.243 80.135V81.2ZM101.908 73.655C101.908 73.705 101.883 73.75 101.833 73.79C101.793 73.82 101.743 73.835 101.683 73.835H99.6581V78.155C99.6581 78.285 99.5931 78.35 99.4631 78.35H98.1281C97.9981 78.35 97.9331 78.285 97.9331 78.155V67.565C97.9331 67.435 97.9981 67.37 98.1281 67.37H99.4631C99.5931 67.37 99.6581 67.435 99.6581 67.565V72.395H101.683C101.743 72.395 101.793 72.415 101.833 72.455C101.883 72.495 101.908 72.54 101.908 72.59V73.655ZM118.449 75.17C118.449 75.3 118.384 75.365 118.254 75.365H116.919C116.789 75.365 116.724 75.295 116.724 75.155V67.565C116.724 67.435 116.789 67.37 116.919 67.37H118.254C118.384 67.37 118.449 67.435 118.449 67.565V75.17ZM116.724 77.72C116.724 77.64 116.709 77.59 116.679 77.57C116.649 77.54 116.594 77.525 116.514 77.525H111.579C111.499 77.525 111.444 77.535 111.414 77.555C111.394 77.575 111.384 77.625 111.384 77.705V79.745C111.384 79.835 111.394 79.89 111.414 79.91C111.444 79.93 111.499 79.94 111.579 79.94H116.514C116.604 79.94 116.659 79.93 116.679 79.91C116.709 79.89 116.724 79.835 116.724 79.745V77.72ZM118.434 80.3C118.434 80.68 118.349 80.95 118.179 81.11C118.009 81.27 117.734 81.35 117.354 81.35H110.814C110.364 81.35 110.059 81.27 109.899 81.11C109.739 80.95 109.659 80.675 109.659 80.285V77.195C109.659 76.815 109.744 76.54 109.914 76.37C110.084 76.2 110.359 76.115 110.739 76.115H117.279C117.729 76.115 118.034 76.2 118.194 76.37C118.354 76.53 118.434 76.81 118.434 77.21V80.3ZM115.929 73.685C115.939 73.745 115.924 73.795 115.884 73.835C115.844 73.865 115.799 73.885 115.749 73.895C115.299 74.015 114.779 74.115 114.189 74.195C113.609 74.275 113.014 74.34 112.404 74.39C111.804 74.44 111.214 74.475 110.634 74.495C110.054 74.505 109.544 74.5 109.104 74.48C108.664 74.46 108.369 74.365 108.219 74.195C108.079 74.015 108.009 73.75 108.009 73.4V68.09C108.009 68.04 108.029 67.995 108.069 67.955C108.119 67.905 108.169 67.88 108.219 67.88H109.509C109.569 67.88 109.619 67.905 109.659 67.955C109.709 67.995 109.734 68.04 109.734 68.09V72.785C109.734 72.885 109.754 72.95 109.794 72.98C109.844 73 109.919 73.015 110.019 73.025C110.339 73.045 110.719 73.05 111.159 73.04C111.599 73.03 112.064 73.01 112.554 72.98C113.044 72.94 113.539 72.89 114.039 72.83C114.549 72.76 115.039 72.675 115.509 72.575C115.559 72.565 115.609 72.575 115.659 72.605C115.719 72.625 115.754 72.66 115.764 72.71L115.929 73.685ZM132.454 81.545C132.454 81.675 132.389 81.74 132.259 81.74H130.894C130.764 81.74 130.699 81.675 130.699 81.545V67.43C130.699 67.3 130.764 67.235 130.894 67.235H132.259C132.389 67.235 132.454 67.3 132.454 67.43V81.545ZM143.985 80.06C143.795 80.06 143.7 79.995 143.7 79.865V79.01C143.7 78.93 143.72 78.85 143.76 78.77C143.81 78.69 143.865 78.61 143.925 78.53L146.205 75.83C147.035 74.84 147.65 74.015 148.05 73.355C148.45 72.695 148.65 72.155 148.65 71.735C148.65 71.255 148.5 70.86 148.2 70.55C147.91 70.24 147.55 70.085 147.12 70.085C146.71 70.085 146.31 70.145 145.92 70.265C145.54 70.375 145.125 70.56 144.675 70.82C144.595 70.87 144.515 70.895 144.435 70.895C144.355 70.885 144.305 70.835 144.285 70.745L144.075 69.605C144.055 69.555 144.06 69.505 144.09 69.455C144.12 69.405 144.185 69.35 144.285 69.29C144.665 69.09 145.1 68.91 145.59 68.75C146.08 68.59 146.56 68.51 147.03 68.51C147.51 68.51 147.95 68.58 148.35 68.72C148.76 68.85 149.11 69.05 149.4 69.32C149.7 69.58 149.935 69.91 150.105 70.31C150.275 70.71 150.36 71.17 150.36 71.69C150.36 72.14 150.26 72.6 150.06 73.07C149.86 73.53 149.61 73.985 149.31 74.435C149.01 74.875 148.69 75.3 148.35 75.71C148.01 76.11 147.7 76.475 147.42 76.805C147.2 77.075 146.965 77.36 146.715 77.66C146.475 77.95 146.23 78.235 145.98 78.515H150.375C150.515 78.515 150.585 78.595 150.585 78.755V79.805C150.585 79.975 150.515 80.06 150.375 80.06H143.985ZM156.546 80.12C155.266 80.12 154.316 79.615 153.696 78.605C153.086 77.585 152.781 76.16 152.781 74.33C152.781 73.71 152.826 73.06 152.916 72.38C153.016 71.7 153.201 71.075 153.471 70.505C153.751 69.935 154.136 69.465 154.626 69.095C155.116 68.725 155.756 68.54 156.546 68.54C157.066 68.54 157.521 68.625 157.911 68.795C158.301 68.965 158.631 69.2 158.901 69.5C159.181 69.79 159.411 70.13 159.591 70.52C159.771 70.9 159.911 71.305 160.011 71.735C160.111 72.165 160.181 72.605 160.221 73.055C160.261 73.495 160.281 73.92 160.281 74.33C160.281 75.24 160.206 76.055 160.056 76.775C159.906 77.495 159.676 78.105 159.366 78.605C159.056 79.095 158.666 79.47 158.196 79.73C157.736 79.99 157.186 80.12 156.546 80.12ZM156.546 70.175C156.226 70.175 155.941 70.25 155.691 70.4C155.441 70.54 155.226 70.775 155.046 71.105C154.866 71.435 154.726 71.865 154.626 72.395C154.536 72.925 154.491 73.57 154.491 74.33C154.491 75.1 154.536 75.75 154.626 76.28C154.726 76.81 154.866 77.24 155.046 77.57C155.226 77.9 155.441 78.14 155.691 78.29C155.941 78.43 156.226 78.5 156.546 78.5C156.856 78.5 157.136 78.43 157.386 78.29C157.646 78.14 157.866 77.9 158.046 77.57C158.226 77.24 158.361 76.81 158.451 76.28C158.551 75.75 158.601 75.1 158.601 74.33C158.601 73.57 158.551 72.925 158.451 72.395C158.361 71.865 158.226 71.435 158.046 71.105C157.866 70.775 157.646 70.54 157.386 70.4C157.136 70.25 156.856 70.175 156.546 70.175ZM162.178 80.06C161.988 80.06 161.893 79.995 161.893 79.865V79.01C161.893 78.93 161.913 78.85 161.953 78.77C162.003 78.69 162.058 78.61 162.118 78.53L164.398 75.83C165.228 74.84 165.843 74.015 166.243 73.355C166.643 72.695 166.843 72.155 166.843 71.735C166.843 71.255 166.693 70.86 166.393 70.55C166.103 70.24 165.743 70.085 165.313 70.085C164.903 70.085 164.503 70.145 164.113 70.265C163.733 70.375 163.318 70.56 162.868 70.82C162.788 70.87 162.708 70.895 162.628 70.895C162.548 70.885 162.498 70.835 162.478 70.745L162.268 69.605C162.248 69.555 162.253 69.505 162.283 69.455C162.313 69.405 162.378 69.35 162.478 69.29C162.858 69.09 163.293 68.91 163.783 68.75C164.273 68.59 164.753 68.51 165.223 68.51C165.703 68.51 166.143 68.58 166.543 68.72C166.953 68.85 167.303 69.05 167.593 69.32C167.893 69.58 168.128 69.91 168.298 70.31C168.468 70.71 168.553 71.17 168.553 71.69C168.553 72.14 168.453 72.6 168.253 73.07C168.053 73.53 167.803 73.985 167.503 74.435C167.203 74.875 166.883 75.3 166.543 75.71C166.203 76.11 165.893 76.475 165.613 76.805C165.393 77.075 165.158 77.36 164.908 77.66C164.668 77.95 164.423 78.235 164.173 78.515H168.568C168.708 78.515 168.778 78.595 168.778 78.755V79.805C168.778 79.975 168.708 80.06 168.568 80.06H162.178ZM174.74 80.12C173.46 80.12 172.51 79.615 171.89 78.605C171.28 77.585 170.975 76.16 170.975 74.33C170.975 73.71 171.02 73.06 171.11 72.38C171.21 71.7 171.395 71.075 171.665 70.505C171.945 69.935 172.33 69.465 172.82 69.095C173.31 68.725 173.95 68.54 174.74 68.54C175.26 68.54 175.715 68.625 176.105 68.795C176.495 68.965 176.825 69.2 177.095 69.5C177.375 69.79 177.605 70.13 177.785 70.52C177.965 70.9 178.105 71.305 178.205 71.735C178.305 72.165 178.375 72.605 178.415 73.055C178.455 73.495 178.475 73.92 178.475 74.33C178.475 75.24 178.4 76.055 178.25 76.775C178.1 77.495 177.87 78.105 177.56 78.605C177.25 79.095 176.86 79.47 176.39 79.73C175.93 79.99 175.38 80.12 174.74 80.12ZM174.74 70.175C174.42 70.175 174.135 70.25 173.885 70.4C173.635 70.54 173.42 70.775 173.24 71.105C173.06 71.435 172.92 71.865 172.82 72.395C172.73 72.925 172.685 73.57 172.685 74.33C172.685 75.1 172.73 75.75 172.82 76.28C172.92 76.81 173.06 77.24 173.24 77.57C173.42 77.9 173.635 78.14 173.885 78.29C174.135 78.43 174.42 78.5 174.74 78.5C175.05 78.5 175.33 78.43 175.58 78.29C175.84 78.14 176.06 77.9 176.24 77.57C176.42 77.24 176.555 76.81 176.645 76.28C176.745 75.75 176.795 75.1 176.795 74.33C176.795 73.57 176.745 72.925 176.645 72.395C176.555 71.865 176.42 71.435 176.24 71.105C176.06 70.775 175.84 70.54 175.58 70.4C175.33 70.25 175.05 70.175 174.74 70.175ZM186.446 69.035H189.866V67.565C189.866 67.515 189.886 67.47 189.926 67.43C189.976 67.39 190.026 67.37 190.076 67.37H191.396C191.536 67.37 191.606 67.435 191.606 67.565V77.285C191.606 77.415 191.536 77.48 191.396 77.48H190.076C190.026 77.48 189.976 77.46 189.926 77.42C189.886 77.38 189.866 77.335 189.866 77.285V72.95H186.446C186.396 72.95 186.346 72.935 186.296 72.905C186.256 72.865 186.236 72.82 186.236 72.77V71.795C186.236 71.745 186.256 71.7 186.296 71.66C186.346 71.62 186.396 71.6 186.446 71.6H189.866V70.385H186.446C186.396 70.385 186.346 70.37 186.296 70.34C186.256 70.3 186.236 70.255 186.236 70.205V69.215C186.236 69.165 186.256 69.125 186.296 69.095C186.346 69.055 186.396 69.035 186.446 69.035ZM188.261 74.99C188.271 75.05 188.256 75.1 188.216 75.14C188.176 75.18 188.131 75.205 188.081 75.215C187.671 75.305 187.201 75.38 186.671 75.44C186.151 75.49 185.611 75.53 185.051 75.56C184.501 75.58 183.956 75.595 183.416 75.605C182.886 75.605 182.406 75.595 181.976 75.575C181.566 75.555 181.281 75.445 181.121 75.245C180.971 75.035 180.896 74.775 180.896 74.465V68.255C180.896 68.205 180.916 68.16 180.956 68.12C181.006 68.07 181.056 68.045 181.106 68.045H182.396C182.456 68.045 182.506 68.07 182.546 68.12C182.596 68.16 182.621 68.205 182.621 68.255V73.94C182.621 74.05 182.641 74.12 182.681 74.15C182.721 74.18 182.791 74.195 182.891 74.195C183.221 74.205 183.596 74.21 184.016 74.21C184.436 74.2 184.866 74.185 185.306 74.165C185.756 74.145 186.201 74.12 186.641 74.09C187.081 74.05 187.486 74 187.856 73.94C187.936 73.92 187.996 73.93 188.036 73.97C188.086 74.01 188.116 74.055 188.126 74.105L188.261 74.99ZM192.041 81.17C192.041 81.29 191.981 81.35 191.861 81.35H183.911C183.451 81.35 183.141 81.27 182.981 81.11C182.831 80.95 182.756 80.675 182.756 80.285V77.135C182.756 77.085 182.776 77.035 182.816 76.985C182.866 76.935 182.916 76.91 182.966 76.91H184.256C184.316 76.91 184.366 76.935 184.406 76.985C184.456 77.025 184.481 77.075 184.481 77.135V79.67C184.481 79.77 184.501 79.835 184.541 79.865C184.591 79.895 184.666 79.91 184.766 79.91H191.831C191.881 79.91 191.926 79.93 191.966 79.97C192.016 80.01 192.041 80.055 192.041 80.105V81.17ZM202.147 80.12C200.867 80.12 199.917 79.615 199.297 78.605C198.687 77.585 198.382 76.16 198.382 74.33C198.382 73.71 198.427 73.06 198.517 72.38C198.617 71.7 198.802 71.075 199.072 70.505C199.352 69.935 199.737 69.465 200.227 69.095C200.717 68.725 201.357 68.54 202.147 68.54C202.667 68.54 203.122 68.625 203.512 68.795C203.902 68.965 204.232 69.2 204.502 69.5C204.782 69.79 205.012 70.13 205.192 70.52C205.372 70.9 205.512 71.305 205.612 71.735C205.712 72.165 205.782 72.605 205.822 73.055C205.862 73.495 205.882 73.92 205.882 74.33C205.882 75.24 205.807 76.055 205.657 76.775C205.507 77.495 205.277 78.105 204.967 78.605C204.657 79.095 204.267 79.47 203.797 79.73C203.337 79.99 202.787 80.12 202.147 80.12ZM202.147 70.175C201.827 70.175 201.542 70.25 201.292 70.4C201.042 70.54 200.827 70.775 200.647 71.105C200.467 71.435 200.327 71.865 200.227 72.395C200.137 72.925 200.092 73.57 200.092 74.33C200.092 75.1 200.137 75.75 200.227 76.28C200.327 76.81 200.467 77.24 200.647 77.57C200.827 77.9 201.042 78.14 201.292 78.29C201.542 78.43 201.827 78.5 202.147 78.5C202.457 78.5 202.737 78.43 202.987 78.29C203.247 78.14 203.467 77.9 203.647 77.57C203.827 77.24 203.962 76.81 204.052 76.28C204.152 75.75 204.202 75.1 204.202 74.33C204.202 73.57 204.152 72.925 204.052 72.395C203.962 71.865 203.827 71.435 203.647 71.105C203.467 70.775 203.247 70.54 202.987 70.4C202.737 70.25 202.457 70.175 202.147 70.175ZM210.569 79.835C210.529 79.915 210.489 79.97 210.449 80C210.409 80.03 210.339 80.045 210.239 80.045H209.024C208.874 80.045 208.779 80.03 208.739 80C208.699 79.96 208.699 79.885 208.739 79.775L212.654 70.19H207.869C207.799 70.19 207.739 70.17 207.689 70.13C207.639 70.08 207.614 70.015 207.614 69.935V68.885C207.614 68.725 207.699 68.645 207.869 68.645H214.259C214.429 68.645 214.529 68.665 214.559 68.705C214.599 68.735 214.619 68.805 214.619 68.915V69.83C214.619 69.91 214.594 69.99 214.544 70.07L210.569 79.835ZM228.455 81.455C228.455 81.505 228.43 81.55 228.38 81.59C228.34 81.64 228.3 81.665 228.26 81.665H219.905C219.515 81.665 219.245 81.595 219.095 81.455C218.955 81.315 218.885 81.085 218.885 80.765V79.34C218.885 79.02 218.955 78.79 219.095 78.65C219.235 78.51 219.5 78.44 219.89 78.44H226.22C226.3 78.44 226.35 78.43 226.37 78.41C226.39 78.38 226.4 78.32 226.4 78.23V77.99C226.4 77.88 226.39 77.815 226.37 77.795C226.35 77.765 226.295 77.75 226.205 77.75H219.08C219.03 77.75 218.98 77.735 218.93 77.705C218.88 77.665 218.855 77.62 218.855 77.57V76.67C218.855 76.62 218.88 76.575 218.93 76.535C218.98 76.495 219.03 76.475 219.08 76.475H227.075C227.485 76.475 227.755 76.54 227.885 76.67C228.025 76.79 228.095 77.02 228.095 77.36V78.8C228.095 79.15 228.025 79.385 227.885 79.505C227.755 79.625 227.485 79.685 227.075 79.685H220.775C220.695 79.685 220.645 79.7 220.625 79.73C220.605 79.75 220.595 79.8 220.595 79.88V80.18C220.595 80.28 220.605 80.335 220.625 80.345C220.645 80.365 220.7 80.375 220.79 80.375H228.245C228.295 80.375 228.34 80.39 228.38 80.42C228.43 80.46 228.455 80.51 228.455 80.57V81.455ZM228.095 75.815C228.095 75.945 228.03 76.01 227.9 76.01H226.565C226.435 76.01 226.37 75.945 226.37 75.815V75.545H223.805C223.755 75.545 223.705 75.525 223.655 75.485C223.615 75.445 223.595 75.4 223.595 75.35V74.495C223.595 74.445 223.615 74.405 223.655 74.375C223.705 74.335 223.755 74.315 223.805 74.315H226.37V67.55C226.37 67.42 226.435 67.355 226.565 67.355H227.9C228.03 67.355 228.095 67.42 228.095 67.55V75.815ZM225.86 73.31C225.87 73.37 225.85 73.43 225.8 73.49C225.76 73.55 225.715 73.585 225.665 73.595C225.375 73.645 225.05 73.69 224.69 73.73C224.33 73.76 223.965 73.79 223.595 73.82C223.225 73.85 222.865 73.875 222.515 73.895C222.165 73.915 221.865 73.93 221.615 73.94V75.665C221.615 75.725 221.59 75.78 221.54 75.83C221.5 75.87 221.45 75.89 221.39 75.89H220.145C220.085 75.89 220.03 75.87 219.98 75.83C219.94 75.78 219.92 75.725 219.92 75.665V74.06C219.62 74.07 219.31 74.08 218.99 74.09C218.68 74.09 218.375 74.095 218.075 74.105C217.775 74.105 217.49 74.105 217.22 74.105C216.95 74.105 216.715 74.1 216.515 74.09C216.455 74.09 216.405 74.065 216.365 74.015C216.325 73.965 216.305 73.91 216.305 73.85V72.965C216.305 72.825 216.375 72.755 216.515 72.755C218.545 72.775 220.29 72.75 221.75 72.68C223.22 72.6 224.47 72.49 225.5 72.35C225.55 72.34 225.6 72.355 225.65 72.395C225.71 72.425 225.745 72.465 225.755 72.515L225.86 73.31ZM220.85 68.615C220.32 68.615 219.885 68.725 219.545 68.945C219.215 69.165 219.05 69.44 219.05 69.77C219.05 70.11 219.215 70.39 219.545 70.61C219.885 70.82 220.32 70.925 220.85 70.925C221.39 70.925 221.825 70.82 222.155 70.61C222.495 70.39 222.665 70.11 222.665 69.77C222.665 69.44 222.495 69.165 222.155 68.945C221.825 68.725 221.39 68.615 220.85 68.615ZM220.85 67.4C221.37 67.4 221.84 67.465 222.26 67.595C222.68 67.715 223.04 67.885 223.34 68.105C223.64 68.315 223.87 68.565 224.03 68.855C224.2 69.135 224.285 69.44 224.285 69.77C224.285 70.1 224.2 70.41 224.03 70.7C223.87 70.99 223.64 71.245 223.34 71.465C223.04 71.675 222.68 71.845 222.26 71.975C221.84 72.095 221.37 72.155 220.85 72.155C220.34 72.155 219.875 72.095 219.455 71.975C219.035 71.845 218.675 71.675 218.375 71.465C218.075 71.245 217.84 70.99 217.67 70.7C217.51 70.41 217.43 70.1 217.43 69.77C217.43 69.44 217.51 69.135 217.67 68.855C217.84 68.565 218.075 68.315 218.375 68.105C218.675 67.885 219.035 67.715 219.455 67.595C219.875 67.465 220.34 67.4 220.85 67.4ZM238.651 80.12C237.371 80.12 236.421 79.615 235.801 78.605C235.191 77.585 234.886 76.16 234.886 74.33C234.886 73.71 234.931 73.06 235.021 72.38C235.121 71.7 235.306 71.075 235.576 70.505C235.856 69.935 236.241 69.465 236.731 69.095C237.221 68.725 237.861 68.54 238.651 68.54C239.171 68.54 239.626 68.625 240.016 68.795C240.406 68.965 240.736 69.2 241.006 69.5C241.286 69.79 241.516 70.13 241.696 70.52C241.876 70.9 242.016 71.305 242.116 71.735C242.216 72.165 242.286 72.605 242.326 73.055C242.366 73.495 242.386 73.92 242.386 74.33C242.386 75.24 242.311 76.055 242.161 76.775C242.011 77.495 241.781 78.105 241.471 78.605C241.161 79.095 240.771 79.47 240.301 79.73C239.841 79.99 239.291 80.12 238.651 80.12ZM238.651 70.175C238.331 70.175 238.046 70.25 237.796 70.4C237.546 70.54 237.331 70.775 237.151 71.105C236.971 71.435 236.831 71.865 236.731 72.395C236.641 72.925 236.596 73.57 236.596 74.33C236.596 75.1 236.641 75.75 236.731 76.28C236.831 76.81 236.971 77.24 237.151 77.57C237.331 77.9 237.546 78.14 237.796 78.29C238.046 78.43 238.331 78.5 238.651 78.5C238.961 78.5 239.241 78.43 239.491 78.29C239.751 78.14 239.971 77.9 240.151 77.57C240.331 77.24 240.466 76.81 240.556 76.28C240.656 75.75 240.706 75.1 240.706 74.33C240.706 73.57 240.656 72.925 240.556 72.395C240.466 71.865 240.331 71.435 240.151 71.105C239.971 70.775 239.751 70.54 239.491 70.4C239.241 70.25 238.961 70.175 238.651 70.175ZM247.433 80.045C247.293 80.045 247.223 79.98 247.223 79.85V70.97L246.113 71.93C246.063 71.97 246.003 71.995 245.933 72.005C245.873 72.015 245.823 72 245.783 71.96L245.108 71.15C245.078 71.11 245.063 71.065 245.063 71.015C245.073 70.955 245.103 70.9 245.153 70.85L247.448 68.735C247.468 68.715 247.503 68.695 247.553 68.675C247.603 68.655 247.643 68.645 247.673 68.645H248.468C248.638 68.645 248.738 68.665 248.768 68.705C248.808 68.735 248.828 68.85 248.828 69.05V79.85C248.828 79.98 248.763 80.045 248.633 80.045H247.433ZM260.579 71.045C260.579 71.515 260.494 71.95 260.324 72.35C260.154 72.74 259.909 73.08 259.589 73.37C259.279 73.66 258.899 73.89 258.449 74.06C258.009 74.22 257.519 74.3 256.979 74.3C256.419 74.3 255.919 74.22 255.479 74.06C255.039 73.89 254.664 73.66 254.354 73.37C254.054 73.08 253.824 72.74 253.664 72.35C253.504 71.95 253.424 71.515 253.424 71.045C253.424 70.575 253.504 70.135 253.664 69.725C253.824 69.315 254.054 68.96 254.354 68.66C254.664 68.36 255.039 68.125 255.479 67.955C255.919 67.785 256.419 67.7 256.979 67.7C257.519 67.7 258.009 67.785 258.449 67.955C258.899 68.125 259.279 68.36 259.589 68.66C259.909 68.96 260.154 69.315 260.324 69.725C260.494 70.135 260.579 70.575 260.579 71.045ZM259.049 71.06C259.049 70.48 258.859 70.005 258.479 69.635C258.109 69.265 257.609 69.08 256.979 69.08C256.369 69.08 255.879 69.265 255.509 69.635C255.139 70.005 254.954 70.48 254.954 71.06C254.954 71.61 255.139 72.07 255.509 72.44C255.879 72.8 256.369 72.98 256.979 72.98C257.289 72.98 257.569 72.935 257.819 72.845C258.079 72.745 258.299 72.61 258.479 72.44C258.659 72.26 258.799 72.055 258.899 71.825C258.999 71.585 259.049 71.33 259.049 71.06ZM264.839 81.365C264.839 81.415 264.814 81.46 264.764 81.5C264.724 81.55 264.684 81.575 264.644 81.575H256.694C256.304 81.575 256.034 81.5 255.884 81.35C255.744 81.2 255.674 80.965 255.674 80.645V78.815C255.674 78.495 255.744 78.265 255.884 78.125C256.024 77.975 256.289 77.9 256.679 77.9H262.604C262.684 77.9 262.734 77.89 262.754 77.87C262.774 77.84 262.784 77.78 262.784 77.69V77.135C262.784 77.025 262.774 76.96 262.754 76.94C262.734 76.92 262.679 76.91 262.589 76.91H255.869C255.819 76.91 255.769 76.895 255.719 76.865C255.669 76.825 255.644 76.78 255.644 76.73V75.74C255.644 75.69 255.669 75.645 255.719 75.605C255.769 75.555 255.819 75.53 255.869 75.53H263.444C263.854 75.53 264.124 75.6 264.254 75.74C264.394 75.88 264.464 76.12 264.464 76.46V78.275C264.464 78.625 264.394 78.865 264.254 78.995C264.124 79.125 263.854 79.19 263.444 79.19H257.564C257.484 79.19 257.434 79.205 257.414 79.235C257.394 79.255 257.384 79.305 257.384 79.385V80.015C257.384 80.105 257.394 80.155 257.414 80.165C257.434 80.185 257.489 80.195 257.579 80.195H264.629C264.679 80.195 264.724 80.215 264.764 80.255C264.814 80.295 264.839 80.345 264.839 80.405V81.365ZM264.464 74.645C264.464 74.775 264.399 74.84 264.269 74.84H262.934C262.804 74.84 262.739 74.77 262.739 74.63V67.565C262.739 67.435 262.804 67.37 262.934 67.37H264.269C264.399 67.37 264.464 67.435 264.464 67.565V74.645Z" fill="#444444"/>
<defs>
<filter id="filter0_d" x="0" y="0" width="685" height="121.397" filterUnits="userSpaceOnUse" color-interpolation-filters="sRGB">
<feFlood flood-opacity="0" result="BackgroundImageFix"/>
<feColorMatrix in="SourceAlpha" type="matrix" values="0 0 0 0 0 0 0 0 0 0 0 0 0 0 0 0 0 0 127 0" result="hardAlpha"/>
<feOffset dy="2"/>
<feGaussianBlur stdDeviation="2"/>
<feColorMatrix type="matrix" values="0 0 0 0 0 0 0 0 0 0 0 0 0 0 0 0 0 0 0.25 0"/>
<feBlend mode="normal" in2="BackgroundImageFix" result="effect1_dropShadow"/>
<feBlend mode="normal" in="SourceGraphic" in2="effect1_dropShadow" result="shape"/>
</filter>
<linearGradient id="paint0_linear" x1="342.5" y1="2" x2="342.5" y2="115.397" gradientUnits="userSpaceOnUse">
<stop stop-color="#FED74D"/>
<stop offset="1" stop-color="#FFC700"/>
</linearGradient>
</defs>
</svg>
