<svg width="29" height="26" viewBox="0 0 29 26" fill="none" xmlns="http://www.w3.org/2000/svg">
<path d="M7.408 25.352C5.68 25.352 4.208 24.616 2.992 23.144C1.84 21.672 1.2 19.976 1.072 18.056C0.88 15.688 1.008 13.672 1.456 12.008C1.968 10.28 2.768 8.616 3.856 7.016C4.752 5.544 5.872 4.264 7.216 3.17599C8.624 2.088 10.128 1.384 11.728 1.064C12.624 0.679996 13.072 0.839996 13.072 1.544V5.288C13.072 5.8 13.008 6.152 12.88 6.34399C12.816 6.472 12.688 6.6 12.496 6.72799C10 7.816 8.592 9.704 8.272 12.392C9.552 12.712 10.8 13.384 12.016 14.408C13.232 15.368 13.84 16.712 13.84 18.44C13.84 20.488 13.232 22.152 12.016 23.432C10.8 24.712 9.264 25.352 7.408 25.352ZM22.192 25.352C20.4 25.352 18.896 24.616 17.68 23.144C16.528 21.672 15.888 19.976 15.76 18.056C15.568 15.688 15.728 13.672 16.24 12.008C16.752 10.28 17.552 8.616 18.64 7.016C19.536 5.544 20.656 4.264 22 3.17599C23.344 2.088 24.848 1.384 26.512 1.064C27.408 0.679996 27.856 0.839996 27.856 1.544V5.288C27.856 5.8 27.792 6.152 27.664 6.34399C27.6 6.472 27.44 6.6 27.184 6.72799C26.032 7.24 25.072 8.008 24.304 9.032C23.536 9.992 23.12 11.112 23.056 12.392C24.336 12.712 25.552 13.384 26.704 14.408C27.92 15.368 28.528 16.712 28.528 18.44C28.528 20.488 27.92 22.152 26.704 23.432C25.552 24.712 24.048 25.352 22.192 25.352Z" fill="#66A6FF"/>
</svg>
