<svg width="29" height="25" viewBox="0 0 29 25" fill="none" xmlns="http://www.w3.org/2000/svg">
<path d="M22.096 0.255997C23.824 0.255997 25.264 0.991997 26.416 2.464C27.632 3.936 28.336 5.632 28.528 7.55199C28.72 9.91999 28.56 11.968 28.048 13.696C27.536 15.36 26.736 16.992 25.648 18.592C24.752 20.064 23.6 21.344 22.192 22.432C20.848 23.52 19.376 24.224 17.776 24.544C16.88 24.928 16.432 24.768 16.432 24.064V20.32C16.432 19.808 16.464 19.488 16.528 19.36C16.656 19.168 16.848 19.008 17.104 18.88C18.256 18.368 19.216 17.632 19.984 16.672C20.752 15.648 21.168 14.496 21.232 13.216C19.952 12.896 18.704 12.256 17.488 11.296C16.336 10.272 15.76 8.896 15.76 7.168C15.76 5.12 16.336 3.456 17.488 2.17599C18.704 0.895996 20.24 0.255997 22.096 0.255997ZM7.408 0.255997C9.136 0.255997 10.576 0.991997 11.728 2.464C12.944 3.936 13.616 5.632 13.744 7.55199C13.936 9.91999 13.776 11.968 13.264 13.696C12.816 15.36 12.048 16.992 10.96 18.592C10.064 20.064 8.912 21.344 7.504 22.432C6.16 23.52 4.688 24.224 3.088 24.544C2.192 24.928 1.744 24.768 1.744 24.064V20.32C1.744 19.808 1.776 19.488 1.84 19.36C1.968 19.168 2.128 19.008 2.32 18.88C3.536 18.368 4.528 17.632 5.296 16.672C6.064 15.648 6.48 14.496 6.544 13.216C5.264 12.896 4.016 12.256 2.8 11.296C1.584 10.272 0.976 8.896 0.976 7.168C0.976 5.12 1.584 3.456 2.8 2.17599C4.016 0.895996 5.552 0.255997 7.408 0.255997Z" fill="#66A6FF"/>
</svg>
