<svg width="79" height="15" viewBox="0 0 79 15" fill="none" xmlns="http://www.w3.org/2000/svg">
<path d="M5.89865 3.14544C6.4277 1.79011 6.69223 1.11244 7.12199 1.01852C7.235 0.993826 7.35179 0.993826 7.46479 1.01852C7.89456 1.11244 8.15908 1.79011 8.68813 3.14544C8.98899 3.91619 9.13942 4.30156 9.4209 4.56368C9.49985 4.6372 9.58556 4.70268 9.67681 4.7592C10.0021 4.96069 10.4083 4.99807 11.2205 5.07282C12.5955 5.19937 13.283 5.26264 13.493 5.66546C13.5365 5.74888 13.566 5.83921 13.5805 5.93269C13.6501 6.38401 13.1446 6.85653 12.1338 7.80157L11.8531 8.064C11.3805 8.50582 11.1442 8.72673 11.0075 9.00243C10.9256 9.16781 10.8706 9.34591 10.8448 9.52962C10.8019 9.83586 10.8711 10.1563 11.0095 10.7973L11.0589 11.0263C11.3071 12.1757 11.4312 12.7505 11.2763 13.033C11.1371 13.2867 10.8808 13.4492 10.5977 13.4631C10.2825 13.4785 9.83844 13.1067 8.95022 12.3629C8.36503 11.8729 8.07243 11.6279 7.74762 11.5322C7.45078 11.4447 7.13601 11.4447 6.83917 11.5322C6.51435 11.6279 6.22176 11.8729 5.63657 12.3629C4.74835 13.1067 4.30424 13.4785 3.98905 13.4631C3.70594 13.4492 3.44965 13.2867 3.31051 13.033C3.1556 12.7505 3.27969 12.1757 3.52787 11.0263L3.57731 10.7973C3.7157 10.1563 3.7849 9.83586 3.74196 9.52962C3.7162 9.34591 3.66123 9.16781 3.57924 9.00243C3.44257 8.72673 3.20627 8.50582 2.73369 8.064L2.45299 7.80157C1.44215 6.85653 0.936731 6.38401 1.00633 5.93269C1.02075 5.83921 1.05031 5.74888 1.0938 5.66546C1.30374 5.26264 1.99125 5.19937 3.36626 5.07282C4.17851 4.99807 4.58464 4.96069 4.90998 4.7592C5.00123 4.70268 5.08693 4.6372 5.16589 4.56368C5.44736 4.30156 5.59779 3.91619 5.89865 3.14544Z" fill="#D1D1D1" stroke="#D1D1D1" stroke-width="2"/>
<path d="M21.9074 3.14544C22.4365 1.79011 22.701 1.11244 23.1308 1.01852C23.2438 0.993826 23.3606 0.993826 23.4736 1.01852C23.9033 1.11244 24.1679 1.79011 24.6969 3.14544C24.9978 3.91619 25.1482 4.30156 25.4297 4.56368C25.5086 4.6372 25.5943 4.70268 25.6856 4.7592C26.0109 4.96069 26.4171 4.99807 27.2293 5.07282C28.6043 5.19937 29.2918 5.26264 29.5018 5.66546C29.5453 5.74888 29.5748 5.83921 29.5892 5.93269C29.6588 6.38401 29.1534 6.85653 28.1426 7.80157L27.8619 8.064C27.3893 8.50582 27.153 8.72673 27.0163 9.00243C26.9344 9.16781 26.8794 9.34591 26.8536 9.52962C26.8107 9.83586 26.8799 10.1563 27.0183 10.7973L27.0677 11.0263C27.3159 12.1757 27.44 12.7505 27.2851 13.033C27.1459 13.2867 26.8896 13.4492 26.6065 13.4631C26.2913 13.4785 25.8472 13.1067 24.959 12.3629C24.3738 11.8729 24.0812 11.6279 23.7564 11.5322C23.4596 11.4447 23.1448 11.4447 22.848 11.5322C22.5231 11.6279 22.2305 11.8729 21.6454 12.3629C20.7571 13.1067 20.313 13.4785 19.9978 13.4631C19.7147 13.4492 19.4584 13.2867 19.3193 13.033C19.1644 12.7505 19.2885 12.1757 19.5367 11.0263L19.5861 10.7973C19.7245 10.1563 19.7937 9.83586 19.7507 9.52962C19.725 9.34591 19.67 9.16781 19.588 9.00243C19.4514 8.72673 19.2151 8.50582 18.7425 8.064L18.4618 7.80157C17.4509 6.85653 16.9455 6.38401 17.0151 5.93269C17.0295 5.83921 17.0591 5.74888 17.1026 5.66546C17.3125 5.26264 18 5.19937 19.375 5.07282C20.1873 4.99807 20.5934 4.96069 20.9188 4.7592C21.01 4.70268 21.0957 4.6372 21.1747 4.56368C21.4562 4.30156 21.6066 3.91619 21.9074 3.14544Z" fill="#D1D1D1" stroke="#D1D1D1" stroke-width="2"/>
<path d="M37.9153 3.14544C38.4443 1.79011 38.7088 1.11244 39.1386 1.01852C39.2516 0.993826 39.3684 0.993826 39.4814 1.01852C39.9112 1.11244 40.1757 1.79011 40.7047 3.14544C41.0056 3.91619 41.156 4.30156 41.4375 4.56368C41.5165 4.6372 41.6022 4.70268 41.6934 4.7592C42.0187 4.96069 42.4249 4.99807 43.2371 5.07282C44.6121 5.19937 45.2996 5.26264 45.5096 5.66546C45.5531 5.74888 45.5826 5.83921 45.5971 5.93269C45.6667 6.38401 45.1612 6.85653 44.1504 7.80157L43.8697 8.064C43.3971 8.50582 43.1608 8.72673 43.0241 9.00243C42.9422 9.16781 42.8872 9.34591 42.8614 9.52962C42.8185 9.83586 42.8877 10.1563 43.0261 10.7973L43.0755 11.0263C43.3237 12.1757 43.4478 12.7505 43.2929 13.033C43.1537 13.2867 42.8975 13.4492 42.6143 13.4631C42.2992 13.4785 41.855 13.1067 40.9668 12.3629C40.3816 11.8729 40.089 11.6279 39.7642 11.5322C39.4674 11.4447 39.1526 11.4447 38.8558 11.5322C38.531 11.6279 38.2384 11.8729 37.6532 12.3629C36.765 13.1067 36.3208 13.4785 36.0057 13.4631C35.7225 13.4492 35.4662 13.2867 35.3271 13.033C35.1722 12.7505 35.2963 12.1757 35.5445 11.0263L35.5939 10.7973C35.7323 10.1563 35.8015 9.83586 35.7586 9.52962C35.7328 9.34591 35.6778 9.16781 35.5958 9.00243C35.4592 8.72673 35.2229 8.50582 34.7503 8.064L34.4696 7.80157C33.4588 6.85653 32.9533 6.38401 33.0229 5.93269C33.0374 5.83921 33.0669 5.74888 33.1104 5.66546C33.3203 5.26264 34.0078 5.19937 35.3829 5.07282C36.1951 4.99807 36.6012 4.96069 36.9266 4.7592C37.0178 4.70268 37.1035 4.6372 37.1825 4.56368C37.464 4.30156 37.6144 3.91619 37.9153 3.14544Z" fill="#D1D1D1" stroke="#D1D1D1" stroke-width="2"/>
<path d="M53.924 3.14544C54.4531 1.79011 54.7176 1.11244 55.1474 1.01852C55.2604 0.993826 55.3772 0.993826 55.4902 1.01852C55.9199 1.11244 56.1845 1.79011 56.7135 3.14544C57.0144 3.91619 57.1648 4.30156 57.4463 4.56368C57.5252 4.6372 57.6109 4.70268 57.7022 4.7592C58.0275 4.96069 58.4337 4.99807 59.2459 5.07282C60.6209 5.19937 61.3084 5.26264 61.5184 5.66546C61.5619 5.74888 61.5914 5.83921 61.6058 5.93269C61.6754 6.38401 61.17 6.85653 60.1592 7.80157L59.8785 8.064C59.4059 8.50582 59.1696 8.72673 59.0329 9.00243C58.951 9.16781 58.896 9.34591 58.8702 9.52962C58.8273 9.83586 58.8965 10.1563 59.0349 10.7973L59.0843 11.0263C59.3325 12.1757 59.4566 12.7505 59.3017 13.033C59.1625 13.2867 58.9062 13.4492 58.6231 13.4631C58.3079 13.4785 57.8638 13.1067 56.9756 12.3629C56.3904 11.8729 56.0978 11.6279 55.773 11.5322C55.4762 11.4447 55.1614 11.4447 54.8646 11.5322C54.5397 11.6279 54.2471 11.8729 53.662 12.3629C52.7737 13.1067 52.3296 13.4785 52.0144 13.4631C51.7313 13.4492 51.475 13.2867 51.3359 13.033C51.181 12.7505 51.3051 12.1757 51.5533 11.0263L51.6027 10.7973C51.7411 10.1563 51.8103 9.83586 51.7673 9.52962C51.7416 9.34591 51.6866 9.16781 51.6046 9.00243C51.468 8.72673 51.2317 8.50582 50.7591 8.064L50.4784 7.80157C49.4675 6.85653 48.9621 6.38401 49.0317 5.93269C49.0461 5.83921 49.0757 5.74888 49.1192 5.66546C49.3291 5.26264 50.0166 5.19937 51.3916 5.07282C52.2039 4.99807 52.61 4.96069 52.9354 4.7592C53.0266 4.70268 53.1123 4.6372 53.1913 4.56368C53.4728 4.30156 53.6232 3.91619 53.924 3.14544Z" fill="#D1D1D1" stroke="#D1D1D1" stroke-width="2"/>
<path d="M69.9328 3.14544C70.4619 1.79011 70.7264 1.11244 71.1562 1.01852C71.2692 0.993826 71.386 0.993826 71.499 1.01852C71.9287 1.11244 72.1933 1.79011 72.7223 3.14544C73.0232 3.91619 73.1736 4.30156 73.4551 4.56368C73.534 4.6372 73.6197 4.70268 73.711 4.7592C74.0363 4.96069 74.4425 4.99807 75.2547 5.07282C76.6297 5.19937 77.3172 5.26264 77.5272 5.66546C77.5707 5.74888 77.6002 5.83921 77.6146 5.93269C77.6842 6.38401 77.1788 6.85653 76.168 7.80157L75.8873 8.064C75.4147 8.50582 75.1784 8.72673 75.0417 9.00243C74.9597 9.16781 74.9048 9.34591 74.879 9.52962C74.8361 9.83586 74.9053 10.1563 75.0437 10.7973L75.0931 11.0263C75.3413 12.1757 75.4654 12.7505 75.3105 13.033C75.1713 13.2867 74.915 13.4492 74.6319 13.4631C74.3167 13.4785 73.8726 13.1067 72.9844 12.3629C72.3992 11.8729 72.1066 11.6279 71.7818 11.5322C71.485 11.4447 71.1702 11.4447 70.8734 11.5322C70.5485 11.6279 70.2559 11.8729 69.6707 12.3629C68.7825 13.1067 68.3384 13.4785 68.0232 13.4631C67.7401 13.4492 67.4838 13.2867 67.3447 13.033C67.1898 12.7505 67.3139 12.1757 67.562 11.0263L67.6115 10.7973C67.7499 10.1563 67.8191 9.83586 67.7761 9.52962C67.7504 9.34591 67.6954 9.16781 67.6134 9.00243C67.4767 8.72673 67.2405 8.50582 66.7679 8.064L66.4872 7.80157C65.4763 6.85653 64.9709 6.38401 65.0405 5.93269C65.0549 5.83921 65.0845 5.74888 65.128 5.66546C65.3379 5.26264 66.0254 5.19937 67.4004 5.07282C68.2127 4.99807 68.6188 4.96069 68.9442 4.7592C69.0354 4.70268 69.1211 4.6372 69.2001 4.56368C69.4815 4.30156 69.632 3.91619 69.9328 3.14544Z" fill="#D1D1D1" stroke="#D1D1D1" stroke-width="2"/>
</svg>
