<svg width="467" height="54" viewBox="0 0 467 54" fill="none" xmlns="http://www.w3.org/2000/svg">
<rect width="467" height="54" rx="25" fill="#EDF9FF"/>
<path d="M115.4 30.886C115.592 30.85 115.694 30.892 115.706 31.012L115.814 31.696C115.838 31.828 115.76 31.912 115.58 31.948C115.148 32.02 114.692 32.092 114.212 32.164C113.732 32.236 113.246 32.302 112.754 32.362C112.262 32.422 111.764 32.476 111.26 32.524C110.768 32.56 110.3 32.584 109.856 32.596C109.508 32.608 109.088 32.62 108.596 32.632C108.116 32.644 107.618 32.656 107.102 32.668C106.598 32.668 106.106 32.674 105.626 32.686C105.146 32.686 104.738 32.68 104.402 32.668C104.33 32.668 104.264 32.644 104.204 32.596C104.156 32.548 104.132 32.494 104.132 32.434V31.822C104.132 31.75 104.156 31.696 104.204 31.66C104.264 31.612 104.33 31.588 104.402 31.588C104.666 31.6 104.99 31.612 105.374 31.624C105.77 31.624 106.184 31.624 106.616 31.624C107.048 31.612 107.486 31.606 107.93 31.606C108.374 31.594 108.788 31.582 109.172 31.57V29.662C108.68 29.614 108.23 29.512 107.822 29.356C107.426 29.188 107.084 28.978 106.796 28.726C106.508 28.462 106.28 28.162 106.112 27.826C105.956 27.478 105.878 27.106 105.878 26.71C105.878 26.266 105.974 25.864 106.166 25.504C106.37 25.132 106.646 24.82 106.994 24.568C107.342 24.304 107.75 24.106 108.218 23.974C108.698 23.83 109.22 23.758 109.784 23.758C110.336 23.758 110.852 23.83 111.332 23.974C111.812 24.118 112.226 24.322 112.574 24.586C112.922 24.838 113.192 25.144 113.384 25.504C113.588 25.864 113.69 26.266 113.69 26.71C113.69 27.118 113.606 27.49 113.438 27.826C113.282 28.162 113.06 28.456 112.772 28.708C112.484 28.96 112.136 29.17 111.728 29.338C111.332 29.494 110.894 29.596 110.414 29.644V31.516C110.786 31.492 111.194 31.456 111.638 31.408C112.082 31.36 112.526 31.312 112.97 31.264C113.414 31.204 113.846 31.144 114.266 31.084C114.686 31.012 115.064 30.946 115.4 30.886ZM117.848 35.476C117.848 35.644 117.764 35.728 117.596 35.728H116.858C116.69 35.728 116.606 35.644 116.606 35.476V19.384C116.606 19.216 116.69 19.132 116.858 19.132H117.596C117.764 19.132 117.848 19.216 117.848 19.384V35.476ZM112.466 26.71C112.466 26.098 112.214 25.63 111.71 25.306C111.206 24.982 110.564 24.82 109.784 24.82C109.4 24.82 109.04 24.862 108.704 24.946C108.38 25.03 108.098 25.15 107.858 25.306C107.618 25.462 107.426 25.66 107.282 25.9C107.15 26.14 107.084 26.41 107.084 26.71C107.084 27.01 107.15 27.28 107.282 27.52C107.426 27.748 107.618 27.946 107.858 28.114C108.098 28.27 108.38 28.396 108.704 28.492C109.04 28.576 109.4 28.618 109.784 28.618C110.564 28.618 111.206 28.45 111.71 28.114C112.214 27.778 112.466 27.31 112.466 26.71ZM114.842 22.588C114.842 22.744 114.752 22.822 114.572 22.822H104.996C104.936 22.822 104.876 22.798 104.816 22.75C104.768 22.702 104.744 22.642 104.744 22.57V21.976C104.744 21.904 104.768 21.844 104.816 21.796C104.876 21.748 104.936 21.724 104.996 21.724H114.572C114.752 21.724 114.842 21.802 114.842 21.958V22.588ZM112.304 20.32C112.304 20.488 112.214 20.572 112.034 20.572H107.282C107.222 20.572 107.162 20.554 107.102 20.518C107.054 20.47 107.03 20.41 107.03 20.338V19.726C107.03 19.654 107.054 19.594 107.102 19.546C107.15 19.498 107.204 19.474 107.264 19.474H112.034C112.214 19.474 112.304 19.558 112.304 19.726V20.32ZM130.528 22.804C130.528 23.26 130.426 23.686 130.222 24.082C130.018 24.478 129.73 24.826 129.358 25.126C128.998 25.414 128.566 25.648 128.062 25.828C127.558 25.996 127.012 26.08 126.424 26.08C125.848 26.08 125.314 25.996 124.822 25.828C124.33 25.66 123.904 25.426 123.544 25.126C123.184 24.826 122.902 24.478 122.698 24.082C122.494 23.686 122.392 23.26 122.392 22.804C122.392 22.3 122.494 21.844 122.698 21.436C122.902 21.028 123.184 20.68 123.544 20.392C123.904 20.104 124.33 19.888 124.822 19.744C125.314 19.588 125.848 19.51 126.424 19.51C126.976 19.51 127.498 19.588 127.99 19.744C128.482 19.9 128.914 20.122 129.286 20.41C129.67 20.686 129.97 21.028 130.186 21.436C130.414 21.844 130.528 22.3 130.528 22.804ZM133.534 29.176V19.384C133.534 19.216 133.618 19.132 133.786 19.132H134.524C134.692 19.132 134.776 19.216 134.776 19.384V32.254C134.776 32.422 134.692 32.506 134.524 32.506H133.786C133.618 32.506 133.534 32.422 133.534 32.254V30.256H129.934C129.778 30.256 129.7 30.184 129.7 30.04V29.392C129.7 29.248 129.778 29.176 129.934 29.176H133.534ZM129.34 22.786C129.34 22.426 129.262 22.108 129.106 21.832C128.95 21.556 128.74 21.328 128.476 21.148C128.212 20.956 127.9 20.812 127.54 20.716C127.192 20.62 126.82 20.572 126.424 20.572C126.016 20.572 125.638 20.62 125.29 20.716C124.942 20.812 124.642 20.956 124.39 21.148C124.138 21.34 123.94 21.574 123.796 21.85C123.652 22.114 123.58 22.426 123.58 22.786C123.58 23.47 123.838 24.016 124.354 24.424C124.882 24.832 125.572 25.036 126.424 25.036C126.82 25.036 127.192 24.982 127.54 24.874C127.9 24.754 128.212 24.598 128.476 24.406C128.74 24.202 128.95 23.962 129.106 23.686C129.262 23.41 129.34 23.11 129.34 22.786ZM126.064 31.57C126.004 31.57 125.95 31.546 125.902 31.498C125.854 31.438 125.83 31.372 125.83 31.3V28.402C125.458 28.426 125.062 28.444 124.642 28.456C124.222 28.468 123.808 28.48 123.4 28.492C123.004 28.504 122.626 28.516 122.266 28.528C121.918 28.528 121.624 28.522 121.384 28.51C121.312 28.51 121.246 28.486 121.186 28.438C121.138 28.39 121.114 28.336 121.114 28.276V27.664C121.114 27.592 121.138 27.538 121.186 27.502C121.246 27.454 121.312 27.43 121.384 27.43C121.732 27.43 122.146 27.43 122.626 27.43C123.106 27.418 123.598 27.406 124.102 27.394C124.606 27.382 125.092 27.37 125.56 27.358C126.028 27.334 126.424 27.31 126.748 27.286C127.168 27.262 127.636 27.226 128.152 27.178C128.668 27.13 129.184 27.076 129.7 27.016C130.216 26.956 130.702 26.896 131.158 26.836C131.626 26.764 132.016 26.698 132.328 26.638C132.388 26.626 132.442 26.638 132.49 26.674C132.55 26.698 132.586 26.734 132.598 26.782L132.688 27.394C132.7 27.538 132.628 27.628 132.472 27.664C131.704 27.796 130.84 27.928 129.88 28.06C128.932 28.18 127.996 28.27 127.072 28.33V31.3C127.072 31.372 127.048 31.438 127 31.498C126.964 31.546 126.91 31.57 126.838 31.57H126.064ZM135.208 35.188C135.208 35.26 135.178 35.314 135.118 35.35C135.058 35.386 134.998 35.404 134.938 35.404H125.146C124.582 35.404 124.21 35.296 124.03 35.08C123.862 34.876 123.778 34.528 123.778 34.036V31.768C123.778 31.6 123.862 31.516 124.03 31.516H124.768C124.936 31.516 125.02 31.6 125.02 31.768V33.946C125.02 34.114 125.044 34.216 125.092 34.252C125.152 34.3 125.266 34.324 125.434 34.324H134.938C134.998 34.324 135.058 34.342 135.118 34.378C135.178 34.426 135.208 34.48 135.208 34.54V35.188ZM146.34 21.778C146.28 22.81 146.076 23.824 145.728 24.82C145.38 25.816 144.894 26.77 144.27 27.682C143.658 28.582 142.914 29.422 142.038 30.202C141.174 30.97 140.19 31.648 139.086 32.236C138.93 32.32 138.816 32.302 138.744 32.182L138.348 31.552C138.264 31.408 138.288 31.306 138.42 31.246C139.44 30.718 140.34 30.118 141.12 29.446C141.912 28.762 142.584 28.024 143.136 27.232C143.7 26.44 144.144 25.606 144.468 24.73C144.792 23.854 144.996 22.954 145.08 22.03C145.104 21.85 145.08 21.73 145.008 21.67C144.936 21.598 144.816 21.562 144.648 21.562H139.068C138.924 21.562 138.852 21.484 138.852 21.328V20.698C138.852 20.554 138.924 20.482 139.068 20.482H144.99C145.554 20.482 145.926 20.59 146.106 20.806C146.286 21.01 146.364 21.334 146.34 21.778ZM151.074 35.476C151.074 35.644 150.99 35.728 150.822 35.728H150.084C149.916 35.728 149.832 35.644 149.832 35.476V19.384C149.832 19.216 149.916 19.132 150.084 19.132H150.822C150.99 19.132 151.074 19.216 151.074 19.384V25.756H153.558C153.63 25.756 153.69 25.78 153.738 25.828C153.798 25.864 153.828 25.918 153.828 25.99V26.602C153.828 26.662 153.798 26.716 153.738 26.764C153.69 26.812 153.63 26.836 153.558 26.836H151.074V35.476ZM168.632 27.682C168.632 27.85 168.548 27.934 168.38 27.934H167.642C167.474 27.934 167.39 27.85 167.39 27.682V19.384C167.39 19.216 167.474 19.132 167.642 19.132H168.38C168.548 19.132 168.632 19.216 168.632 19.384V27.682ZM164.24 23.614C164.24 24.19 164.126 24.724 163.898 25.216C163.67 25.708 163.364 26.134 162.98 26.494C162.596 26.854 162.14 27.136 161.612 27.34C161.096 27.544 160.544 27.646 159.956 27.646C159.38 27.646 158.834 27.55 158.318 27.358C157.814 27.154 157.37 26.878 156.986 26.53C156.602 26.17 156.296 25.744 156.068 25.252C155.852 24.76 155.744 24.214 155.744 23.614C155.744 22.978 155.852 22.414 156.068 21.922C156.296 21.418 156.602 20.992 156.986 20.644C157.37 20.296 157.814 20.032 158.318 19.852C158.834 19.66 159.38 19.564 159.956 19.564C160.496 19.564 161.024 19.66 161.54 19.852C162.056 20.032 162.512 20.296 162.908 20.644C163.316 20.992 163.64 21.418 163.88 21.922C164.12 22.414 164.24 22.978 164.24 23.614ZM162.98 23.596C162.98 23.128 162.896 22.714 162.728 22.354C162.56 21.994 162.332 21.694 162.044 21.454C161.768 21.202 161.45 21.016 161.09 20.896C160.73 20.764 160.352 20.698 159.956 20.698C159.56 20.698 159.182 20.764 158.822 20.896C158.462 21.016 158.144 21.196 157.868 21.436C157.604 21.676 157.394 21.982 157.238 22.354C157.082 22.714 157.004 23.128 157.004 23.596C157.004 24.04 157.076 24.442 157.22 24.802C157.376 25.162 157.586 25.474 157.85 25.738C158.114 25.99 158.426 26.188 158.786 26.332C159.146 26.464 159.536 26.53 159.956 26.53C160.352 26.53 160.73 26.464 161.09 26.332C161.45 26.188 161.768 25.99 162.044 25.738C162.332 25.486 162.56 25.18 162.728 24.82C162.896 24.46 162.98 24.052 162.98 23.596ZM159.704 35.584C159.416 35.584 159.182 35.566 159.002 35.53C158.834 35.494 158.702 35.422 158.606 35.314C158.51 35.218 158.444 35.086 158.408 34.918C158.372 34.762 158.354 34.558 158.354 34.306V29.14C158.354 29.08 158.378 29.032 158.426 28.996C158.474 28.96 158.528 28.942 158.588 28.942H159.38C159.44 28.942 159.488 28.966 159.524 29.014C159.572 29.05 159.596 29.092 159.596 29.14V31.048H167.39V29.176C167.39 29.116 167.408 29.062 167.444 29.014C167.492 28.966 167.546 28.942 167.606 28.942H168.398C168.458 28.942 168.512 28.966 168.56 29.014C168.608 29.05 168.632 29.098 168.632 29.158V34.432C168.632 34.888 168.536 35.194 168.344 35.35C168.152 35.506 167.792 35.584 167.264 35.584H159.704ZM159.596 32.128V34.072C159.596 34.252 159.626 34.366 159.686 34.414C159.746 34.474 159.86 34.504 160.028 34.504H166.958C167.126 34.504 167.24 34.474 167.3 34.414C167.36 34.366 167.39 34.252 167.39 34.072V32.128H159.596ZM190.604 29.122C190.604 29.29 190.52 29.374 190.352 29.374H189.614C189.446 29.374 189.362 29.29 189.362 29.122V19.384C189.362 19.216 189.446 19.132 189.614 19.132H190.352C190.52 19.132 190.604 19.216 190.604 19.384V29.122ZM190.766 32.776C190.766 33.268 190.628 33.7 190.352 34.072C190.076 34.456 189.698 34.774 189.218 35.026C188.738 35.278 188.18 35.47 187.544 35.602C186.92 35.734 186.248 35.8 185.528 35.8C184.748 35.8 184.034 35.734 183.386 35.602C182.75 35.47 182.204 35.278 181.748 35.026C181.292 34.774 180.938 34.456 180.686 34.072C180.434 33.7 180.308 33.268 180.308 32.776C180.308 32.284 180.434 31.852 180.686 31.48C180.938 31.108 181.292 30.796 181.748 30.544C182.204 30.292 182.75 30.106 183.386 29.986C184.034 29.854 184.748 29.788 185.528 29.788C186.248 29.788 186.92 29.854 187.544 29.986C188.18 30.106 188.738 30.292 189.218 30.544C189.698 30.796 190.076 31.108 190.352 31.48C190.628 31.852 190.766 32.284 190.766 32.776ZM189.488 32.83C189.488 32.482 189.38 32.182 189.164 31.93C188.948 31.678 188.654 31.474 188.282 31.318C187.91 31.162 187.484 31.048 187.004 30.976C186.524 30.904 186.026 30.868 185.51 30.868C184.934 30.868 184.4 30.904 183.908 30.976C183.428 31.048 183.014 31.162 182.666 31.318C182.33 31.474 182.066 31.678 181.874 31.93C181.682 32.182 181.586 32.482 181.586 32.83C181.586 33.154 181.682 33.436 181.874 33.676C182.066 33.916 182.33 34.114 182.666 34.27C183.014 34.426 183.428 34.54 183.908 34.612C184.4 34.684 184.934 34.72 185.51 34.72C186.026 34.72 186.524 34.684 187.004 34.612C187.484 34.54 187.91 34.426 188.282 34.27C188.654 34.114 188.948 33.916 189.164 33.676C189.38 33.436 189.488 33.154 189.488 32.83ZM179.48 28.132C178.94 28.132 178.574 28.03 178.382 27.826C178.202 27.61 178.112 27.25 178.112 26.746V24.622C178.112 24.118 178.214 23.782 178.418 23.614C178.634 23.434 179.012 23.344 179.552 23.344H183.89C184.058 23.344 184.166 23.32 184.214 23.272C184.262 23.224 184.286 23.11 184.286 22.93V21.31C184.286 21.13 184.262 21.016 184.214 20.968C184.178 20.92 184.076 20.896 183.908 20.896H178.4C178.256 20.896 178.184 20.818 178.184 20.662V20.032C178.184 19.888 178.256 19.816 178.4 19.816H184.106C184.394 19.816 184.628 19.84 184.808 19.888C184.988 19.924 185.132 19.99 185.24 20.086C185.348 20.182 185.42 20.32 185.456 20.5C185.504 20.668 185.528 20.878 185.528 21.13V23.146C185.528 23.65 185.42 23.992 185.204 24.172C185 24.34 184.628 24.424 184.088 24.424H179.732C179.564 24.424 179.456 24.448 179.408 24.496C179.372 24.544 179.354 24.658 179.354 24.838V26.656C179.354 26.932 179.486 27.07 179.75 27.07C180.458 27.07 181.136 27.058 181.784 27.034C182.432 27.01 183.062 26.974 183.674 26.926C184.298 26.866 184.91 26.8 185.51 26.728C186.11 26.644 186.722 26.548 187.346 26.44C187.466 26.416 187.544 26.416 187.58 26.44C187.628 26.464 187.664 26.524 187.688 26.62L187.796 27.196C187.82 27.304 187.808 27.376 187.76 27.412C187.724 27.448 187.652 27.478 187.544 27.502C186.416 27.706 185.156 27.868 183.764 27.988C182.372 28.096 180.944 28.144 179.48 28.132ZM195.922 20.536C195.922 20.464 195.952 20.41 196.012 20.374C196.072 20.338 196.132 20.32 196.192 20.32H205.714C206.002 20.32 206.23 20.35 206.398 20.41C206.578 20.47 206.716 20.56 206.812 20.68C206.908 20.788 206.974 20.932 207.01 21.112C207.046 21.292 207.07 21.508 207.082 21.76C207.094 22.084 207.088 22.504 207.064 23.02C207.052 23.524 207.028 24.076 206.992 24.676C206.956 25.276 206.908 25.906 206.848 26.566C206.8 27.226 206.74 27.874 206.668 28.51C206.608 29.146 206.542 29.752 206.47 30.328C206.398 30.892 206.326 31.384 206.254 31.804H209.152C209.212 31.804 209.272 31.828 209.332 31.876C209.392 31.912 209.422 31.966 209.422 32.038V32.65C209.422 32.71 209.392 32.764 209.332 32.812C209.272 32.86 209.212 32.884 209.152 32.884H193.852C193.78 32.884 193.714 32.86 193.654 32.812C193.606 32.764 193.582 32.71 193.582 32.65V32.038C193.582 31.966 193.606 31.912 193.654 31.876C193.714 31.828 193.78 31.804 193.852 31.804H205.03C205.09 31.552 205.15 31.24 205.21 30.868C205.27 30.484 205.324 30.064 205.372 29.608C205.432 29.14 205.486 28.648 205.534 28.132C205.594 27.616 205.642 27.094 205.678 26.566C205.498 26.59 205.264 26.608 204.976 26.62C204.7 26.632 204.412 26.644 204.112 26.656C203.824 26.656 203.56 26.662 203.32 26.674C203.08 26.674 202.918 26.674 202.834 26.674C202.546 26.686 202.102 26.698 201.502 26.71C200.914 26.71 200.284 26.716 199.612 26.728C198.952 26.728 198.316 26.734 197.704 26.746C197.104 26.746 196.642 26.746 196.318 26.746C196.162 26.746 196.084 26.674 196.084 26.53V25.918C196.084 25.774 196.162 25.702 196.318 25.702C196.558 25.702 196.858 25.702 197.218 25.702C197.59 25.702 197.986 25.702 198.406 25.702C198.838 25.69 199.276 25.684 199.72 25.684C200.176 25.672 200.596 25.666 200.98 25.666C201.376 25.654 201.73 25.648 202.042 25.648C202.354 25.648 202.582 25.642 202.726 25.63C202.798 25.63 202.966 25.624 203.23 25.612C203.494 25.6 203.782 25.594 204.094 25.594C204.418 25.582 204.736 25.57 205.048 25.558C205.36 25.546 205.6 25.528 205.768 25.504C205.816 24.736 205.846 24.022 205.858 23.362C205.882 22.702 205.882 22.174 205.858 21.778C205.846 21.61 205.816 21.508 205.768 21.472C205.72 21.424 205.612 21.4 205.444 21.4H196.192C196.132 21.4 196.072 21.382 196.012 21.346C195.952 21.298 195.922 21.244 195.922 21.184V20.536ZM219.096 21.778C219.036 22.81 218.832 23.824 218.484 24.82C218.136 25.816 217.65 26.77 217.026 27.682C216.414 28.582 215.67 29.422 214.794 30.202C213.93 30.97 212.946 31.648 211.842 32.236C211.686 32.32 211.572 32.302 211.5 32.182L211.104 31.552C211.02 31.408 211.044 31.306 211.176 31.246C212.196 30.718 213.096 30.118 213.876 29.446C214.668 28.762 215.34 28.024 215.892 27.232C216.456 26.44 216.9 25.606 217.224 24.73C217.548 23.854 217.752 22.954 217.836 22.03C217.86 21.85 217.836 21.73 217.764 21.67C217.692 21.598 217.572 21.562 217.404 21.562H211.824C211.68 21.562 211.608 21.484 211.608 21.328V20.698C211.608 20.554 211.68 20.482 211.824 20.482H217.746C218.31 20.482 218.682 20.59 218.862 20.806C219.042 21.01 219.12 21.334 219.096 21.778ZM223.83 35.476C223.83 35.644 223.746 35.728 223.578 35.728H222.84C222.672 35.728 222.588 35.644 222.588 35.476V19.384C222.588 19.216 222.672 19.132 222.84 19.132H223.578C223.746 19.132 223.83 19.216 223.83 19.384V25.756H226.314C226.386 25.756 226.446 25.78 226.494 25.828C226.554 25.864 226.584 25.918 226.584 25.99V26.602C226.584 26.662 226.554 26.716 226.494 26.764C226.446 26.812 226.386 26.836 226.314 26.836H223.83V35.476ZM242.22 25.99C242.22 26.662 242.136 27.34 241.968 28.024C241.812 28.708 241.56 29.326 241.212 29.878C240.864 30.43 240.414 30.886 239.862 31.246C239.322 31.594 238.668 31.768 237.9 31.768C237.108 31.768 236.436 31.594 235.884 31.246C235.344 30.898 234.906 30.448 234.57 29.896C234.246 29.332 234.012 28.708 233.868 28.024C233.724 27.34 233.652 26.662 233.652 25.99C233.652 25.282 233.724 24.586 233.868 23.902C234.012 23.206 234.246 22.582 234.57 22.03C234.906 21.478 235.344 21.034 235.884 20.698C236.436 20.362 237.108 20.194 237.9 20.194C238.668 20.194 239.322 20.362 239.862 20.698C240.414 21.034 240.864 21.478 241.212 22.03C241.56 22.57 241.812 23.188 241.968 23.884C242.136 24.568 242.22 25.27 242.22 25.99ZM240.942 25.972C240.942 25.42 240.882 24.862 240.762 24.298C240.654 23.734 240.48 23.23 240.24 22.786C240 22.33 239.688 21.964 239.304 21.688C238.92 21.4 238.452 21.256 237.9 21.256C237.324 21.256 236.844 21.4 236.46 21.688C236.088 21.964 235.788 22.33 235.56 22.786C235.332 23.23 235.17 23.734 235.074 24.298C234.978 24.862 234.93 25.42 234.93 25.972C234.93 26.5 234.972 27.046 235.056 27.61C235.152 28.162 235.314 28.672 235.542 29.14C235.77 29.596 236.076 29.974 236.46 30.274C236.844 30.562 237.324 30.706 237.9 30.706C238.452 30.706 238.92 30.562 239.304 30.274C239.688 29.974 240 29.596 240.24 29.14C240.48 28.672 240.654 28.162 240.762 27.61C240.882 27.046 240.942 26.5 240.942 25.972ZM246.432 35.476C246.432 35.644 246.348 35.728 246.18 35.728H245.442C245.274 35.728 245.19 35.644 245.19 35.476V19.384C245.19 19.216 245.274 19.132 245.442 19.132H246.18C246.348 19.132 246.432 19.216 246.432 19.384V35.476ZM250.238 21.85C250.238 21.346 250.334 21.01 250.526 20.842C250.718 20.662 251.078 20.572 251.606 20.572H255.908C256.196 20.572 256.424 20.59 256.592 20.626C256.772 20.662 256.91 20.728 257.006 20.824C257.114 20.92 257.186 21.052 257.222 21.22C257.258 21.388 257.276 21.598 257.276 21.85V25.324H259.58V19.69C259.58 19.522 259.664 19.438 259.832 19.438H260.516C260.684 19.438 260.768 19.522 260.768 19.69V34.792C260.768 34.96 260.684 35.044 260.516 35.044H259.832C259.664 35.044 259.58 34.96 259.58 34.792V26.404H257.276V29.644C257.276 30.148 257.18 30.49 256.988 30.67C256.796 30.838 256.436 30.922 255.908 30.922H251.606C251.318 30.922 251.084 30.904 250.904 30.868C250.736 30.832 250.598 30.766 250.49 30.67C250.394 30.562 250.328 30.43 250.292 30.274C250.256 30.106 250.238 29.896 250.238 29.644V21.85ZM251.912 21.652C251.744 21.652 251.63 21.688 251.57 21.76C251.51 21.82 251.48 21.94 251.48 22.12V29.374C251.48 29.554 251.51 29.68 251.57 29.752C251.63 29.812 251.744 29.842 251.912 29.842H255.602C255.77 29.842 255.884 29.812 255.944 29.752C256.004 29.68 256.034 29.554 256.034 29.374V22.12C256.034 21.94 256.004 21.82 255.944 21.76C255.884 21.688 255.77 21.652 255.602 21.652H251.912ZM263.954 35.476C263.954 35.644 263.87 35.728 263.702 35.728H263.018C262.85 35.728 262.766 35.644 262.766 35.476V19.384C262.766 19.216 262.85 19.132 263.018 19.132H263.702C263.87 19.132 263.954 19.216 263.954 19.384V35.476ZM280.288 27.574C280.288 27.742 280.204 27.826 280.036 27.826H279.298C279.13 27.826 279.046 27.742 279.046 27.574V19.384C279.046 19.216 279.13 19.132 279.298 19.132H280.036C280.204 19.132 280.288 19.216 280.288 19.384V27.574ZM275.824 23.452C275.824 24.016 275.71 24.538 275.482 25.018C275.266 25.486 274.966 25.894 274.582 26.242C274.198 26.59 273.748 26.866 273.232 27.07C272.716 27.262 272.164 27.358 271.576 27.358C271 27.358 270.46 27.262 269.956 27.07C269.464 26.878 269.026 26.614 268.642 26.278C268.27 25.93 267.976 25.516 267.76 25.036C267.544 24.556 267.436 24.028 267.436 23.452C267.436 22.84 267.544 22.294 267.76 21.814C267.976 21.322 268.27 20.908 268.642 20.572C269.026 20.236 269.464 19.978 269.956 19.798C270.46 19.618 271 19.528 271.576 19.528C272.116 19.528 272.638 19.618 273.142 19.798C273.658 19.978 274.114 20.236 274.51 20.572C274.906 20.908 275.224 21.322 275.464 21.814C275.704 22.294 275.824 22.84 275.824 23.452ZM274.564 23.434C274.564 22.99 274.48 22.594 274.312 22.246C274.144 21.898 273.922 21.61 273.646 21.382C273.37 21.154 273.052 20.98 272.692 20.86C272.332 20.74 271.96 20.68 271.576 20.68C271.18 20.68 270.802 20.74 270.442 20.86C270.094 20.968 269.788 21.136 269.524 21.364C269.272 21.592 269.068 21.88 268.912 22.228C268.768 22.576 268.696 22.978 268.696 23.434C268.696 23.866 268.768 24.256 268.912 24.604C269.056 24.94 269.254 25.234 269.506 25.486C269.77 25.726 270.076 25.912 270.424 26.044C270.772 26.164 271.156 26.224 271.576 26.224C271.96 26.224 272.332 26.164 272.692 26.044C273.052 25.912 273.37 25.726 273.646 25.486C273.922 25.246 274.144 24.952 274.312 24.604C274.48 24.256 274.564 23.866 274.564 23.434ZM280.666 35.566C280.666 35.626 280.636 35.674 280.576 35.71C280.528 35.758 280.48 35.782 280.432 35.782H271.378C270.814 35.782 270.442 35.674 270.262 35.458C270.094 35.254 270.01 34.9 270.01 34.396V33.046C270.01 32.542 270.112 32.206 270.316 32.038C270.532 31.858 270.91 31.768 271.45 31.768H278.65C278.818 31.768 278.926 31.744 278.974 31.696C279.022 31.648 279.046 31.534 279.046 31.354V30.328C279.046 30.148 279.022 30.034 278.974 29.986C278.938 29.938 278.836 29.914 278.668 29.914H270.226C270.166 29.914 270.106 29.896 270.046 29.86C269.998 29.824 269.974 29.776 269.974 29.716V29.068C269.974 29.008 269.998 28.96 270.046 28.924C270.106 28.888 270.166 28.87 270.226 28.87H278.866C279.154 28.87 279.388 28.894 279.568 28.942C279.748 28.978 279.892 29.044 280 29.14C280.108 29.236 280.18 29.374 280.216 29.554C280.264 29.722 280.288 29.932 280.288 30.184V31.534C280.288 32.038 280.18 32.38 279.964 32.56C279.76 32.728 279.388 32.812 278.848 32.812H271.63C271.462 32.812 271.354 32.836 271.306 32.884C271.27 32.932 271.252 33.046 271.252 33.226V34.324C271.252 34.492 271.276 34.6 271.324 34.648C271.372 34.708 271.48 34.738 271.648 34.738H280.414C280.474 34.738 280.528 34.756 280.576 34.792C280.636 34.828 280.666 34.876 280.666 34.936V35.566ZM290.52 31.804V28.672H286.92C286.356 28.672 285.984 28.57 285.804 28.366C285.636 28.15 285.552 27.79 285.552 27.286V25.036C285.552 24.52 285.654 24.178 285.858 24.01C286.074 23.842 286.452 23.758 286.992 23.758H295.11C295.278 23.758 295.38 23.734 295.416 23.686C295.464 23.638 295.488 23.524 295.488 23.344V21.472C295.488 21.292 295.464 21.178 295.416 21.13C295.38 21.082 295.278 21.058 295.11 21.058H285.804C285.744 21.058 285.684 21.04 285.624 21.004C285.576 20.968 285.552 20.92 285.552 20.86V20.176C285.552 20.116 285.576 20.068 285.624 20.032C285.684 19.996 285.744 19.978 285.804 19.978H295.308C295.596 19.978 295.83 20.002 296.01 20.05C296.19 20.086 296.334 20.152 296.442 20.248C296.55 20.344 296.622 20.482 296.658 20.662C296.706 20.83 296.73 21.04 296.73 21.292V23.542C296.73 24.058 296.622 24.4 296.406 24.568C296.202 24.736 295.83 24.82 295.29 24.82H287.172C287.004 24.82 286.896 24.844 286.848 24.892C286.812 24.94 286.794 25.054 286.794 25.234V27.178C286.794 27.346 286.818 27.46 286.866 27.52C286.914 27.568 287.022 27.592 287.19 27.592H296.856C296.916 27.592 296.97 27.61 297.018 27.646C297.078 27.682 297.108 27.73 297.108 27.79V28.456C297.108 28.516 297.078 28.57 297.018 28.618C296.97 28.654 296.922 28.672 296.874 28.672H291.762V31.804H298.836C298.896 31.804 298.956 31.828 299.016 31.876C299.076 31.912 299.106 31.966 299.106 32.038V32.65C299.106 32.71 299.076 32.764 299.016 32.812C298.956 32.86 298.896 32.884 298.836 32.884H283.536C283.464 32.884 283.398 32.86 283.338 32.812C283.29 32.764 283.266 32.71 283.266 32.65V32.038C283.266 31.966 283.29 31.912 283.338 31.876C283.398 31.828 283.464 31.804 283.536 31.804H290.52ZM314.004 21.85C313.836 22.354 313.596 22.864 313.284 23.38C312.972 23.896 312.606 24.406 312.186 24.91C312.666 25.474 313.218 26.008 313.842 26.512C314.478 27.004 315.102 27.412 315.714 27.736C315.87 27.808 315.906 27.922 315.822 28.078L315.408 28.69C315.372 28.75 315.318 28.786 315.246 28.798C315.174 28.798 315.108 28.78 315.048 28.744C314.436 28.408 313.812 27.976 313.176 27.448C312.552 26.92 311.97 26.362 311.43 25.774C310.746 26.494 309.996 27.154 309.18 27.754C308.364 28.354 307.542 28.846 306.714 29.23C306.654 29.254 306.594 29.278 306.534 29.302C306.474 29.314 306.426 29.29 306.39 29.23L306.03 28.6C305.994 28.54 305.988 28.48 306.012 28.42C306.036 28.348 306.078 28.3 306.138 28.276C307.554 27.556 308.82 26.662 309.936 25.594C311.064 24.526 311.964 23.302 312.636 21.922C312.72 21.754 312.732 21.634 312.672 21.562C312.612 21.49 312.498 21.454 312.33 21.454H307.056C306.912 21.454 306.84 21.376 306.84 21.22V20.59C306.84 20.446 306.912 20.374 307.056 20.374H312.816C313.44 20.374 313.842 20.488 314.022 20.716C314.202 20.932 314.196 21.31 314.004 21.85ZM317.946 23.938V19.384C317.946 19.216 318.03 19.132 318.198 19.132H318.936C319.104 19.132 319.188 19.216 319.188 19.384V31.012C319.188 31.18 319.104 31.264 318.936 31.264H318.198C318.03 31.264 317.946 31.18 317.946 31.012V24.982H314.544C314.388 24.982 314.31 24.91 314.31 24.766V24.154C314.31 24.01 314.388 23.938 314.544 23.938H317.946ZM319.746 35.188C319.746 35.26 319.716 35.314 319.656 35.35C319.596 35.386 319.536 35.404 319.476 35.404H310.368C309.804 35.404 309.432 35.296 309.252 35.08C309.084 34.876 309 34.528 309 34.036V30.616C309 30.448 309.084 30.364 309.252 30.364H309.99C310.158 30.364 310.242 30.448 310.242 30.616V33.946C310.242 34.114 310.266 34.216 310.314 34.252C310.374 34.3 310.488 34.324 310.656 34.324H319.476C319.536 34.324 319.596 34.342 319.656 34.378C319.716 34.426 319.746 34.48 319.746 34.54V35.188ZM335.666 32.902C335.666 33.514 335.474 34.012 335.09 34.396C334.706 34.78 334.232 35.08 333.668 35.296C333.104 35.512 332.492 35.656 331.832 35.728C331.184 35.812 330.59 35.854 330.05 35.854C329.69 35.854 329.3 35.836 328.88 35.8C328.472 35.764 328.058 35.704 327.638 35.62C327.23 35.548 326.834 35.44 326.45 35.296C326.066 35.152 325.724 34.966 325.424 34.738C325.136 34.522 324.902 34.264 324.722 33.964C324.542 33.664 324.452 33.31 324.452 32.902C324.452 32.302 324.644 31.816 325.028 31.444C325.412 31.06 325.886 30.76 326.45 30.544C327.014 30.328 327.62 30.178 328.268 30.094C328.928 30.01 329.522 29.968 330.05 29.968C330.59 29.968 331.184 30.01 331.832 30.094C332.492 30.166 333.104 30.31 333.668 30.526C334.244 30.742 334.718 31.042 335.09 31.426C335.474 31.81 335.666 32.302 335.666 32.902ZM334.352 32.92C334.352 32.524 334.19 32.212 333.866 31.984C333.542 31.744 333.152 31.558 332.696 31.426C332.24 31.294 331.766 31.21 331.274 31.174C330.794 31.126 330.386 31.102 330.05 31.102C329.702 31.102 329.282 31.126 328.79 31.174C328.31 31.21 327.842 31.294 327.386 31.426C326.942 31.558 326.558 31.744 326.234 31.984C325.922 32.212 325.766 32.524 325.766 32.92C325.766 33.304 325.922 33.616 326.234 33.856C326.558 34.096 326.942 34.276 327.386 34.396C327.842 34.528 328.31 34.612 328.79 34.648C329.282 34.696 329.702 34.72 330.05 34.72C330.386 34.72 330.8 34.696 331.292 34.648C331.784 34.612 332.252 34.528 332.696 34.396C333.152 34.276 333.542 34.096 333.866 33.856C334.19 33.616 334.352 33.304 334.352 32.92ZM337.736 27.61C337.796 27.61 337.856 27.634 337.916 27.682C337.976 27.718 338.006 27.772 338.006 27.844V28.456C338.006 28.516 337.976 28.57 337.916 28.618C337.856 28.666 337.796 28.69 337.736 28.69H322.436C322.364 28.69 322.298 28.666 322.238 28.618C322.19 28.57 322.166 28.516 322.166 28.456V27.844C322.166 27.772 322.19 27.718 322.238 27.682C322.298 27.634 322.364 27.61 322.436 27.61H329.402V24.892C329.402 24.724 329.486 24.64 329.654 24.64H330.392C330.56 24.64 330.644 24.724 330.644 24.892V27.61H337.736ZM330.716 19.51C330.692 19.606 330.668 19.708 330.644 19.816C330.632 19.912 330.614 20.008 330.59 20.104C330.65 20.284 330.722 20.44 330.806 20.572C331.022 20.956 331.316 21.334 331.688 21.706C332.06 22.078 332.486 22.426 332.966 22.75C333.458 23.062 333.992 23.344 334.568 23.596C335.156 23.836 335.768 24.028 336.404 24.172C336.476 24.196 336.518 24.238 336.53 24.298C336.542 24.358 336.536 24.418 336.512 24.478L336.206 25.09C336.182 25.15 336.146 25.198 336.098 25.234C336.062 25.258 335.984 25.258 335.864 25.234C335.228 25.078 334.616 24.868 334.028 24.604C333.44 24.34 332.894 24.04 332.39 23.704C331.886 23.368 331.424 23.002 331.004 22.606C330.596 22.21 330.26 21.802 329.996 21.382C329.468 22.246 328.706 23.032 327.71 23.74C326.726 24.448 325.574 24.994 324.254 25.378C324.062 25.426 323.942 25.396 323.894 25.288L323.624 24.64C323.6 24.58 323.594 24.514 323.606 24.442C323.63 24.37 323.684 24.322 323.768 24.298C324.572 24.082 325.31 23.8 325.982 23.452C326.654 23.092 327.236 22.696 327.728 22.264C328.232 21.82 328.634 21.352 328.934 20.86C329.234 20.368 329.414 19.876 329.474 19.384C329.498 19.216 329.576 19.144 329.708 19.168L330.518 19.258C330.662 19.282 330.728 19.366 330.716 19.51ZM350.596 30.67C350.788 30.634 350.89 30.676 350.902 30.796L351.01 31.426C351.034 31.57 350.956 31.654 350.776 31.678C350.38 31.75 349.948 31.822 349.48 31.894C349.012 31.954 348.526 32.014 348.022 32.074C347.53 32.122 347.032 32.17 346.528 32.218C346.024 32.266 345.532 32.302 345.052 32.326C344.704 32.35 344.284 32.368 343.792 32.38C343.312 32.392 342.814 32.404 342.298 32.416C341.794 32.416 341.302 32.416 340.822 32.416C340.342 32.416 339.934 32.41 339.598 32.398C339.526 32.398 339.46 32.374 339.4 32.326C339.352 32.278 339.328 32.224 339.328 32.164V31.552C339.328 31.48 339.352 31.426 339.4 31.39C339.46 31.342 339.526 31.318 339.598 31.318C339.862 31.33 340.186 31.342 340.57 31.354C340.966 31.354 341.38 31.354 341.812 31.354C342.244 31.354 342.682 31.348 343.126 31.336C343.57 31.324 343.984 31.312 344.368 31.3V27.502H342.046C341.518 27.502 341.158 27.418 340.966 27.25C340.774 27.07 340.678 26.728 340.678 26.224V22.03C340.678 21.526 340.774 21.19 340.966 21.022C341.158 20.842 341.518 20.752 342.046 20.752H348.94C349.096 20.752 349.174 20.83 349.174 20.986V21.58C349.174 21.748 349.096 21.832 348.94 21.832H342.352C342.184 21.832 342.07 21.868 342.01 21.94C341.95 22 341.92 22.12 341.92 22.3V25.954C341.92 26.122 341.95 26.242 342.01 26.314C342.07 26.386 342.184 26.422 342.352 26.422H349.066C349.222 26.422 349.3 26.5 349.3 26.656V27.25C349.3 27.418 349.222 27.502 349.066 27.502H345.61V31.246C346.018 31.222 346.444 31.192 346.888 31.156C347.332 31.108 347.776 31.06 348.22 31.012C348.664 30.964 349.09 30.91 349.498 30.85C349.906 30.79 350.272 30.73 350.596 30.67ZM353.044 35.476C353.044 35.644 352.96 35.728 352.792 35.728H352.054C351.886 35.728 351.802 35.644 351.802 35.476V19.384C351.802 19.216 351.886 19.132 352.054 19.132H352.792C352.96 19.132 353.044 19.216 353.044 19.384V35.476ZM369.971 28.168C369.971 28.336 369.887 28.42 369.719 28.42H368.981C368.813 28.42 368.729 28.336 368.729 28.168V24.388H365.633C365.573 24.904 365.417 25.378 365.165 25.81C364.925 26.23 364.613 26.59 364.229 26.89C363.857 27.19 363.419 27.424 362.915 27.592C362.423 27.76 361.901 27.844 361.349 27.844C360.761 27.844 360.209 27.748 359.693 27.556C359.177 27.364 358.727 27.094 358.343 26.746C357.959 26.386 357.653 25.966 357.425 25.486C357.209 24.994 357.101 24.448 357.101 23.848C357.101 23.224 357.209 22.666 357.425 22.174C357.653 21.67 357.959 21.25 358.343 20.914C358.727 20.566 359.177 20.302 359.693 20.122C360.209 19.93 360.761 19.834 361.349 19.834C361.865 19.834 362.363 19.912 362.843 20.068C363.335 20.224 363.773 20.452 364.157 20.752C364.541 21.052 364.865 21.418 365.129 21.85C365.393 22.27 365.561 22.756 365.633 23.308H368.729V19.384C368.729 19.216 368.813 19.132 368.981 19.132H369.719C369.887 19.132 369.971 19.216 369.971 19.384V28.168ZM364.409 23.83C364.409 23.362 364.325 22.948 364.157 22.588C363.989 22.228 363.761 21.928 363.473 21.688C363.197 21.448 362.873 21.268 362.501 21.148C362.141 21.028 361.757 20.968 361.349 20.968C360.929 20.968 360.539 21.028 360.179 21.148C359.819 21.268 359.501 21.448 359.225 21.688C358.961 21.928 358.751 22.228 358.595 22.588C358.439 22.948 358.361 23.362 358.361 23.83C358.361 24.274 358.433 24.676 358.577 25.036C358.733 25.384 358.943 25.684 359.207 25.936C359.471 26.188 359.783 26.38 360.143 26.512C360.515 26.644 360.917 26.71 361.349 26.71C361.757 26.71 362.141 26.644 362.501 26.512C362.873 26.38 363.197 26.188 363.473 25.936C363.761 25.684 363.989 25.384 364.157 25.036C364.325 24.676 364.409 24.274 364.409 23.83ZM371.591 35.566C371.543 35.626 371.495 35.668 371.447 35.692C371.411 35.716 371.351 35.704 371.267 35.656C370.511 35.26 369.863 34.786 369.323 34.234C368.795 33.694 368.387 33.106 368.099 32.47C367.787 33.118 367.397 33.706 366.929 34.234C366.473 34.774 365.951 35.224 365.363 35.584C365.195 35.68 365.015 35.674 364.823 35.566C364.235 35.23 363.707 34.804 363.239 34.288C362.771 33.784 362.399 33.226 362.123 32.614C361.811 33.238 361.385 33.802 360.845 34.306C360.317 34.81 359.663 35.272 358.883 35.692C358.823 35.716 358.757 35.74 358.685 35.764C358.613 35.788 358.559 35.776 358.523 35.728L358.091 35.08C358.067 35.032 358.061 34.972 358.073 34.9C358.097 34.84 358.145 34.792 358.217 34.756C359.393 34.18 360.251 33.472 360.791 32.632C361.343 31.78 361.583 30.748 361.511 29.536C361.511 29.38 361.571 29.302 361.691 29.302L362.555 29.32C362.687 29.32 362.753 29.392 362.753 29.536C362.753 29.896 362.735 30.244 362.699 30.58C362.711 30.94 362.783 31.312 362.915 31.696C363.047 32.08 363.215 32.446 363.419 32.794C363.623 33.13 363.857 33.442 364.121 33.73C364.397 34.006 364.685 34.222 364.985 34.378C365.093 34.438 365.189 34.438 365.273 34.378C365.597 34.174 365.897 33.898 366.173 33.55C366.449 33.202 366.689 32.812 366.893 32.38C367.109 31.948 367.271 31.486 367.379 30.994C367.499 30.502 367.553 30.01 367.541 29.518C367.541 29.458 367.553 29.404 367.577 29.356C367.613 29.296 367.667 29.266 367.739 29.266L368.585 29.284C368.717 29.284 368.783 29.356 368.783 29.5C368.771 29.632 368.759 29.764 368.747 29.896C368.747 30.016 368.741 30.142 368.729 30.274C368.729 31.234 368.999 32.098 369.539 32.866C370.079 33.622 370.859 34.234 371.879 34.702C372.023 34.786 372.047 34.9 371.951 35.044L371.591 35.566ZM376.783 35.62C376.495 35.62 376.261 35.602 376.081 35.566C375.913 35.53 375.781 35.458 375.685 35.35C375.589 35.254 375.523 35.122 375.487 34.954C375.451 34.798 375.433 34.594 375.433 34.342V29.248C375.433 29.188 375.457 29.14 375.505 29.104C375.553 29.056 375.607 29.032 375.667 29.032H376.459C376.519 29.032 376.567 29.056 376.603 29.104C376.651 29.152 376.675 29.2 376.675 29.248V31.192H385.027V29.266C385.027 29.206 385.045 29.152 385.081 29.104C385.129 29.056 385.183 29.032 385.243 29.032H386.035C386.095 29.032 386.149 29.056 386.197 29.104C386.245 29.14 386.269 29.188 386.269 29.248V34.468C386.269 34.924 386.173 35.23 385.981 35.386C385.789 35.542 385.429 35.62 384.901 35.62H376.783ZM376.675 32.272V34.108C376.675 34.288 376.705 34.402 376.765 34.45C376.825 34.51 376.939 34.54 377.107 34.54H384.595C384.763 34.54 384.877 34.51 384.937 34.45C384.997 34.402 385.027 34.288 385.027 34.108V32.272H376.675ZM381.499 19.456C381.475 19.528 381.457 19.6 381.445 19.672C381.445 19.732 381.433 19.792 381.409 19.852C381.445 20.008 381.493 20.158 381.553 20.302C381.625 20.446 381.703 20.578 381.787 20.698C382.039 21.094 382.363 21.472 382.759 21.832C383.155 22.18 383.587 22.498 384.055 22.786C384.535 23.062 385.039 23.302 385.567 23.506C386.107 23.71 386.647 23.866 387.187 23.974C387.259 23.998 387.301 24.04 387.313 24.1C387.325 24.16 387.319 24.22 387.295 24.28L386.989 24.892C386.965 24.952 386.929 25 386.881 25.036C386.845 25.06 386.767 25.06 386.647 25.036C386.035 24.892 385.429 24.694 384.829 24.442C384.241 24.178 383.689 23.878 383.173 23.542C382.657 23.194 382.195 22.822 381.787 22.426C381.379 22.03 381.055 21.634 380.815 21.238C380.335 22.066 379.633 22.792 378.709 23.416C377.785 24.04 376.573 24.604 375.073 25.108C374.881 25.168 374.761 25.138 374.713 25.018L374.407 24.37C374.383 24.31 374.377 24.244 374.389 24.172C374.413 24.1 374.467 24.052 374.551 24.028C375.427 23.764 376.195 23.476 376.855 23.164C377.527 22.852 378.097 22.51 378.565 22.138C379.033 21.766 379.405 21.352 379.681 20.896C379.969 20.428 380.161 19.906 380.257 19.33C380.293 19.174 380.371 19.102 380.491 19.114L381.301 19.204C381.361 19.204 381.415 19.228 381.463 19.276C381.511 19.312 381.523 19.372 381.499 19.456ZM388.519 26.494C388.579 26.494 388.639 26.518 388.699 26.566C388.759 26.602 388.789 26.656 388.789 26.728V27.34C388.789 27.4 388.759 27.454 388.699 27.502C388.639 27.55 388.579 27.574 388.519 27.574H373.219C373.147 27.574 373.081 27.55 373.021 27.502C372.973 27.454 372.949 27.4 372.949 27.34V26.71C372.949 26.638 372.973 26.584 373.021 26.548C373.081 26.512 373.147 26.494 373.219 26.494H388.519ZM403.827 35.476C403.827 35.644 403.743 35.728 403.575 35.728H402.837C402.669 35.728 402.585 35.644 402.585 35.476V19.384C402.585 19.216 402.669 19.132 402.837 19.132H403.575C403.743 19.132 403.827 19.216 403.827 19.384V35.476ZM392.901 29.158C392.901 29.338 392.931 29.458 392.991 29.518C393.051 29.578 393.165 29.614 393.333 29.626C393.921 29.65 394.545 29.656 395.205 29.644C395.877 29.62 396.549 29.584 397.221 29.536C397.893 29.476 398.547 29.404 399.183 29.32C399.831 29.236 400.431 29.14 400.983 29.032C401.187 28.984 401.307 29.056 401.343 29.248L401.433 29.752C401.469 29.92 401.391 30.028 401.199 30.076C400.791 30.172 400.263 30.262 399.615 30.346C398.979 30.43 398.289 30.508 397.545 30.58C396.801 30.64 396.039 30.688 395.259 30.724C394.479 30.748 393.753 30.754 393.081 30.742C392.541 30.73 392.169 30.604 391.965 30.364C391.761 30.124 391.659 29.752 391.659 29.248V20.392C391.659 20.224 391.743 20.14 391.911 20.14H392.649C392.817 20.14 392.901 20.224 392.901 20.392V29.158ZM417.569 29.914C417.593 30.082 417.515 30.184 417.335 30.22C416.891 30.328 416.327 30.43 415.643 30.526C414.971 30.622 414.257 30.706 413.501 30.778C412.757 30.85 412.019 30.904 411.287 30.94C410.555 30.976 409.919 30.988 409.379 30.976C408.839 30.964 408.467 30.838 408.263 30.598C408.071 30.358 407.975 29.986 407.975 29.482V21.742C407.975 21.238 408.071 20.902 408.263 20.734C408.455 20.566 408.815 20.482 409.343 20.482H415.535C415.691 20.482 415.769 20.554 415.769 20.698V21.346C415.769 21.49 415.691 21.562 415.535 21.562H409.577C409.409 21.562 409.307 21.586 409.271 21.634C409.235 21.67 409.217 21.778 409.217 21.958V29.392C409.217 29.572 409.247 29.692 409.307 29.752C409.367 29.812 409.481 29.848 409.649 29.86C410.225 29.884 410.831 29.884 411.467 29.86C412.115 29.824 412.763 29.776 413.411 29.716C414.071 29.644 414.713 29.566 415.337 29.482C415.973 29.386 416.573 29.284 417.137 29.176C417.329 29.14 417.443 29.206 417.479 29.374L417.569 29.914ZM420.125 35.476C420.125 35.644 420.041 35.728 419.873 35.728H419.135C418.967 35.728 418.883 35.644 418.883 35.476V19.384C418.883 19.216 418.967 19.132 419.135 19.132H419.873C420.041 19.132 420.125 19.216 420.125 19.384V25.936H422.609C422.681 25.936 422.741 25.96 422.789 26.008C422.849 26.044 422.879 26.098 422.879 26.17V26.782C422.879 26.842 422.849 26.896 422.789 26.944C422.741 26.992 422.681 27.016 422.609 27.016H420.125V35.476ZM425.136 33.928C425.136 33.676 425.22 33.466 425.388 33.298C425.568 33.118 425.784 33.028 426.036 33.028C426.288 33.028 426.498 33.118 426.666 33.298C426.846 33.466 426.936 33.676 426.936 33.928C426.936 34.18 426.846 34.39 426.666 34.558C426.498 34.738 426.288 34.828 426.036 34.828C425.784 34.828 425.568 34.738 425.388 34.558C425.22 34.39 425.136 34.18 425.136 33.928Z" fill="#4DB7E6"/>
<path fill-rule="evenodd" clip-rule="evenodd" d="M33.6311 33.2705L47.4339 21.7682L46.7937 21L33.0732 32.4337L28.8321 26.072L28 26.6267L32.3006 33.0776L32.2183 33.1462L32.8585 33.9144L33.6905 33.3597L33.6311 33.2705Z" fill="#4DB7E6"/>
<path d="M47.4339 21.7682L47.754 22.1523L48.1381 21.8322L47.818 21.4481L47.4339 21.7682ZM33.6311 33.2705L33.311 32.8864L32.9658 33.1741L33.2151 33.5479L33.6311 33.2705ZM46.7937 21L47.1778 20.6799L46.8577 20.2958L46.4736 20.6159L46.7937 21ZM33.0732 32.4337L32.6572 32.7111L32.9658 33.1741L33.3933 32.8178L33.0732 32.4337ZM28.8321 26.072L29.2481 25.7946L28.9707 25.3786L28.5547 25.656L28.8321 26.072ZM28 26.6267L27.7226 26.2107L27.3066 26.488L27.584 26.904L28 26.6267ZM32.3006 33.0776L32.6207 33.4617L32.9658 33.1741L32.7166 32.8002L32.3006 33.0776ZM32.2183 33.1462L31.8982 32.7621L31.5141 33.0821L31.8342 33.4663L32.2183 33.1462ZM32.8585 33.9144L32.4744 34.2345L32.762 34.5796L33.1358 34.3304L32.8585 33.9144ZM33.6905 33.3597L33.9679 33.7757L34.3839 33.4984L34.1065 33.0823L33.6905 33.3597ZM47.1138 21.3841L33.311 32.8864L33.9512 33.6546L47.754 22.1523L47.1138 21.3841ZM46.4096 21.3201L47.0498 22.0883L47.818 21.4481L47.1778 20.6799L46.4096 21.3201ZM33.3933 32.8178L47.1138 21.3841L46.4736 20.6159L32.7531 32.0496L33.3933 32.8178ZM28.416 26.3493L32.6572 32.7111L33.4892 32.1564L29.2481 25.7946L28.416 26.3493ZM28.2774 27.0427L29.1094 26.488L28.5547 25.656L27.7226 26.2107L28.2774 27.0427ZM32.7166 32.8002L28.416 26.3493L27.584 26.904L31.8846 33.3549L32.7166 32.8002ZM32.5384 33.5303L32.6207 33.4617L31.9805 32.6935L31.8982 32.7621L32.5384 33.5303ZM33.2426 33.5943L32.6024 32.8261L31.8342 33.4663L32.4744 34.2345L33.2426 33.5943ZM33.4132 32.9437L32.5811 33.4984L33.1358 34.3304L33.9679 33.7757L33.4132 32.9437ZM33.2151 33.5479L33.2745 33.637L34.1065 33.0823L34.0471 32.9932L33.2151 33.5479Z" fill="#4DB7E6"/>
</svg>
